<svg width="367" height="412" viewBox="0 0 367 412" fill="none" xmlns="http://www.w3.org/2000/svg">
<g filter="url(#filter0_d_202_68)">
<path d="M337.168 245.513L241.687 245.479C243.879 234.238 241.604 224.076 234.862 214.993C235.297 214.657 235.77 214.513 236.281 214.563C236.361 214.571 236.441 214.555 236.512 214.518C236.583 214.481 236.642 214.424 236.681 214.354C236.721 214.284 236.74 214.203 236.736 214.122C236.731 214.041 236.704 213.963 236.657 213.896C227.755 201.611 218.258 189.805 208.168 178.479C208.011 178.304 207.832 178.277 207.63 178.398L205.801 179.488C205.537 179.645 205.521 179.824 205.754 180.026C206.498 180.672 207.621 181.856 209.123 183.579C218.133 193.913 225.735 203.331 231.93 211.831C231.944 211.853 232.318 212.309 233.053 213.197C233.551 213.798 233.939 214.462 234.217 215.188C234.6 225.779 234.896 235.414 238.224 245.607L212.007 245.486C211.685 245.481 211.622 245.351 211.819 245.096C214.975 241.023 217.335 236.528 218.899 231.612C218.953 231.428 218.886 231.336 218.698 231.336L148.418 231.33C148.376 231.329 148.335 231.338 148.297 231.357C148.259 231.375 148.227 231.402 148.201 231.435C148.176 231.469 148.158 231.507 148.15 231.549C148.143 231.59 148.145 231.632 148.156 231.673C149.528 236.432 151.644 240.85 154.504 244.928C154.538 244.978 154.558 245.037 154.562 245.098C154.566 245.16 154.554 245.22 154.526 245.275C154.498 245.329 154.457 245.374 154.405 245.405C154.354 245.436 154.295 245.453 154.235 245.452L128.119 245.439C131.877 235.838 132.435 225.873 132.852 215.693C133.09 215.365 133.244 214.98 133.316 214.536C133.348 214.32 133.431 214.123 133.565 213.944C141.643 203.196 150.128 192.781 159.022 182.697C159.766 181.858 160.571 181.078 161.436 180.356C161.656 180.176 161.658 179.995 161.443 179.811L160.024 178.613C159.764 178.393 159.52 178.411 159.291 178.667C149.299 189.867 139.758 201.44 130.667 213.385C130.524 213.578 130.528 213.766 130.68 213.95L131.844 215.357C125.559 224.485 123.356 234.577 125.234 245.634L31.2929 245.493L29.6186 245.439C29.39 245.43 29.2353 245.32 29.1547 245.109C14.4762 207.996 12.5867 167.733 24.7773 129.759C36.3157 93.8026 60.428 61.4258 92.0308 40.6959C127.244 17.5975 170.399 7.87509 212.417 15.7943C297.785 31.8818 356.654 109.715 349.17 196.692C347.691 213.921 343.69 230.195 337.168 245.513ZM200.039 120.723C197.622 124.316 195.549 128.106 193.819 132.093C186.916 129.878 179.99 129.81 173.042 131.892C171.098 127.794 168.994 123.414 165.8 120.319C161.94 115.064 151.397 106.6 144.673 109.58C144.467 109.67 144.357 109.827 144.344 110.051C144.014 115.152 159.997 120.972 164.596 122.028C167.066 125.257 169.261 128.669 171.179 132.262C166.956 134.785 162.747 136.554 159.244 140.874C159.083 141.076 159.132 141.177 159.392 141.177H207.623C207.669 141.176 207.714 141.161 207.753 141.136C207.791 141.11 207.821 141.073 207.84 141.031C207.858 140.988 207.864 140.942 207.857 140.896C207.849 140.85 207.829 140.808 207.798 140.773C204.476 137.229 200.628 134.487 196.253 132.544C197.755 128.736 199.651 125.278 201.941 122.169C207.435 120.097 219.189 116.524 222.113 111.121C222.226 110.919 222.255 110.706 222.201 110.482C221.515 107.616 216.095 109.224 214.334 109.89C209.246 111.801 205.126 114.961 201.975 119.37C201.746 119.689 201.101 120.139 200.039 120.723ZM56.5348 161.866C56.3241 164.49 57.0436 166.798 58.6932 168.79C66.8562 180.026 87.0685 182.401 99.8777 181.849C104.168 181.67 110.78 180.961 119.714 179.723C112.573 183.141 99.9181 187.548 101.754 198.031C101.946 199.7 102.641 200.895 103.838 201.617C106.115 204.685 109.155 206.484 112.956 207.013C131.427 209.577 147.773 186.835 155.29 173.762C155.523 173.358 155.384 172.982 154.873 172.632C153.856 171.178 153.17 169.624 152.816 167.969L152.856 167.585H214.327L214.213 168.595C213.702 170.142 212.866 171.759 211.705 173.446C215.067 179.38 219.426 185.496 224.783 191.794C232.489 200.857 245.446 210.478 257.717 206.273C260.59 205.286 263.002 203.333 264.952 200.413C266.606 197.82 266.765 195.12 265.429 192.312C261.328 185.395 254.187 182.785 247.302 179.555C262.289 182.442 277.311 183.007 292.164 178.95C297.906 177.382 304.274 174.61 308.181 169.772C310.803 167.345 311.812 164.374 311.207 160.857C310.149 158.125 308.246 155.975 305.498 154.405C292.89 147.185 277.149 146.458 263.163 148.659C247.286 151.157 231.96 155.672 217.185 162.203L215.558 162.707C215.62 159.662 215.304 156.634 214.609 153.624C214.556 153.4 214.414 153.288 214.186 153.288H153.717C153.501 153.288 153.29 153.357 153.114 153.485C152.939 153.613 152.809 153.794 152.742 154.001C151.881 156.665 151.453 159.567 151.458 162.707C134.952 154.97 117.694 150.058 99.6828 147.972C89.6035 146.808 59.5203 147.912 56.5348 161.866ZM145.581 218.081L221.219 217.846C221.288 217.847 221.354 217.822 221.405 217.777C221.456 217.732 221.488 217.671 221.495 217.604C222.181 212.342 221.883 207.15 220.601 202.028C220.538 201.79 220.385 201.66 220.143 201.637C218.44 201.48 216.734 201.4 215.026 201.395C192.653 201.328 170.112 201.373 147.403 201.53C147.042 201.532 146.693 201.653 146.408 201.874C146.123 202.096 145.92 202.405 145.83 202.754C144.557 207.594 144.234 212.492 144.861 217.449C144.884 217.624 144.97 217.784 145.102 217.901C145.234 218.017 145.405 218.081 145.581 218.081Z" fill="#282A38"/>
<path d="M201.941 122.169L200.039 120.723C201.101 120.139 201.746 119.689 201.975 119.37C205.126 114.961 209.246 111.801 214.334 109.89C216.096 109.224 221.515 107.616 222.201 110.482C222.255 110.706 222.226 110.919 222.113 111.121C219.189 116.524 207.435 120.097 201.941 122.169Z" fill="#FDFAEC"/>
<path d="M165.8 120.319C165.773 121.158 165.372 121.727 164.596 122.028C159.997 120.972 144.014 115.152 144.344 110.051C144.357 109.827 144.467 109.67 144.673 109.58C151.397 106.6 161.94 115.064 165.8 120.319Z" fill="#FDFAEC"/>
<path d="M165.8 120.319C168.994 123.414 171.098 127.794 173.042 131.892L171.179 132.262C169.261 128.669 167.066 125.257 164.596 122.028C165.372 121.727 165.773 121.158 165.8 120.319Z" fill="#FECE3C"/>
<path d="M200.039 120.723L201.941 122.169C199.651 125.278 197.755 128.736 196.253 132.544C195.473 132.656 194.662 132.506 193.819 132.093C195.549 128.106 197.622 124.316 200.039 120.723Z" fill="#FECE3C"/>
<path d="M193.819 132.093C194.662 132.506 195.473 132.656 196.253 132.544C200.628 134.486 204.476 137.229 207.798 140.773C207.829 140.807 207.849 140.85 207.857 140.896C207.864 140.942 207.858 140.988 207.84 141.031C207.821 141.073 207.791 141.11 207.753 141.135C207.714 141.161 207.669 141.176 207.623 141.177H159.392C159.132 141.177 159.083 141.076 159.244 140.874C162.747 136.554 166.956 134.785 171.179 132.262L173.042 131.892C179.99 129.81 186.916 129.878 193.819 132.093Z" fill="#FDFAEC"/>
<path d="M151.458 162.707L151.679 163.212C151.451 163.598 151.106 163.775 150.644 163.744C148.855 163.299 145.345 162.313 140.114 160.783C127.253 157.015 113.953 154.79 100.214 154.109C87.008 153.449 73.7146 155.844 61.2147 160.016C60.623 160.213 59.8475 160.989 58.8882 162.344C58.7627 162.519 58.5923 162.613 58.3772 162.627C57.6465 162.663 57.0324 162.409 56.5348 161.866C59.5202 147.912 89.6035 146.808 99.6827 147.972C117.694 150.058 134.952 154.97 151.458 162.707Z" fill="#FDFAEC"/>
<path d="M311.207 160.857L311.16 162.142C311.155 162.357 311.059 162.523 310.87 162.64C310.055 163.138 309.373 163.107 308.826 162.546C307.051 160.729 306.09 160.83 304.066 159.929C279.052 148.827 249.863 155.4 224.595 161.463C223.075 161.833 220.466 162.035 218.429 162.916C217.736 163.212 217.138 163.084 217.185 162.203C231.96 155.672 247.286 151.157 263.164 148.659C277.149 146.458 292.89 147.185 305.498 154.405C308.246 155.975 310.149 158.125 311.207 160.857Z" fill="#FDFAEC"/>
<path d="M215.558 162.707V163.885C215.387 165.208 214.977 166.442 214.327 167.585H152.856L151.679 163.212L151.458 162.707C151.453 159.567 151.881 156.665 152.742 154.001C152.809 153.794 152.939 153.613 153.114 153.485C153.29 153.357 153.5 153.288 153.717 153.288H214.186C214.414 153.288 214.556 153.4 214.609 153.624C215.304 156.634 215.62 159.662 215.558 162.707Z" fill="#FAB222"/>
<path d="M150.644 163.744C136.228 171.804 118.315 175.659 102.043 177.066C88.5142 178.236 72.0336 176.662 60.4751 168.817C59.8094 168.366 59.3455 168.366 58.6932 168.79C57.0436 166.798 56.3241 164.49 56.5348 161.866C57.0324 162.409 57.6465 162.662 58.3772 162.627C58.5924 162.613 58.7627 162.519 58.8882 162.344C59.8475 160.989 60.623 160.213 61.2147 160.016C73.7147 155.844 87.008 153.449 100.214 154.109C113.953 154.79 127.253 157.015 140.114 160.783C145.345 162.313 148.855 163.299 150.644 163.744Z" fill="#FFF2AA"/>
<path d="M311.206 160.857C311.812 164.374 310.803 167.345 308.181 169.772L307.327 169.281C307.129 169.169 306.941 169.18 306.762 169.315C303.239 171.871 299.049 173.692 294.195 174.778C267.756 180.665 240.947 175.982 217.023 164.053C216.835 163.959 216.64 163.948 216.438 164.019C216.134 164.127 215.84 164.082 215.557 163.885V162.707L217.185 162.203C217.138 163.084 217.736 163.212 218.429 162.916C220.466 162.035 223.075 161.833 224.595 161.463C249.863 155.4 279.052 148.827 304.066 159.929C306.09 160.83 307.051 160.729 308.826 162.546C309.373 163.107 310.054 163.138 310.87 162.64C311.059 162.523 311.155 162.357 311.159 162.142L311.206 160.857Z" fill="#FFF2AA"/>
<path d="M151.68 163.212L152.856 167.585L152.816 167.969C148.253 170.216 143.873 171.981 139.677 173.264C131.599 175.74 124.945 177.893 119.714 179.723C110.78 180.961 104.168 181.67 99.8778 181.849C87.0685 182.401 66.8562 180.026 58.6932 168.79C59.3455 168.366 59.8094 168.366 60.4751 168.817C72.0337 176.662 88.5142 178.236 102.043 177.066C118.315 175.659 136.228 171.804 150.644 163.744C151.106 163.775 151.451 163.598 151.68 163.212Z" fill="#FECE3C"/>
<path d="M215.558 163.885C215.84 164.082 216.134 164.127 216.438 164.019C216.64 163.948 216.835 163.959 217.023 164.053C240.947 175.982 267.756 180.665 294.195 174.778C299.05 173.692 303.239 171.871 306.762 169.315C306.941 169.18 307.13 169.169 307.327 169.281L308.181 169.772C304.274 174.61 297.906 177.382 292.164 178.95C277.311 183.007 262.289 182.442 247.302 179.555C237.74 176.07 226.585 172.881 215.679 168.736C215.221 168.561 214.69 168.588 214.213 168.595L214.327 167.585C214.977 166.442 215.387 165.208 215.558 163.885Z" fill="#FECE3C"/>
<path d="M152.816 167.969C153.17 169.624 153.856 171.178 154.873 172.632L154.06 173.479C141.396 176.772 132.088 179.474 126.135 181.587C118.725 184.22 111.582 188.618 104.706 194.781C104.535 194.934 104.425 195.12 104.376 195.34C104.044 196.721 103.17 197.618 101.754 198.031C99.9181 187.548 112.573 183.141 119.714 179.723C124.945 177.893 131.599 175.74 139.677 173.264C143.873 171.981 148.253 170.216 152.816 167.969Z" fill="#FDFAEC"/>
<path d="M214.213 168.595C214.69 168.588 215.221 168.561 215.679 168.736C226.585 172.881 237.74 176.07 247.302 179.555C254.187 182.785 261.328 185.395 265.429 192.312L265.14 193.321C265.078 193.541 265.098 193.754 265.201 193.96C265.416 194.4 265.459 194.849 265.329 195.306C265.257 195.553 265.282 195.791 265.403 196.019C266.133 197.405 265.831 198.442 264.495 199.128C264.23 199.262 264.069 199.186 264.011 198.899C263.695 197.331 263.237 196.167 262.101 194.976C251.228 183.653 236.241 179.017 221.387 175.572C219.02 175.025 216.62 174.614 214.186 174.341C213.648 173.762 212.821 173.464 211.705 173.446C212.866 171.759 213.702 170.142 214.213 168.595Z" fill="#FDFAEC"/>
<path d="M154.873 172.632C155.384 172.982 155.523 173.358 155.29 173.762C147.773 186.835 131.427 209.577 112.956 207.013C109.155 206.484 106.115 204.685 103.838 201.617C107.698 203.192 111.638 203.925 115.659 203.817C123.869 203.602 132.846 198.004 138.003 191.928C143.31 185.662 148.663 179.512 154.06 173.479L154.873 172.632Z" fill="#FECE3C"/>
<path d="M154.06 173.479C148.663 179.512 143.31 185.662 138.003 191.928C132.846 198.004 123.869 203.602 115.659 203.817C111.638 203.925 107.698 203.192 103.838 201.617C102.641 200.895 101.946 199.7 101.754 198.031C103.17 197.618 104.044 196.721 104.376 195.34C104.425 195.12 104.535 194.934 104.706 194.781C111.582 188.618 118.725 184.22 126.135 181.587C132.088 179.474 141.396 176.772 154.06 173.479Z" fill="#FFF2AA"/>
<path d="M211.705 173.446C212.821 173.464 213.648 173.762 214.186 174.341C224.917 187.616 235.817 204.295 254.523 203.925C257.307 203.871 261.321 202.768 263.627 200.453C263.78 200.301 263.961 200.242 264.172 200.278L264.952 200.413C263.002 203.333 260.59 205.286 257.717 206.273C245.446 210.478 232.489 200.857 224.783 191.794C219.426 185.496 215.067 179.38 211.705 173.446Z" fill="#FECE3C"/>
<path d="M214.186 174.341C216.62 174.614 219.02 175.025 221.387 175.572C236.241 179.017 251.228 183.653 262.101 194.976C263.238 196.167 263.695 197.331 264.011 198.899C264.069 199.186 264.23 199.262 264.495 199.128C265.831 198.442 266.133 197.405 265.403 196.019C265.282 195.791 265.257 195.553 265.329 195.306C265.459 194.849 265.416 194.4 265.201 193.96C265.098 193.754 265.078 193.541 265.14 193.321L265.43 192.312C266.765 195.12 266.606 197.82 264.952 200.413L264.172 200.278C263.961 200.242 263.78 200.301 263.628 200.453C261.321 202.768 257.307 203.871 254.523 203.925C235.817 204.295 224.917 187.616 214.186 174.341Z" fill="#FFF2AA"/>
<path d="M234.862 214.993L234.217 215.188C233.939 214.462 233.551 213.798 233.053 213.197C232.318 212.309 231.944 211.853 231.931 211.831C225.735 203.331 218.133 193.913 209.123 183.579C207.621 181.856 206.498 180.672 205.754 180.026C205.521 179.824 205.537 179.645 205.801 179.488L207.63 178.398C207.832 178.277 208.011 178.304 208.168 178.479C218.258 189.805 227.755 201.611 236.657 213.896C236.704 213.963 236.731 214.041 236.736 214.122C236.74 214.203 236.721 214.284 236.681 214.354C236.642 214.424 236.583 214.481 236.512 214.518C236.441 214.555 236.361 214.571 236.281 214.563C235.77 214.513 235.297 214.657 234.862 214.993Z" fill="#FAB222"/>
<path d="M132.852 215.693C132.659 215.312 132.323 215.199 131.844 215.356L130.68 213.95C130.528 213.766 130.523 213.578 130.667 213.385C139.758 201.44 149.299 189.867 159.291 178.667C159.52 178.411 159.764 178.393 160.024 178.613L161.443 179.811C161.658 179.995 161.656 180.176 161.436 180.356C160.571 181.078 159.766 181.858 159.022 182.697C150.128 192.781 141.643 203.196 133.565 213.944C133.431 214.123 133.348 214.32 133.316 214.536C133.244 214.98 133.09 215.365 132.852 215.693Z" fill="#FECE3C"/>
<path d="M145.581 218.081C145.405 218.081 145.235 218.017 145.102 217.901C144.97 217.784 144.884 217.624 144.861 217.449C144.234 212.492 144.557 207.594 145.83 202.754C145.92 202.405 146.124 202.096 146.408 201.874C146.693 201.653 147.043 201.532 147.403 201.53C170.112 201.373 192.653 201.328 215.026 201.395C216.734 201.4 218.44 201.48 220.143 201.637C220.385 201.66 220.538 201.79 220.601 202.028C221.883 207.15 222.181 212.342 221.495 217.604C221.488 217.671 221.456 217.732 221.405 217.777C221.354 217.822 221.288 217.847 221.219 217.846L145.581 218.081Z" fill="#FAB222"/>
<path d="M234.862 214.993C241.604 224.076 243.879 234.238 241.687 245.479C240.481 246.166 239.327 246.208 238.224 245.607C234.896 235.414 234.6 225.779 234.217 215.188L234.862 214.993Z" fill="#FFF2AA"/>
<path d="M131.844 215.357C132.323 215.2 132.66 215.312 132.852 215.693C132.435 225.873 131.877 235.838 128.119 245.439C127.195 246.13 126.234 246.195 125.234 245.634C123.356 234.577 125.559 224.485 131.844 215.357Z" fill="#FFF2AA"/>
<path d="M238.227 245.815C239.331 246.437 240.488 246.393 241.696 245.682L337.34 245.717C336.792 246.038 336.579 246.493 336.7 247.083C336.749 247.316 336.727 247.543 336.633 247.766C329.493 264.143 320.346 279.213 309.192 292.978C308.963 293.257 308.705 293.519 308.417 293.765L58.1934 293.94C57.2369 293.14 56.3793 292.234 55.6204 291.221C45.3622 277.573 36.4309 264.196 30.0726 248.08C29.9873 247.862 29.9963 247.645 30.0995 247.432L30.9415 245.696L125.043 245.842C126.045 246.423 127.008 246.356 127.933 245.64L154.093 245.654C154.154 245.655 154.213 245.638 154.264 245.605C154.316 245.573 154.358 245.526 154.385 245.47C154.413 245.414 154.426 245.351 154.422 245.288C154.418 245.224 154.397 245.163 154.363 245.111C151.498 240.886 149.379 236.309 148.005 231.378C147.993 231.337 147.991 231.293 147.999 231.25C148.007 231.207 148.024 231.167 148.05 231.132C148.075 231.098 148.108 231.07 148.146 231.051C148.184 231.032 148.225 231.022 148.267 231.023L218.667 231.03C218.855 231.03 218.923 231.125 218.869 231.316C217.302 236.409 214.938 241.065 211.776 245.285C211.579 245.55 211.642 245.684 211.965 245.689L238.227 245.815ZM158.155 249.293C173.317 263.116 193.281 263.98 208.173 248.826C208.303 248.691 208.276 248.624 208.092 248.624L158.398 248.638C157.755 248.638 157.675 248.856 158.155 249.293Z" fill="#FCAB1C"/>
<path d="M158.289 248.965C157.81 248.543 157.89 248.332 158.531 248.332L208.141 248.319C208.325 248.319 208.352 248.384 208.222 248.514C193.355 263.141 173.425 262.307 158.289 248.965Z" fill="#282A38"/>
<path d="M307.488 292.698C302.23 298.758 296.537 304.378 290.409 309.559C290.114 309.81 289.625 310.093 288.944 310.407L75.6783 310.562C69.2412 305.13 63.2456 299.231 57.6916 292.866L307.488 292.698Z" fill="#C17E2F"/>
<path d="M289.75 309.6C289.804 310.228 289.555 310.704 289.004 311.027C288.251 311.466 287.859 311.697 287.827 311.72C249.568 342.064 203.791 355.043 155.25 346.949C130.929 342.892 107.476 332.456 87.2366 318.159C83.0319 315.189 79.448 312.388 76.4849 309.755L289.75 309.6Z" fill="#FECE3C"/>
<path d="M108.145 58.5273C104.811 58.5273 103.144 61.7431 103.144 68.1746V70.7235C103.144 73.7779 103.585 76.1763 104.467 77.9186C105.349 79.6394 106.65 80.4998 108.371 80.4998C110.737 80.4998 112.909 78.1983 114.888 73.5951H115.469L115.243 80.7902H114.888C114.759 80.5536 114.641 80.3923 114.533 80.3062C114.426 80.1987 114.265 80.1449 114.049 80.1449C113.856 80.1449 113.081 80.317 111.726 80.6612C110.371 80.9838 108.995 81.1451 107.596 81.1451C104.09 81.1451 101.369 80.1987 99.4334 78.3058C97.519 76.4129 96.5618 73.5736 96.5618 69.7878C96.5618 65.9805 97.562 63.0444 99.5624 60.9794C101.584 58.9145 104.295 57.882 107.693 57.882C109.005 57.882 110.285 58.0541 111.533 58.3982C112.802 58.7209 113.544 58.8822 113.759 58.8822C113.974 58.8822 114.135 58.8392 114.243 58.7532C114.351 58.6456 114.469 58.4735 114.598 58.2369H114.953L115.211 65.2384H114.63C113.662 63.0659 112.662 61.4096 111.63 60.2696C110.619 59.1081 109.457 58.5273 108.145 58.5273ZM143.351 70.8526V68.4649C143.351 64.5286 143.158 62.0442 142.77 61.0117C142.34 59.8287 141.727 59.0973 140.931 58.8177C140.48 58.6456 139.931 58.5596 139.286 58.5596C138.64 58.5596 138.081 58.6456 137.608 58.8177C137.156 58.9898 136.78 59.2909 136.479 59.7211C136.178 60.1513 135.93 60.603 135.737 61.0762C135.565 61.5495 135.425 62.2163 135.317 63.0767C135.188 64.3243 135.124 66.1634 135.124 68.594V70.9171C135.124 73.5413 135.22 75.4127 135.414 76.5312C135.629 77.6282 135.887 78.4134 136.188 78.8866C136.855 79.9406 137.888 80.4676 139.286 80.4676C140.985 80.4676 142.082 79.7577 142.577 78.3381C143.093 76.8969 143.351 74.4017 143.351 70.8526ZM139.221 81.1451C135.629 81.1451 132.94 80.1772 131.155 78.2413C129.391 76.2839 128.509 73.466 128.509 69.7878C128.509 66.0881 129.456 63.1842 131.349 61.0762C133.263 58.9467 135.962 57.882 139.447 57.882C142.932 57.882 145.556 58.893 147.32 60.9149C149.105 62.9154 149.998 65.7654 149.998 69.4652C149.998 73.1649 149.094 76.0365 147.288 78.0799C145.502 80.1234 142.813 81.1451 139.221 81.1451ZM162.647 58.2369H172.714V58.8499H170.843V68.8521H177.263V58.8499H175.36V58.2369H185.459V58.8499H183.555V80.2094H185.459V80.8225H175.36V80.2094H177.263V69.691H170.843V80.2094H172.714V80.8225H162.647V80.2094H164.551V58.8499H162.647V58.2369ZM197.591 58.2369H207.432V58.8499H205.657V80.2094H207.432V80.8225H197.591V80.2094H199.366V58.8499H197.591V58.2369ZM232.775 74.9825L238.389 58.8499H235.873V58.2369H240.809V58.8499H239.293L231.517 81.1451H228.807L220.579 58.8499H219.095V58.2369H229.645V58.8499H227.355L232.775 74.9825ZM252.314 58.2369H269.092L269.414 64.6254H268.834C267.93 62.4529 266.984 60.9687 265.994 60.1728C265.005 59.3554 263.553 58.9467 261.639 58.9467H260.509V68.9167H261.606C262.617 68.9167 263.467 68.5402 264.155 67.7874C264.844 67.013 265.328 65.9805 265.607 64.6899H266.091V74.2404H265.543C265.155 72.6271 264.628 71.4764 263.962 70.788C263.316 70.0997 262.424 69.7556 261.284 69.7556H260.509V80.1126H261.735C263.714 80.1126 265.392 79.5211 266.769 78.3381C268.167 77.155 269.124 75.6386 269.64 73.7887H270.286L270.027 80.8225H252.314V80.1126H254.218V58.9467H252.314V58.2369Z" fill="url(#paint0_linear_202_68)"/>
<path d="M70.0034 340.317C69.7699 340.428 69.5615 340.415 69.3781 340.279C69.2379 340.174 69.1268 339.941 69.0448 339.578C68.9817 339.213 68.8496 338.771 68.6488 338.253C68.4559 337.724 68.15 337.144 67.7309 336.514C67.3226 335.892 66.7033 335.271 65.8729 334.653C65.0425 334.035 64.2209 333.608 63.408 333.372C62.6059 333.143 61.8367 333.074 61.1003 333.162C60.3746 333.259 59.6979 333.493 59.0701 333.863C58.4531 334.242 57.9238 334.728 57.4823 335.321C56.9044 336.098 56.5886 336.86 56.5348 337.607C56.4919 338.363 56.6076 339.12 56.8819 339.877C57.1562 340.634 57.5408 341.39 58.0356 342.143C58.5492 342.894 59.079 343.657 59.625 344.432C60.1709 345.207 60.6753 345.993 61.138 346.79C61.6195 347.584 61.9693 348.398 62.1874 349.23C62.4056 350.063 62.4396 350.918 62.2896 351.795C62.1583 352.67 61.7435 353.576 61.0452 354.514C60.3308 355.474 59.4894 356.255 58.5209 356.858C57.5713 357.459 56.551 357.839 55.4599 357.999C54.3689 358.159 53.2339 358.085 52.0551 357.777C50.8843 357.459 49.7166 356.866 48.5519 356C47.042 354.876 45.9392 353.644 45.2433 352.305C44.5554 350.955 44.1468 349.512 44.0175 347.974L45.0002 347.599C45.25 347.534 45.4612 347.565 45.6338 347.694C45.7308 347.766 45.8067 347.923 45.8613 348.165C45.916 348.407 45.9789 348.705 46.0501 349.06C46.1294 349.403 46.2357 349.801 46.3691 350.252C46.5105 350.693 46.7085 351.158 46.963 351.65C47.2256 352.13 47.5675 352.627 47.9889 353.142C48.4102 353.657 48.9498 354.159 49.6076 354.649C50.5135 355.323 51.4227 355.79 52.3352 356.05C53.2556 356.3 54.1351 356.368 54.9736 356.254C55.8229 356.149 56.6177 355.869 57.3582 355.415C58.1066 354.95 58.7578 354.345 59.3116 353.601C59.9137 352.792 60.2402 352.004 60.2911 351.238C60.3609 350.469 60.2546 349.711 59.9723 348.964C59.6979 348.207 59.304 347.453 58.7903 346.702C58.2875 345.959 57.7591 345.205 57.2051 344.441C56.6511 343.677 56.1334 342.898 55.6519 342.104C55.1811 341.317 54.8367 340.508 54.6186 339.675C54.4084 338.832 54.377 337.962 54.5243 337.066C54.6904 336.168 55.1387 335.228 55.8692 334.246C56.4391 333.48 57.1345 332.85 57.9555 332.355C58.7764 331.86 59.668 331.552 60.6301 331.43C61.6003 331.297 62.6156 331.374 63.676 331.661C64.7552 331.944 65.8233 332.48 66.8802 333.266C68.0664 334.149 68.9882 335.129 69.6455 336.204C70.3136 337.288 70.747 338.507 70.9455 339.862L70.0034 340.317Z" fill="url(#paint1_linear_202_68)"/>
<path d="M105.972 372.981C105.046 374.981 103.905 376.66 102.55 378.018C101.201 379.364 99.7156 380.365 98.0931 381.021C96.4764 381.665 94.7587 381.951 92.94 381.879C91.1392 381.801 89.3238 381.338 87.494 380.491C85.6641 379.643 84.1368 378.558 82.9123 377.235C81.6933 375.901 80.8065 374.408 80.2518 372.759C79.7028 371.097 79.5051 369.317 79.6587 367.417C79.818 365.506 80.3608 363.55 81.2873 361.549C82.2082 359.561 83.3432 357.893 84.6923 356.548C86.0471 355.19 87.5328 354.189 89.1496 353.545C90.772 352.889 92.4865 352.594 94.2929 352.66C96.0994 352.726 97.9176 353.183 99.7475 354.031C101.577 354.878 103.102 355.969 104.321 357.304C105.557 358.632 106.45 360.127 106.999 361.789C107.548 363.451 107.743 365.237 107.584 367.149C107.43 369.048 106.893 370.992 105.972 372.981ZM104.033 372.082C104.869 370.277 105.37 368.539 105.537 366.867C105.703 365.196 105.56 363.649 105.109 362.225C104.657 360.801 103.912 359.53 102.874 358.412C101.842 357.282 100.551 356.358 99.0017 355.641C97.4646 354.929 95.9313 354.545 94.4019 354.488C92.878 354.42 91.4209 354.671 90.0305 355.242C88.6523 355.819 87.3737 356.708 86.1948 357.91C85.028 359.118 84.0265 360.625 83.1904 362.43C82.3486 364.248 81.8445 365.992 81.6781 367.664C81.5295 369.328 81.681 370.872 82.1327 372.296C82.5966 373.726 83.3475 375 84.3855 376.118C85.4235 377.235 86.711 378.15 88.2481 378.862C89.7974 379.579 91.334 379.972 92.8578 380.041C94.3817 380.11 95.8327 379.856 97.2109 379.279C98.5891 378.702 99.8587 377.816 101.02 376.621C102.187 375.413 103.191 373.9 104.033 372.082Z" fill="url(#paint2_linear_202_68)"/>
<path d="M130.608 368.435L127.868 380.117L140.531 383.087L140.139 384.756L127.476 381.785L124.482 394.547L122.46 394.072L128.978 366.292L145.626 370.198L145.235 371.867L130.608 368.435Z" fill="url(#paint3_linear_202_68)"/>
<path d="M179.91 375.866L169.902 375.325L168.456 402.066L166.382 401.954L167.828 375.213L157.76 374.669L157.854 372.917L180.004 374.114L179.91 375.866Z" fill="url(#paint4_linear_202_68)"/>
<path d="M232.621 368.495L228.812 398.163L226.986 398.49L214.328 375.598C214.163 375.286 214.009 374.958 213.865 374.615C213.85 374.987 213.819 375.347 213.772 375.697L209.815 401.562L208.009 401.885L194.131 375.38L195.818 375.078C196.202 375.009 196.479 375.144 196.649 375.482L207.865 397.301C208.105 397.804 208.345 398.383 208.585 399.036C208.59 398.681 208.599 398.351 208.613 398.048C208.625 397.732 208.653 397.433 208.699 397.152L212.509 372.645C212.536 372.49 212.606 372.348 212.72 372.218C212.833 372.089 212.982 372.008 213.168 371.974L213.724 371.875C213.909 371.842 214.071 371.868 214.209 371.952C214.344 372.024 214.459 372.133 214.554 372.28L226.624 393.946C226.761 394.18 226.89 394.444 227.011 394.737C227.145 395.027 227.274 395.332 227.4 395.651C227.407 395.308 227.411 394.986 227.412 394.686C227.423 394.369 227.439 394.073 227.457 393.796L230.415 369.443C230.428 369.29 230.492 369.149 230.605 369.019C230.732 368.887 230.888 368.805 231.073 368.772L232.621 368.495Z" fill="url(#paint5_linear_202_68)"/>
<path d="M270.538 373.699L259.409 362.847C259.035 362.498 258.628 362.06 258.191 361.533C258.247 361.861 258.292 362.179 258.325 362.487C258.352 362.784 258.366 363.064 258.365 363.329L258.857 378.847L270.538 373.699ZM280.493 380.639L279.036 381.282C278.863 381.357 278.703 381.377 278.554 381.339C278.4 381.29 278.26 381.205 278.133 381.084L271.728 374.85L258.903 380.501L259.182 389.436C259.192 389.593 259.157 389.747 259.078 389.9C258.998 390.053 258.872 390.167 258.7 390.243L257.261 390.877L256.438 360.057L258.302 359.236L280.493 380.639Z" fill="url(#paint6_linear_202_68)"/>
<path d="M295.907 355.275C296.945 354.554 297.788 353.789 298.437 352.978C299.089 352.149 299.535 351.307 299.776 350.452C300.028 349.59 300.077 348.729 299.923 347.871C299.769 347.012 299.408 346.174 298.841 345.357C297.683 343.69 296.277 342.833 294.624 342.786C292.982 342.731 291.118 343.428 289.031 344.877L284.741 347.856L291.849 358.093L295.907 355.275ZM314.545 359.911L313.087 360.924C312.899 361.054 312.72 361.137 312.549 361.174C312.382 361.192 312.185 361.157 311.96 361.068L297.838 356.782C297.665 356.722 297.498 356.682 297.338 356.663C297.188 356.636 297.037 356.643 296.885 356.683C296.736 356.704 296.571 356.762 296.39 356.854C296.22 356.94 296.019 357.063 295.787 357.224L292.723 359.352L300.084 369.953L298.378 371.137L282.103 347.7L288.099 343.536C290.794 341.665 293.173 340.79 295.238 340.911C297.306 341.014 299.041 342.075 300.444 344.096C301.066 344.991 301.478 345.915 301.683 346.87C301.888 347.824 301.893 348.786 301.699 349.756C301.508 350.707 301.121 351.646 300.538 352.575C299.966 353.496 299.209 354.373 298.267 355.208C298.647 355.189 299.037 355.245 299.439 355.376L314.545 359.911Z" fill="url(#paint7_linear_202_68)"/>
<path d="M342.486 332.838L343.679 334.069L331.675 346.249L311.352 326.219L323.356 314.04L324.576 315.243L314.031 325.943L322.246 334.04L331.022 325.135L332.214 326.31L323.438 335.215L331.912 343.566L342.486 332.838Z" fill="url(#paint8_linear_202_68)"/>
<path d="M4.78016 166.643C8.86835 111.034 39.7517 59.8985 86.2415 29.7018C122.511 6.1392 166.298 -4.08113 209.593 2.65393C290.134 15.1821 351.288 79.8749 361.334 160.305C362.477 169.442 363.203 178.23 362.645 187.595C362.058 197.522 361.213 205.544 360.11 211.663C337.518 337.146 194.727 404.288 85.596 332.1C36.1073 299.366 7.04615 246.865 4.23551 187.434C3.89259 180.181 4.18844 174.664 4.78016 166.643ZM31.2929 245.493L30.4524 247.168C30.3493 247.374 30.3403 247.583 30.4255 247.794C36.773 263.35 45.689 276.261 55.9297 289.435C56.6872 290.413 57.5434 291.288 58.4982 292.059C64.0523 298.424 70.0478 304.323 76.485 309.755C79.448 312.388 83.0319 315.189 87.2366 318.159C107.476 332.456 130.929 342.892 155.25 346.949C203.791 355.043 249.568 342.064 287.827 311.72C287.859 311.697 288.251 311.466 289.004 311.027C289.555 310.704 289.804 310.228 289.75 309.6C290.432 309.286 290.92 309.004 291.216 308.752C297.344 303.572 303.037 297.951 308.295 291.891C308.582 291.654 308.84 291.4 309.068 291.131C320.203 277.845 329.334 263.298 336.462 247.491C336.556 247.276 336.578 247.056 336.529 246.832C336.408 246.262 336.621 245.822 337.168 245.513C343.69 230.195 347.691 213.921 349.17 196.692C356.654 109.715 297.785 31.8818 212.417 15.7944C170.399 7.87511 127.244 17.5975 92.0308 40.6959C60.428 61.4259 36.3157 93.8026 24.7773 129.759C12.5867 167.733 14.4762 207.996 29.1547 245.109C29.2354 245.32 29.39 245.43 29.6186 245.439L31.2929 245.493Z" fill="url(#paint9_linear_202_68)"/>
</g>
<defs>
<filter id="filter0_d_202_68" x="0.0899658" y="0.618195" width="366.747" height="410.85" filterUnits="userSpaceOnUse" color-interpolation-filters="sRGB">
<feFlood flood-opacity="0" result="BackgroundImageFix"/>
<feColorMatrix in="SourceAlpha" type="matrix" values="0 0 0 0 0 0 0 0 0 0 0 0 0 0 0 0 0 0 127 0" result="hardAlpha"/>
<feOffset dy="4"/>
<feGaussianBlur stdDeviation="2"/>
<feComposite in2="hardAlpha" operator="out"/>
<feColorMatrix type="matrix" values="0 0 0 0 0 0 0 0 0 0 0 0 0 0 0 0 0 0 0.25 0"/>
<feBlend mode="normal" in2="BackgroundImageFix" result="effect1_dropShadow_202_68"/>
<feBlend mode="normal" in="SourceGraphic" in2="effect1_dropShadow_202_68" result="shape"/>
</filter>
<linearGradient id="paint0_linear_202_68" x1="106.893" y1="80.8225" x2="249.157" y2="80.8225" gradientUnits="userSpaceOnUse">
<stop stop-color="#FCBF51"/>
<stop offset="1" stop-color="white"/>
</linearGradient>
<linearGradient id="paint1_linear_202_68" x1="72.6528" y1="324.919" x2="45.1875" y2="361.819" gradientUnits="userSpaceOnUse">
<stop offset="0.541667" stop-color="#FCBD4C"/>
<stop offset="1" stop-color="white"/>
</linearGradient>
<linearGradient id="paint2_linear_202_68" x1="104.054" y1="344.847" x2="84.7239" y2="386.589" gradientUnits="userSpaceOnUse">
<stop offset="0.541667" stop-color="#FCBD4C"/>
<stop offset="1" stop-color="white"/>
</linearGradient>
<linearGradient id="paint3_linear_202_68" x1="138.461" y1="357.767" x2="127.954" y2="402.551" gradientUnits="userSpaceOnUse">
<stop offset="0.541667" stop-color="#FCBD4C"/>
<stop offset="1" stop-color="white"/>
</linearGradient>
<linearGradient id="paint4_linear_202_68" x1="169.818" y1="363.083" x2="167.334" y2="409.016" gradientUnits="userSpaceOnUse">
<stop offset="0.541667" stop-color="#FCBD4C"/>
<stop offset="1" stop-color="white"/>
</linearGradient>
<linearGradient id="paint5_linear_202_68" x1="212.027" y1="361.547" x2="220.127" y2="406.828" gradientUnits="userSpaceOnUse">
<stop offset="0.541667" stop-color="#FCBD4C"/>
<stop offset="1" stop-color="white"/>
</linearGradient>
<linearGradient id="paint6_linear_202_68" x1="253.408" y1="349.956" x2="271.957" y2="392.05" gradientUnits="userSpaceOnUse">
<stop offset="0.541667" stop-color="#FCBD4C"/>
<stop offset="1" stop-color="white"/>
</linearGradient>
<linearGradient id="paint7_linear_202_68" x1="282.939" y1="334.378" x2="309.176" y2="372.161" gradientUnits="userSpaceOnUse">
<stop offset="0.541667" stop-color="#FCBD4C"/>
<stop offset="1" stop-color="white"/>
</linearGradient>
<linearGradient id="paint8_linear_202_68" x1="309.363" y1="313.328" x2="342.125" y2="345.618" gradientUnits="userSpaceOnUse">
<stop offset="0.541667" stop-color="#FCBD4C"/>
<stop offset="1" stop-color="white"/>
</linearGradient>
<linearGradient id="paint9_linear_202_68" x1="356.472" y1="199.394" x2="18.0692" y2="123.866" gradientUnits="userSpaceOnUse">
<stop stop-color="white"/>
<stop offset="0.658331" stop-color="#FCAB1C"/>
</linearGradient>
</defs>
</svg>
