<svg width="1034" height="2751" viewBox="0 0 1034 2751" fill="none" xmlns="http://www.w3.org/2000/svg">
<path d="M96.6357 2749.08C53.4782 2605.61 587.937 2364.94 153.579 1935.09" stroke="#FECE3C" stroke-opacity="0.15" stroke-width="10" stroke-dasharray="50 50"/>
<path d="M1029.71 2186.57C953.799 2072.94 870.984 1647.93 926.895 1535.78C982.805 1423.62 1125.51 1386.57 895.26 971.444" stroke="#FECE3C" stroke-opacity="0.15" stroke-width="10" stroke-dasharray="50 50"/>
<path d="M1.67303 986.236C118.331 957.605 304.435 815.688 304.719 571.373C305.002 327.057 194.638 185.775 133.666 109.301" stroke="#FECE3C" stroke-opacity="0.15" stroke-width="10" stroke-dasharray="50 50"/>
<path d="M862.681 954.231C864.05 956.812 865.357 958.738 867.509 960.518C869.661 962.298 874.97 963.927 874.97 963.927L878.939 966.725C883.55 965.142 892.848 961.942 893.153 961.807C893.457 961.672 897.374 957.969 899.294 956.133L900.258 946.041C900.258 946.041 899.846 940.988 899.11 938.81C898.375 936.631 898.016 936.334 895.531 931.743C893.046 927.151 884.853 923.034 884.472 923.202C884.091 923.371 886.538 918.526 885.506 916.706C884.474 914.886 883.27 911.215 882.406 909.776C881.542 908.337 876.369 905.389 876.369 905.389C875.411 905.281 873.518 905.344 872.994 905.394C872.339 905.456 868.072 905.675 860.281 910.103C853.077 914.199 854.623 913.864 853.499 915.954C852.604 917.617 853.096 921.023 853.354 922.815L853.358 922.845C853.722 924.353 854.877 927.742 855.635 929.456C856.392 931.17 858.505 931.829 858.505 931.829C858.505 931.829 860.357 932.497 861.814 933.219C863.271 933.94 859.367 941.584 860.222 947.124C860.222 947.124 861.312 951.649 862.681 954.231Z" fill="#FCAB1C" fill-opacity="0.1"/>
<path d="M869.955 897.768L868.755 897.482C869.134 896.985 869.345 896.638 869.386 896.44C869.954 893.7 871.239 891.349 873.242 889.385C873.935 888.703 876.158 886.812 877.08 888.022C877.152 888.117 877.183 888.224 877.172 888.342C876.919 891.504 872.116 895.643 869.955 897.768Z" fill="#FCAB1C" fill-opacity="0.1"/>
<path d="M852.506 904.437C852.669 904.839 852.598 905.191 852.295 905.495C849.903 905.956 841.143 906.544 840.234 904.068C840.194 903.959 840.213 903.862 840.291 903.777C842.844 900.966 849.588 902.762 852.506 904.437Z" fill="#FCAB1C" fill-opacity="0.1"/>
<path d="M852.506 904.437C854.66 905.232 856.568 906.86 858.34 908.389L857.538 908.953C855.883 907.657 854.135 906.504 852.295 905.495C852.598 905.191 852.669 904.839 852.506 904.437Z" fill="#FCAB1C" fill-opacity="0.1"/>
<path d="M868.755 897.482L869.955 897.768C869.522 899.713 869.349 901.742 869.435 903.853C869.09 904.069 868.675 904.167 868.191 904.148C868.176 901.905 868.364 899.683 868.755 897.482Z" fill="#FCAB1C" fill-opacity="0.1"/>
<path d="M868.191 904.148C868.675 904.167 869.09 904.069 869.435 903.853C871.905 903.857 874.295 904.349 876.602 905.328C876.624 905.338 876.643 905.354 876.656 905.374C876.669 905.394 876.676 905.418 876.676 905.442C876.676 905.465 876.669 905.489 876.657 905.509C876.644 905.529 876.626 905.545 876.604 905.556L853.834 915.621C853.711 915.676 853.667 915.638 853.701 915.509C854.454 912.739 856.071 911.025 857.538 908.953L858.34 908.389C861.186 905.957 864.47 904.543 868.191 904.148Z" fill="#FCAB1C" fill-opacity="0.1"/>
<path d="M854.582 927.442L854.792 927.634C854.765 927.863 854.639 928.019 854.414 928.101C853.477 928.264 851.614 928.531 848.825 928.9C841.967 929.806 835.224 931.531 828.595 934.077C822.223 936.521 816.448 940.426 811.417 945.004C811.179 945.221 810.975 945.749 810.804 946.589C810.782 946.698 810.721 946.778 810.622 946.829C810.285 946.999 809.942 947.007 809.594 946.855C808.091 939.644 822.063 932.845 827.064 931.291C836.002 928.516 845.175 927.233 854.582 927.442Z" fill="#FCAB1C" fill-opacity="0.1"/>
<path d="M929.612 893.229L929.858 893.845C929.901 893.948 929.89 894.046 929.826 894.141C929.545 894.546 929.216 894.674 928.841 894.523C927.624 894.036 927.191 894.284 926.047 894.281C911.922 894.26 899.514 903.455 888.85 911.59C888.209 912.082 887.02 912.722 886.242 913.563C885.977 913.848 885.668 913.912 885.506 913.486C891.118 907.32 897.411 901.99 904.386 897.497C910.529 893.539 918.112 890.597 925.571 891.374C927.196 891.542 928.543 892.16 929.612 893.229Z" fill="#FCAB1C" fill-opacity="0.1"/>
<path d="M884.843 914.064L885.089 914.62C885.285 915.28 885.348 915.948 885.28 916.624L856.26 929.453L854.792 927.634L854.582 927.442C853.924 925.96 853.521 924.501 853.371 923.063C853.359 922.952 853.383 922.839 853.439 922.742C853.495 922.645 853.58 922.568 853.683 922.523L882.23 909.904C882.338 909.856 882.428 909.879 882.5 909.974C883.456 911.25 884.237 912.613 884.843 914.064Z" fill="#FCAB1C" fill-opacity="0.1"/>
<path d="M854.414 928.101C849.29 934.915 841.638 940.473 834.25 944.533C828.107 947.909 819.998 950.605 812.904 949.314C812.496 949.24 812.277 949.337 812.058 949.673C810.863 949.077 810.042 948.138 809.594 946.855C809.942 947.007 810.285 946.999 810.622 946.829C810.721 946.778 810.782 946.698 810.804 946.589C810.975 945.749 811.179 945.221 811.417 945.005C816.447 940.427 822.223 936.521 828.595 934.077C835.224 931.531 841.967 929.806 848.825 928.901C851.614 928.531 853.477 928.264 854.414 928.101Z" fill="#FCAB1C" fill-opacity="0.1"/>
<path d="M929.612 893.229C930.632 894.763 930.776 896.376 930.044 898.069L929.539 898.016C929.422 898.004 929.336 898.048 929.279 898.149C928.149 900.092 926.552 901.826 924.486 903.351C913.233 911.648 899.6 915.032 885.816 914.394C885.707 914.388 885.613 914.424 885.533 914.5C885.411 914.614 885.263 914.654 885.089 914.62L884.843 914.064L885.506 913.486C885.668 913.912 885.977 913.848 886.242 913.563C887.02 912.722 888.209 912.082 888.85 911.591C899.514 903.455 911.922 894.26 926.047 894.281C927.191 894.284 927.624 894.036 928.841 894.523C929.216 894.674 929.545 894.546 929.826 894.141C929.89 894.047 929.901 893.948 929.858 893.846L929.612 893.229Z" fill="#FCAB1C" fill-opacity="0.1"/>
<path d="M854.792 927.634L856.26 929.453L856.321 929.642C854.636 931.655 852.937 933.403 851.224 934.884C847.927 937.739 845.235 940.144 843.147 942.1C839.187 944.549 836.214 946.263 834.226 947.243C828.294 950.177 818.256 953.274 812.058 949.673C812.277 949.337 812.496 949.24 812.904 949.314C819.998 950.605 828.107 947.909 834.25 944.533C841.638 940.473 849.29 934.915 854.414 928.101C854.639 928.019 854.764 927.863 854.792 927.634Z" fill="#FCAB1C" fill-opacity="0.1"/>
<path d="M885.089 914.62C885.263 914.654 885.411 914.614 885.533 914.5C885.613 914.424 885.707 914.388 885.816 914.394C899.6 915.032 913.234 911.648 924.487 903.351C926.552 901.826 928.149 900.092 929.279 898.149C929.336 898.048 929.422 898.004 929.539 898.016L930.045 898.069C929.21 901.168 926.782 903.806 924.398 905.744C918.233 910.76 911.023 913.628 903.345 915.393C898.104 915.743 892.172 916.566 886.158 916.885C885.906 916.898 885.661 917.021 885.437 917.124L885.28 916.624C885.348 915.948 885.285 915.28 885.089 914.62Z" fill="#FCAB1C" fill-opacity="0.1"/>
<path d="M856.321 929.642C856.834 930.35 857.482 930.94 858.266 931.414L858.058 931.984C852.767 936.181 848.937 939.4 846.567 941.64C843.619 944.429 841.164 947.996 839.204 952.341C839.156 952.448 839.143 952.559 839.165 952.673C839.297 953.395 839.071 954.001 838.489 954.491C835.434 949.925 840.489 945.204 843.147 942.1C845.235 940.144 847.927 937.739 851.223 934.884C852.937 933.403 854.636 931.656 856.321 929.642Z" fill="#FCAB1C" fill-opacity="0.1"/>
<path d="M885.437 917.124C885.661 917.021 885.906 916.898 886.158 916.885C892.172 916.566 898.104 915.743 903.345 915.393C907.27 915.481 911.186 915.223 914.566 917.632L914.64 918.169C914.656 918.286 914.71 918.382 914.802 918.458C914.995 918.621 915.109 918.824 915.143 919.067C915.161 919.198 915.222 919.305 915.327 919.388C915.961 919.89 916.034 920.442 915.547 921.045C915.45 921.164 915.358 921.161 915.271 921.038C914.794 920.364 914.336 919.91 913.551 919.585C906.054 916.508 898.011 917.447 890.28 918.921C889.049 919.156 887.83 919.464 886.623 919.842C886.249 919.682 885.796 919.713 885.265 919.938C885.461 918.899 885.519 917.961 885.437 917.124Z" fill="#FCAB1C" fill-opacity="0.1"/>
<path d="M858.265 931.414C858.58 931.472 858.724 931.621 858.698 931.861C857.878 939.601 854.907 953.749 845.652 956.393C843.747 956.937 841.937 956.722 840.221 955.749C842.372 955.687 844.385 955.211 846.261 954.321C850.092 952.505 853.161 947.989 854.328 944.045C855.526 939.979 856.769 935.958 858.058 931.984L858.265 931.414Z" fill="#FCAB1C" fill-opacity="0.1"/>
<path d="M858.058 931.984C856.769 935.959 855.526 939.979 854.328 944.045C853.161 947.989 850.092 952.506 846.261 954.321C844.385 955.211 842.372 955.687 840.221 955.749C839.506 955.658 838.928 955.238 838.489 954.491C839.071 954 839.297 953.394 839.165 952.673C839.143 952.559 839.156 952.448 839.204 952.341C841.164 947.996 843.619 944.429 846.567 941.639C848.937 939.4 852.767 936.181 858.058 931.984Z" fill="#FCAB1C" fill-opacity="0.1"/>
<path d="M885.265 919.938C885.796 919.713 886.249 919.681 886.623 919.842C894.46 923.87 903.087 929.469 911.841 925.391C913.144 924.784 914.808 923.426 915.414 921.852C915.454 921.748 915.528 921.682 915.635 921.655L916.031 921.556C915.72 923.342 914.989 924.767 913.839 925.833C908.923 930.379 900.798 928.541 895.269 925.87C891.425 924.015 888.091 922.038 885.265 919.938Z" fill="#FCAB1C" fill-opacity="0.1"/>
<path d="M886.623 919.843C887.83 919.464 889.048 919.157 890.28 918.921C898.011 917.447 906.054 916.508 913.551 919.585C914.336 919.91 914.794 920.364 915.271 921.038C915.358 921.161 915.45 921.164 915.547 921.045C916.034 920.442 915.961 919.89 915.327 919.388C915.222 919.305 915.161 919.198 915.143 919.067C915.109 918.824 914.995 918.621 914.802 918.458C914.71 918.382 914.656 918.286 914.64 918.169L914.566 917.632C915.782 918.679 916.271 919.987 916.031 921.556L915.635 921.656C915.528 921.683 915.454 921.748 915.414 921.852C914.808 923.426 913.144 924.785 911.841 925.391C903.087 929.47 894.46 923.87 886.623 919.843Z" fill="#FCAB1C" fill-opacity="0.1"/>
<path d="M904.869 934.719L904.605 934.946C904.322 934.661 904 934.429 903.64 934.249C903.107 933.983 902.836 933.846 902.825 933.838C898.126 931.118 892.572 928.259 886.161 925.26C885.093 924.761 884.315 924.436 883.829 924.286C883.677 924.24 883.647 924.152 883.739 924.022L884.375 923.126C884.445 923.027 884.535 923.002 884.646 923.052C891.773 926.293 898.72 929.885 905.487 933.827C905.523 933.848 905.553 933.88 905.571 933.917C905.59 933.954 905.598 933.996 905.594 934.038C905.59 934.079 905.574 934.118 905.548 934.151C905.523 934.183 905.488 934.207 905.449 934.22C905.197 934.303 905.004 934.47 904.869 934.719Z" fill="#FCAB1C" fill-opacity="0.1"/>
<path d="M856.856 956.339C856.686 956.199 856.504 956.216 856.31 956.39L855.467 955.969C855.357 955.914 855.315 955.826 855.343 955.705C857.142 948.169 859.231 940.714 861.611 933.341C861.665 933.173 861.777 933.113 861.945 933.163L862.865 933.432C863.005 933.474 863.042 933.56 862.976 933.691C862.718 934.212 862.501 934.749 862.325 935.3C860.23 941.917 858.398 948.605 856.828 955.364C856.802 955.477 856.804 955.587 856.834 955.696C856.893 955.92 856.9 956.135 856.856 956.339Z" fill="#FCAB1C" fill-opacity="0.1"/>
<path d="M863.364 954.81C863.281 954.847 863.187 954.852 863.1 954.825C863.013 954.797 862.94 954.739 862.892 954.662C861.562 952.453 860.692 950.073 860.283 947.522C860.252 947.338 860.284 947.15 860.372 946.986C860.46 946.822 860.6 946.692 860.77 946.616C871.458 941.802 882.09 937.077 892.666 932.439C893.474 932.085 894.296 931.767 895.133 931.486C895.252 931.446 895.351 931.475 895.43 931.575C897.104 933.725 898.329 936.114 899.103 938.741C899.114 938.774 899.111 938.81 899.097 938.842C899.082 938.874 899.056 938.899 899.023 938.913L863.364 954.81Z" fill="#FCAB1C" fill-opacity="0.1"/>
<path d="M904.869 934.719C909.947 937.6 913.142 941.923 914.453 947.687C914.027 948.263 913.491 948.524 912.845 948.47C909.146 944.353 906.996 939.866 904.605 934.946L904.869 934.719Z" fill="#FCAB1C" fill-opacity="0.1"/>
<path d="M856.31 956.39C856.504 956.216 856.686 956.199 856.856 956.339C858.784 961.232 860.6 966.052 860.829 971.37C860.538 971.888 860.097 972.12 859.508 972.064C856.314 967.236 855.248 962.011 856.31 956.39Z" fill="#FCAB1C" fill-opacity="0.1"/>
<path d="M875.698 966.685C875.384 966.587 875.502 966.545 875.804 966.411L899.209 956.029C899.295 955.99 899.322 956.015 899.287 956.104C895.322 966.112 885.628 969.826 875.698 966.685Z" fill="#FCAB1C" fill-opacity="0.1"/>
<path d="M900.258 946.041L867.509 960.518C871.932 965.665 874.591 966.72 875.423 966.579L899.28 956.033C901.002 953.451 900.595 948.32 900.258 946.041Z" fill="#FCAB1C" fill-opacity="0.1"/>
<path d="M113.96 1923.56C116.199 1925.44 118.134 1926.73 120.798 1927.57C123.462 1928.41 128.993 1927.92 128.993 1927.92L133.723 1929.02C137.4 1925.82 144.812 1919.36 145.044 1919.12C145.275 1918.88 147.511 1913.98 148.6 1911.55L145.698 1901.84C145.698 1901.84 143.416 1897.31 141.915 1895.57C140.414 1893.83 139.97 1893.69 135.941 1890.37C131.911 1887.05 122.771 1886.32 122.482 1886.61C122.192 1886.91 122.638 1881.5 120.997 1880.21C119.356 1878.91 116.86 1875.96 115.518 1874.95C114.177 1873.94 108.275 1873.16 108.275 1873.16C107.347 1873.42 105.616 1874.19 105.149 1874.43C104.565 1874.73 100.694 1876.54 95.1407 1883.58C90.0054 1890.08 91.3125 1889.19 91.0567 1891.55C90.8533 1893.42 92.5895 1896.4 93.5026 1897.96L93.5179 1897.98C94.4219 1899.25 96.7671 1901.95 98.1135 1903.25C99.4599 1904.56 101.665 1904.37 101.665 1904.37C101.665 1904.37 103.633 1904.3 105.254 1904.42C106.875 1904.54 106.132 1913.09 109.009 1917.9C109.009 1917.9 111.721 1921.68 113.96 1923.56Z" fill="#FCAB1C" fill-opacity="0.1"/>
<path d="M99.4649 1868.51L98.2453 1868.69C98.4104 1868.09 98.4749 1867.69 98.4388 1867.49C97.9345 1864.74 98.2411 1862.08 99.3586 1859.5C99.7439 1858.61 101.093 1856.02 102.402 1856.8C102.505 1856.86 102.573 1856.95 102.608 1857.06C103.562 1860.08 100.668 1865.73 99.4649 1868.51Z" fill="#FCAB1C" fill-opacity="0.1"/>
<path d="M85.8056 1881.25C86.1071 1881.56 86.1744 1881.91 86.0075 1882.31C83.9648 1883.64 76.0689 1887.47 74.2954 1885.52C74.2171 1885.44 74.1983 1885.34 74.239 1885.23C75.547 1881.67 82.4711 1880.79 85.8056 1881.25Z" fill="#FCAB1C" fill-opacity="0.1"/>
<path d="M85.8057 1881.25C88.1002 1881.18 90.4803 1881.97 92.6977 1882.72L92.1664 1883.54C90.145 1882.96 88.0921 1882.55 86.0076 1882.31C86.1745 1881.91 86.1072 1881.56 85.8057 1881.25Z" fill="#FCAB1C" fill-opacity="0.1"/>
<path d="M98.2454 1868.69L99.465 1868.51C99.7958 1870.47 100.398 1872.42 101.271 1874.34C101.033 1874.67 100.686 1874.92 100.231 1875.08C99.3725 1873.01 98.7108 1870.88 98.2454 1868.69Z" fill="#FCAB1C" fill-opacity="0.1"/>
<path d="M100.231 1875.08C100.686 1874.92 101.033 1874.67 101.271 1874.34C103.562 1873.42 105.961 1872.97 108.468 1873.01C108.492 1873.01 108.515 1873.02 108.534 1873.04C108.554 1873.05 108.569 1873.07 108.578 1873.09C108.588 1873.11 108.59 1873.14 108.586 1873.16C108.582 1873.18 108.571 1873.21 108.555 1873.22L91.2421 1891.11C91.1488 1891.21 91.0937 1891.19 91.0767 1891.06C90.732 1888.21 91.5865 1886.01 92.1664 1883.54L92.6977 1882.72C94.4197 1879.39 96.9307 1876.85 100.231 1875.08Z" fill="#FCAB1C" fill-opacity="0.1"/>
<path d="M96.3803 1901.78L96.6471 1901.88C96.7082 1902.11 96.65 1902.3 96.4726 1902.46C95.6659 1902.96 94.04 1903.91 91.5948 1905.3C85.5809 1908.72 79.9815 1912.85 74.7969 1917.7C69.812 1922.37 65.9288 1928.16 62.9893 1934.29C62.8501 1934.58 62.8595 1935.15 63.0177 1935.99C63.0375 1936.1 63.0113 1936.2 62.939 1936.28C62.6901 1936.56 62.3756 1936.7 61.9957 1936.69C57.8913 1930.57 68.2804 1919.02 72.3301 1915.7C79.569 1909.77 87.5857 1905.13 96.3803 1901.78Z" fill="#FCAB1C" fill-opacity="0.1"/>
<path d="M153.036 1841.87L153.496 1842.34C153.574 1842.42 153.601 1842.52 153.577 1842.63C153.468 1843.11 153.212 1843.35 152.808 1843.35C151.497 1843.36 151.189 1843.75 150.128 1844.18C137.032 1849.47 128.993 1862.66 122.171 1874.21C121.763 1874.91 120.901 1875.95 120.497 1877.02C120.358 1877.38 120.096 1877.56 119.786 1877.22C122.667 1869.4 126.494 1862.09 131.266 1855.31C135.47 1849.33 141.39 1843.75 148.593 1841.67C150.162 1841.21 151.643 1841.28 153.036 1841.87Z" fill="#FCAB1C" fill-opacity="0.1"/>
<path d="M119.389 1878.01L119.826 1878.43C120.255 1878.97 120.566 1879.56 120.757 1880.22L98.6916 1903.02L96.647 1901.88L96.3802 1901.78C95.2139 1900.66 94.2911 1899.46 93.6118 1898.18C93.5589 1898.08 93.5386 1897.97 93.554 1897.86C93.5694 1897.75 93.6195 1897.64 93.6972 1897.56L115.403 1875.14C115.485 1875.05 115.577 1875.04 115.679 1875.1C117.045 1875.92 118.282 1876.89 119.389 1878.01Z" fill="#FCAB1C" fill-opacity="0.1"/>
<path d="M96.4726 1902.46C94.2877 1910.7 89.2879 1918.73 83.9686 1925.27C79.5467 1930.71 73.047 1936.25 65.9881 1937.72C65.5819 1937.81 65.4154 1937.98 65.3385 1938.38C64.0077 1938.27 62.8934 1937.71 61.9957 1936.69C62.3756 1936.7 62.6901 1936.56 62.939 1936.28C63.0113 1936.2 63.0375 1936.1 63.0176 1935.99C62.8595 1935.15 62.85 1934.58 62.9892 1934.29C65.9288 1928.16 69.812 1922.37 74.7968 1917.7C79.9815 1912.85 85.5808 1908.72 91.5948 1905.3C94.0399 1903.91 95.6659 1902.96 96.4726 1902.46Z" fill="#FCAB1C" fill-opacity="0.1"/>
<path d="M153.036 1841.87C154.558 1842.9 155.298 1844.34 155.257 1846.19L154.768 1846.33C154.656 1846.36 154.592 1846.44 154.578 1846.55C154.261 1848.77 153.433 1850.98 152.093 1853.17C144.787 1865.09 133.427 1873.36 120.414 1877.95C120.312 1877.98 120.238 1878.05 120.192 1878.15C120.122 1878.3 120 1878.4 119.826 1878.43L119.389 1878.01L119.786 1877.22C120.096 1877.56 120.358 1877.38 120.497 1877.02C120.901 1875.95 121.763 1874.91 122.171 1874.21C128.993 1862.66 137.032 1849.47 150.128 1844.18C151.189 1843.75 151.497 1843.36 152.808 1843.35C153.212 1843.35 153.469 1843.11 153.577 1842.63C153.601 1842.52 153.574 1842.42 153.496 1842.34L153.036 1841.87Z" fill="#FCAB1C" fill-opacity="0.1"/>
<path d="M96.6471 1901.88L98.6917 1903.02L98.8194 1903.17C98.015 1905.67 97.0976 1907.93 96.0674 1909.94C94.0863 1913.83 92.4962 1917.07 91.2973 1919.67C88.5496 1923.42 86.4392 1926.13 84.9658 1927.79C80.5726 1932.74 72.4364 1939.38 65.3385 1938.38C65.4154 1937.98 65.5819 1937.81 65.9881 1937.72C73.047 1936.25 79.5467 1930.71 83.9686 1925.27C89.2879 1918.73 94.2876 1910.7 96.4726 1902.46C96.6499 1902.3 96.7081 1902.11 96.6471 1901.88Z" fill="#FCAB1C" fill-opacity="0.1"/>
<path d="M119.826 1878.43C120 1878.4 120.122 1878.3 120.192 1878.15C120.238 1878.05 120.312 1877.98 120.414 1877.95C133.427 1873.36 144.787 1865.09 152.093 1853.17C153.433 1850.98 154.261 1848.77 154.578 1846.55C154.592 1846.44 154.656 1846.36 154.768 1846.33L155.257 1846.19C155.649 1849.37 154.391 1852.73 152.912 1855.42C149.085 1862.39 143.483 1867.76 137.033 1872.28C132.308 1874.58 127.121 1877.57 121.669 1880.13C121.44 1880.23 121.259 1880.44 121.09 1880.62L120.757 1880.22C120.566 1879.56 120.255 1878.97 119.826 1878.43Z" fill="#FCAB1C" fill-opacity="0.1"/>
<path d="M98.8194 1903.17C99.5605 1903.63 100.383 1903.94 101.287 1904.08L101.31 1904.69C97.9855 1910.56 95.6468 1914.99 94.2936 1917.95C92.6104 1921.65 91.6777 1925.88 91.4955 1930.64C91.4909 1930.76 91.5205 1930.86 91.5844 1930.96C91.9777 1931.58 91.9967 1932.23 91.6413 1932.9C87.0942 1929.82 90.0019 1923.54 91.2973 1919.67C92.4962 1917.07 94.0863 1913.83 96.0674 1909.94C97.0976 1907.93 98.015 1905.67 98.8194 1903.17Z" fill="#FCAB1C" fill-opacity="0.1"/>
<path d="M121.09 1880.62C121.259 1880.44 121.44 1880.23 121.669 1880.13C127.121 1877.57 132.308 1874.58 137.033 1872.28C140.702 1870.89 144.234 1869.17 148.272 1870.14L148.542 1870.61C148.601 1870.71 148.687 1870.78 148.801 1870.81C149.041 1870.89 149.223 1871.04 149.346 1871.25C149.412 1871.36 149.509 1871.44 149.637 1871.48C150.413 1871.7 150.689 1872.19 150.464 1872.93C150.419 1873.08 150.333 1873.11 150.206 1873.03C149.511 1872.58 148.915 1872.33 148.065 1872.33C139.962 1872.3 132.863 1876.19 126.253 1880.46C125.201 1881.14 124.187 1881.89 123.212 1882.69C122.804 1882.68 122.396 1882.88 121.989 1883.29C121.78 1882.26 121.481 1881.37 121.09 1880.62Z" fill="#FCAB1C" fill-opacity="0.1"/>
<path d="M101.287 1904.08C101.601 1904.02 101.79 1904.1 101.856 1904.33C104.007 1911.81 106.575 1926.04 98.994 1931.97C97.4332 1933.19 95.6751 1933.67 93.7197 1933.41C95.689 1932.55 97.3754 1931.35 98.7788 1929.82C101.646 1926.7 102.792 1921.36 102.389 1917.26C101.97 1913.05 101.61 1908.85 101.31 1904.69L101.287 1904.08Z" fill="#FCAB1C" fill-opacity="0.1"/>
<path d="M101.31 1904.69C101.61 1908.85 101.97 1913.05 102.389 1917.26C102.792 1921.36 101.646 1926.7 98.7789 1929.82C97.3755 1931.35 95.6891 1932.55 93.7197 1933.41C93.0222 1933.6 92.3294 1933.43 91.6413 1932.9C91.9967 1932.23 91.9777 1931.58 91.5843 1930.96C91.5205 1930.86 91.4909 1930.76 91.4954 1930.64C91.6777 1925.88 92.6104 1921.65 94.2935 1917.95C95.6467 1914.99 97.9855 1910.56 101.31 1904.69Z" fill="#FCAB1C" fill-opacity="0.1"/>
<path d="M121.989 1883.29C122.396 1882.88 122.804 1882.68 123.212 1882.69C131.988 1883.48 142.087 1885.42 148.664 1878.35C149.644 1877.3 150.675 1875.41 150.644 1873.73C150.643 1873.62 150.686 1873.53 150.775 1873.46L151.105 1873.22C151.488 1874.99 151.347 1876.59 150.682 1878.01C147.837 1884.07 139.617 1885.42 133.489 1885.03C129.23 1884.75 125.397 1884.17 121.989 1883.29Z" fill="#FCAB1C" fill-opacity="0.1"/>
<path d="M123.212 1882.69C124.187 1881.89 125.201 1881.14 126.253 1880.46C132.863 1876.19 139.962 1872.3 148.065 1872.33C148.915 1872.33 149.511 1872.58 150.206 1873.03C150.333 1873.11 150.419 1873.08 150.464 1872.93C150.689 1872.19 150.413 1871.7 149.637 1871.48C149.509 1871.44 149.412 1871.36 149.346 1871.25C149.223 1871.04 149.041 1870.89 148.801 1870.81C148.687 1870.78 148.601 1870.71 148.542 1870.61L148.272 1870.14C149.793 1870.65 150.737 1871.68 151.105 1873.22L150.775 1873.46C150.686 1873.53 150.643 1873.62 150.645 1873.73C150.675 1875.41 149.644 1877.3 148.664 1878.35C142.087 1885.42 131.988 1883.48 123.212 1882.69Z" fill="#FCAB1C" fill-opacity="0.1"/>
<path d="M145.712 1889.62L145.553 1889.93C145.184 1889.77 144.798 1889.67 144.397 1889.64C143.803 1889.6 143.5 1889.57 143.487 1889.57C138.111 1888.81 131.888 1888.25 124.821 1887.89C123.643 1887.83 122.801 1887.82 122.294 1887.86C122.135 1887.87 122.074 1887.8 122.111 1887.65L122.363 1886.58C122.391 1886.46 122.465 1886.41 122.586 1886.41C130.409 1886.73 138.197 1887.45 145.95 1888.56C145.991 1888.56 146.03 1888.58 146.062 1888.61C146.093 1888.64 146.117 1888.67 146.128 1888.71C146.14 1888.75 146.14 1888.79 146.128 1888.83C146.117 1888.87 146.094 1888.91 146.062 1888.93C145.86 1889.11 145.744 1889.33 145.712 1889.62Z" fill="#FCAB1C" fill-opacity="0.1"/>
<path d="M109.355 1927.7C109.145 1927.64 108.982 1927.72 108.868 1927.96L107.929 1927.88C107.806 1927.88 107.735 1927.81 107.715 1927.69C106.547 1920.03 105.68 1912.33 105.112 1904.61C105.099 1904.43 105.18 1904.33 105.355 1904.32L106.308 1904.22C106.454 1904.21 106.52 1904.27 106.508 1904.42C106.465 1905 106.466 1905.58 106.51 1906.15C107.058 1913.07 107.875 1919.96 108.962 1926.81C108.981 1926.93 109.024 1927.03 109.093 1927.12C109.232 1927.3 109.319 1927.5 109.355 1927.7Z" fill="#FCAB1C" fill-opacity="0.1"/>
<path d="M114.81 1923.84C114.747 1923.91 114.662 1923.95 114.571 1923.95C114.481 1923.96 114.39 1923.93 114.317 1923.88C112.254 1922.33 110.553 1920.46 109.214 1918.25C109.117 1918.09 109.076 1917.9 109.096 1917.72C109.116 1917.53 109.196 1917.36 109.325 1917.22C117.418 1908.74 125.493 1900.37 133.549 1892.09C134.163 1891.46 134.805 1890.86 135.475 1890.28C135.57 1890.2 135.673 1890.19 135.784 1890.25C138.144 1891.61 140.177 1893.37 141.882 1895.51C141.905 1895.54 141.916 1895.57 141.915 1895.61C141.913 1895.64 141.898 1895.67 141.873 1895.7L114.81 1923.84Z" fill="#FCAB1C" fill-opacity="0.1"/>
<path d="M145.712 1889.62C151.502 1890.38 156.087 1893.18 159.47 1898.03C159.292 1898.72 158.893 1899.16 158.275 1899.36C153.299 1896.93 149.619 1893.58 145.553 1889.93L145.712 1889.62Z" fill="#FCAB1C" fill-opacity="0.1"/>
<path d="M108.869 1927.96C108.982 1927.72 109.145 1927.64 109.355 1927.7C112.982 1931.51 116.477 1935.3 118.69 1940.14C118.614 1940.73 118.293 1941.11 117.727 1941.28C112.951 1938.01 109.998 1933.57 108.869 1927.96Z" fill="#FCAB1C" fill-opacity="0.1"/>
<path d="M130.705 1930.21C130.376 1930.23 130.47 1930.15 130.7 1929.91L148.482 1911.49C148.548 1911.42 148.582 1911.43 148.583 1911.53C148.672 1922.29 141.087 1929.38 130.705 1930.21Z" fill="#FCAB1C" fill-opacity="0.1"/>
<path d="M145.698 1901.84L120.798 1927.57C126.831 1930.68 129.692 1930.65 130.411 1930.21L148.55 1911.47C149.174 1908.43 146.867 1903.83 145.698 1901.84Z" fill="#FCAB1C" fill-opacity="0.1"/>
<path d="M95.6109 97.007C97.5731 99.1721 99.3137 100.717 101.838 101.912C104.362 103.107 109.909 103.379 109.909 103.379L114.444 105.114C118.523 102.445 126.748 97.0541 127.01 96.8486C127.272 96.6431 130.156 92.089 131.565 89.8377L130.015 79.8183C130.015 79.8183 128.372 75.0228 127.122 73.0923C125.873 71.1618 125.452 70.9626 121.913 67.124C118.374 63.2853 109.42 61.3121 109.092 61.569C108.765 61.8259 109.944 56.5279 108.495 55.0181C107.047 53.5084 104.976 50.2467 103.785 49.0645C102.593 47.8824 96.8539 46.2983 96.8539 46.2983C95.8989 46.4298 94.0797 46.9571 93.5838 47.1343C92.9639 47.3559 88.8822 48.6184 82.4216 54.8285C76.4471 60.5713 77.8637 59.866 77.2884 62.1688C76.8308 64.0008 78.1455 67.1811 78.837 68.8537L78.8486 68.8818C79.5721 70.2544 81.5264 73.2549 82.6824 74.7293C83.8385 76.2037 86.0483 76.3228 86.0483 76.3228C86.0483 76.3228 88.0078 76.5143 89.5977 76.855C91.1875 77.1957 89.285 85.5655 91.478 90.7241C91.478 90.7241 93.6487 94.842 95.6109 97.007Z" fill="#FCAB1C" fill-opacity="0.1"/>
<path d="M88.7606 40.4912L87.5269 40.5096C87.7728 39.9344 87.8914 39.5457 87.8828 39.3435C87.7585 36.5489 88.4253 33.9532 89.8834 31.5566C90.3868 30.7249 92.076 28.3456 93.2675 29.2915C93.3608 29.3654 93.4168 29.4612 93.4355 29.5789C93.9682 32.7051 90.332 37.8997 88.7606 40.4912Z" fill="#FCAB1C" fill-opacity="0.1"/>
<path d="M73.491 51.2505C73.7473 51.5998 73.7657 51.959 73.5465 52.328C71.3419 53.3638 62.9961 56.0903 61.5056 53.9137C61.4396 53.8184 61.4342 53.7196 61.4894 53.6175C63.2713 50.2652 70.2497 50.3453 73.491 51.2505Z" fill="#FCAB1C" fill-opacity="0.1"/>
<path d="M73.4911 51.2506C75.7742 51.4905 78.0241 52.5993 80.1185 53.6448L79.4798 54.3883C77.5562 53.54 75.5784 52.8532 73.5465 52.3281C73.7658 51.959 73.7474 51.5998 73.4911 51.2506Z" fill="#FCAB1C" fill-opacity="0.1"/>
<path d="M87.527 40.5096L88.7607 40.4911C88.8203 42.4833 89.1516 44.492 89.7545 46.5171C89.4734 46.8111 89.096 47.0085 88.6222 47.1093C88.055 44.9384 87.6899 42.7385 87.527 40.5096Z" fill="#FCAB1C" fill-opacity="0.1"/>
<path d="M88.6222 47.1092C89.096 47.0085 89.4734 46.8111 89.7545 46.5171C92.1502 45.9126 94.587 45.801 97.0648 46.1825C97.0884 46.1866 97.1102 46.1975 97.1277 46.2137C97.1453 46.2299 97.1579 46.2508 97.1639 46.2739C97.17 46.297 97.1693 46.3214 97.1619 46.3441C97.1546 46.3668 97.1408 46.387 97.1224 46.4021L77.5314 61.7636C77.4258 61.8464 77.3736 61.8211 77.3749 61.6877C77.4221 58.8174 78.5682 56.758 79.4798 54.3882L80.1185 53.6447C82.2779 50.5863 85.1124 48.4079 88.6222 47.1092Z" fill="#FCAB1C" fill-opacity="0.1"/>
<path d="M81.166 73.0361L81.4169 73.1704C81.4469 73.3999 81.3631 73.5818 81.1656 73.7161C80.2976 74.1053 78.5576 74.8224 75.9456 75.8673C69.5216 78.4329 63.4107 81.7652 57.6128 85.8642C52.0386 89.8024 47.4019 95.0092 43.6532 100.685C43.4757 100.953 43.4079 101.516 43.4497 102.371C43.4544 102.482 43.4152 102.575 43.3321 102.649C43.0467 102.896 42.7166 102.989 42.3416 102.927C39.1098 96.3079 50.9778 86.2783 55.4426 83.5409C63.423 78.6516 71.9974 75.15 81.166 73.0361Z" fill="#FCAB1C" fill-opacity="0.1"/>
<path d="M145.465 21.4052L145.855 21.9422C145.922 22.031 145.935 22.1291 145.896 22.2365C145.723 22.6986 145.437 22.9028 145.036 22.8493C143.736 22.6767 143.378 23.024 142.269 23.3024C128.573 26.7596 118.81 38.7262 110.477 49.2367C109.977 49.871 108.982 50.7839 108.435 51.7908C108.248 52.1316 107.964 52.2703 107.703 51.8973C111.624 44.5388 116.412 37.8236 122.065 31.7518C127.045 26.4037 133.67 21.6854 141.091 20.6024C142.707 20.3649 144.165 20.6325 145.465 21.4052Z" fill="#FCAB1C" fill-opacity="0.1"/>
<path d="M107.203 52.6206L107.578 53.0989C107.93 53.6906 108.156 54.3223 108.256 54.9939L83.2876 74.5721L81.4167 73.1705L81.1659 73.0362C80.164 71.7622 79.4136 70.447 78.9146 69.0907C78.8757 68.9852 78.8711 68.8702 78.9015 68.7623C78.9318 68.6545 78.9955 68.5593 79.0835 68.4904L103.645 49.2313C103.738 49.1585 103.831 49.1591 103.924 49.2331C105.165 50.2343 106.258 51.3635 107.203 52.6206Z" fill="#FCAB1C" fill-opacity="0.1"/>
<path d="M81.1655 73.7162C77.877 81.5818 71.829 88.853 65.6673 94.6067C60.545 99.3911 53.3493 104.001 46.1557 104.495C45.7417 104.524 45.5533 104.672 45.4234 105.052C44.119 104.768 43.0917 104.06 42.3415 102.927C42.7165 102.989 43.0467 102.896 43.3321 102.649C43.4152 102.575 43.4544 102.483 43.4496 102.372C43.4078 101.516 43.4757 100.954 43.6532 100.685C47.4019 95.0094 52.0386 89.8026 57.6127 85.8644C63.4106 81.7654 69.5216 78.433 75.9455 75.8674C78.5576 74.8226 80.2976 74.1055 81.1655 73.7162Z" fill="#FCAB1C" fill-opacity="0.1"/>
<path d="M145.465 21.4053C146.831 22.641 147.367 24.1692 147.075 25.9901L146.572 26.0626C146.456 26.0799 146.383 26.1444 146.353 26.2562C145.736 28.4169 144.615 30.4908 142.989 32.4779C134.125 43.2899 121.744 49.9262 108.227 52.7004C108.12 52.7221 108.037 52.7796 107.978 52.873C107.889 53.0138 107.755 53.0891 107.578 53.0989L107.203 52.6206L107.703 51.8974C107.964 52.2704 108.248 52.1317 108.435 51.7909C108.982 50.784 109.978 49.8711 110.477 49.2368C118.81 38.7263 128.573 26.7597 142.269 23.3024C143.378 23.0241 143.736 22.6768 145.036 22.8494C145.437 22.9029 145.723 22.6987 145.896 22.2366C145.936 22.1292 145.922 22.0311 145.855 21.9422L145.465 21.4053Z" fill="#FCAB1C" fill-opacity="0.1"/>
<path d="M81.4168 73.1705L83.2877 74.5721L83.3934 74.7407C82.2556 77.107 81.0388 79.2188 79.7431 81.0762C77.2506 84.6547 75.2334 87.6487 73.6914 90.0582C70.4568 93.4065 67.9969 95.8002 66.3115 97.2394C61.2842 101.543 52.3177 107.016 45.4233 105.052C45.5533 104.672 45.7417 104.524 46.1557 104.495C53.3493 104.001 60.545 99.3911 65.6673 94.6067C71.829 88.8529 77.877 81.5818 81.1655 73.7162C81.363 73.5819 81.4468 73.4 81.4168 73.1705Z" fill="#FCAB1C" fill-opacity="0.1"/>
<path d="M107.578 53.0988C107.755 53.0891 107.889 53.0138 107.978 52.873C108.037 52.7796 108.12 52.722 108.227 52.7003C121.744 49.9262 134.125 43.2899 142.989 32.4779C144.615 30.4908 145.736 28.4168 146.353 26.2561C146.383 26.1444 146.456 26.0798 146.572 26.0626L147.075 25.9901C147.029 29.1994 145.326 32.3534 143.492 34.8191C138.751 41.1978 132.47 45.7525 125.463 49.3536C120.469 50.9832 114.922 53.2407 109.172 55.0308C108.93 55.1053 108.723 55.2855 108.531 55.4402L108.256 54.9939C108.156 54.3223 107.93 53.6906 107.578 53.0988Z" fill="#FCAB1C" fill-opacity="0.1"/>
<path d="M83.3934 74.7408C84.0644 75.3003 84.838 75.7132 85.7142 75.9794L85.6538 76.5829C81.5586 81.9535 78.6384 86.0159 76.8933 88.7701C74.7221 92.1996 73.2214 96.2611 72.3912 100.955C72.3706 101.071 72.3853 101.181 72.4352 101.286C72.7405 101.953 72.6712 102.596 72.2272 103.215C68.1429 99.5415 71.8794 93.7209 73.6914 90.0582C75.2334 87.6487 77.2506 84.6547 79.7431 81.0763C81.0388 79.2189 82.2556 77.107 83.3934 74.7408Z" fill="#FCAB1C" fill-opacity="0.1"/>
<path d="M108.531 55.4402C108.723 55.2854 108.93 55.1053 109.172 55.0307C114.922 53.2406 120.469 50.9832 125.463 49.3536C129.288 48.4724 133.02 47.2585 136.889 48.7616L137.093 49.2636C137.137 49.3729 137.214 49.453 137.321 49.504C137.549 49.614 137.709 49.7827 137.802 50.0099C137.851 50.133 137.937 50.2217 138.059 50.276C138.797 50.6063 139.004 51.1236 138.68 51.8278C138.616 51.9667 138.526 51.9871 138.411 51.889C137.783 51.3529 137.227 51.0257 136.386 50.9039C128.363 49.7673 120.798 52.6578 113.668 55.9892C112.532 56.5208 111.426 57.1186 110.351 57.7827C109.948 57.719 109.517 57.8613 109.058 58.2095C108.992 57.1546 108.817 56.2315 108.531 55.4402Z" fill="#FCAB1C" fill-opacity="0.1"/>
<path d="M85.7142 75.9793C86.0332 75.9586 86.2096 76.0674 86.2435 76.3056C87.3538 84.0101 87.9573 98.4537 79.6382 103.295C77.9256 104.291 76.1182 104.528 74.216 104.007C76.2852 103.418 78.1193 102.461 79.7183 101.136C82.9845 98.4339 84.8477 93.3011 85.0075 89.1906C85.1676 84.9549 85.383 80.7523 85.6537 76.5828L85.7142 75.9793Z" fill="#FCAB1C" fill-opacity="0.1"/>
<path d="M85.6537 76.5828C85.383 80.7523 85.1676 84.955 85.0076 89.1907C84.8478 93.3011 82.9846 98.434 79.7183 101.136C78.1193 102.461 76.2853 103.418 74.2161 104.007C73.4999 104.095 72.837 103.831 72.2272 103.215C72.6712 102.596 72.7405 101.953 72.4352 101.286C72.3852 101.181 72.3706 101.071 72.3912 100.955C73.2214 96.261 74.7221 92.1995 76.8933 88.77C78.6384 86.0158 81.5586 81.9534 85.6537 76.5828Z" fill="#FCAB1C" fill-opacity="0.1"/>
<path d="M109.058 58.2094C109.517 57.8612 109.948 57.719 110.351 57.7827C118.938 59.7569 128.677 63.0604 136.158 56.9523C137.271 56.0438 138.55 54.3171 138.75 52.6424C138.763 52.5319 138.818 52.4504 138.915 52.3979L139.275 52.2041C139.413 54.0113 139.056 55.5728 138.203 56.8888C134.558 62.5053 126.23 62.724 120.214 61.4969C116.032 60.6449 112.313 59.5491 109.058 58.2094Z" fill="#FCAB1C" fill-opacity="0.1"/>
<path d="M110.351 57.7828C111.426 57.1187 112.532 56.5209 113.668 55.9893C120.798 52.6579 128.363 49.7674 136.386 50.904C137.227 51.0258 137.783 51.353 138.411 51.8892C138.526 51.9872 138.616 51.9668 138.68 51.8279C139.004 51.1237 138.797 50.6064 138.059 50.2761C137.937 50.2218 137.851 50.1331 137.802 50.01C137.709 49.7828 137.549 49.6141 137.321 49.5041C137.214 49.4531 137.138 49.373 137.093 49.2637L136.889 48.7617C138.326 49.4768 139.121 50.6243 139.275 52.2043L138.916 52.398C138.819 52.4505 138.763 52.5321 138.75 52.6425C138.55 54.3172 137.271 56.044 136.158 56.9524C128.677 63.0606 118.938 59.757 110.351 57.7828Z" fill="#FCAB1C" fill-opacity="0.1"/>
<path d="M131.697 67.71L131.497 67.9949C131.152 67.7882 130.783 67.6421 130.39 67.5564C129.808 67.4298 129.511 67.3641 129.499 67.3593C124.275 65.8797 118.188 64.4759 111.236 63.1477C110.078 62.9264 109.244 62.803 108.736 62.7776C108.578 62.7699 108.527 62.692 108.584 62.544L108.98 61.5188C109.023 61.4053 109.105 61.3591 109.224 61.3802C116.93 62.767 124.548 64.5378 132.077 66.6928C132.117 66.7048 132.153 66.728 132.18 66.7596C132.208 66.7912 132.226 66.8299 132.232 66.8711C132.238 66.9122 132.233 66.9541 132.216 66.9917C132.199 67.0294 132.171 67.0611 132.136 67.0833C131.913 67.226 131.766 67.4349 131.697 67.71Z" fill="#FCAB1C" fill-opacity="0.1"/>
<path d="M90.4843 100.484C90.2845 100.391 90.1123 100.452 89.9674 100.669L89.0471 100.468C88.9266 100.442 88.8648 100.367 88.8616 100.243C88.7498 92.4953 88.9395 84.7557 89.4308 77.0239C89.4422 76.8472 89.5357 76.7621 89.7114 76.7686L90.6691 76.8032C90.8151 76.8093 90.872 76.8838 90.8399 77.0267C90.7185 77.5956 90.6403 78.1689 90.6052 78.7466C90.2042 85.675 90.0747 92.6082 90.2166 99.5465C90.2191 99.6622 90.2483 99.7687 90.3041 99.8662C90.4164 100.069 90.4765 100.275 90.4843 100.484Z" fill="#FCAB1C" fill-opacity="0.1"/>
<path d="M96.4153 97.4001C96.3437 97.4562 96.2541 97.4843 96.1633 97.4792C96.0725 97.4741 95.9866 97.4361 95.9216 97.3724C94.0881 95.559 92.6591 93.4666 91.6347 91.0952C91.5603 90.9245 91.5443 90.7341 91.5894 90.5535C91.6344 90.3728 91.738 90.2122 91.8838 90.0967C101.058 82.8001 110.2 75.6027 119.309 68.5043C120.004 67.9621 120.722 67.4517 121.464 66.9729C121.57 66.9049 121.673 66.9092 121.774 66.9858C123.927 68.6582 125.701 70.6722 127.099 73.0278C127.117 73.0571 127.124 73.0923 127.117 73.1268C127.111 73.1612 127.092 73.1923 127.064 73.214L96.4153 97.4001Z" fill="#FCAB1C" fill-opacity="0.1"/>
<path d="M131.697 67.7101C137.328 69.2524 141.489 72.6555 144.179 77.9195C143.907 78.5823 143.452 78.9673 142.813 79.0744C138.214 75.994 135.025 72.1746 131.497 67.995L131.697 67.7101Z" fill="#FCAB1C" fill-opacity="0.1"/>
<path d="M89.9675 100.668C90.1123 100.452 90.2846 100.39 90.4844 100.484C93.5573 104.752 96.5043 108.977 98.0355 114.074C97.8805 114.649 97.5106 114.981 96.926 115.072C92.6415 111.179 90.322 106.378 89.9675 100.668Z" fill="#FCAB1C" fill-opacity="0.1"/>
<path d="M111.293 105.874C110.964 105.855 111.068 105.786 111.329 105.581L131.457 89.757C131.531 89.6985 131.563 89.7164 131.552 89.8106C130.172 100.487 121.691 106.473 111.293 105.874Z" fill="#FCAB1C" fill-opacity="0.1"/>
<path d="M130.015 79.8183L101.838 101.912C107.392 105.812 110.229 106.18 111.001 105.838L131.527 89.7435C132.561 86.8169 130.903 81.9444 130.015 79.8183Z" fill="#FCAB1C" fill-opacity="0.1"/>
</svg>