<svg width="113" height="15" viewBox="0 0 113 15" fill="none" xmlns="http://www.w3.org/2000/svg">
<path d="M7.99994 0.487098C5.93327 0.487098 4.89994 2.48043 4.89994 6.4671V8.0471C4.89994 9.94043 5.17327 11.4271 5.71994 12.5071C6.26661 13.5738 7.07327 14.1071 8.13994 14.1071C9.60661 14.1071 10.9533 12.6804 12.1799 9.8271H12.5399L12.3999 14.2871H12.1799C12.0999 14.1404 12.0266 14.0404 11.9599 13.9871C11.8933 13.9204 11.7933 13.8871 11.6599 13.8871C11.5399 13.8871 11.0599 13.9938 10.2199 14.2071C9.37994 14.4071 8.52661 14.5071 7.65994 14.5071C5.48661 14.5071 3.79994 13.9204 2.59994 12.7471C1.41327 11.5738 0.819939 9.81376 0.819939 7.4671C0.819939 5.1071 1.43994 3.2871 2.67994 2.0071C3.93327 0.727098 5.61327 0.0870979 7.71994 0.0870979C8.53327 0.0870979 9.32661 0.193764 10.0999 0.407097C10.8866 0.607098 11.3466 0.707098 11.4799 0.707098C11.6133 0.707098 11.7133 0.680432 11.7799 0.627098C11.8466 0.560431 11.9199 0.453765 11.9999 0.307097H12.2199L12.3799 4.6471H12.0199C11.4199 3.30043 10.7999 2.27376 10.1599 1.5671C9.53327 0.847098 8.81327 0.487098 7.99994 0.487098ZM30.6231 8.1271V6.6471C30.6231 4.2071 30.5031 2.6671 30.2631 2.0271C29.9964 1.29376 29.6164 0.840431 29.1231 0.667098C28.8431 0.560431 28.5031 0.507097 28.1031 0.507097C27.7031 0.507097 27.3564 0.560431 27.0631 0.667098C26.7831 0.773764 26.5497 0.960431 26.3631 1.2271C26.1764 1.49376 26.0231 1.77376 25.9031 2.0671C25.7964 2.36043 25.7097 2.77376 25.6431 3.3071C25.5631 4.08043 25.5231 5.22043 25.5231 6.7271V8.1671C25.5231 9.79376 25.5831 10.9538 25.7031 11.6471C25.8364 12.3271 25.9964 12.8138 26.1831 13.1071C26.5964 13.7604 27.2364 14.0871 28.1031 14.0871C29.1564 14.0871 29.8364 13.6471 30.1431 12.7671C30.4631 11.8738 30.6231 10.3271 30.6231 8.1271ZM28.0631 14.5071C25.8364 14.5071 24.1697 13.9071 23.0631 12.7071C21.9697 11.4938 21.4231 9.7471 21.4231 7.4671C21.4231 5.17377 22.0097 3.37376 23.1831 2.0671C24.3697 0.747098 26.0431 0.0870979 28.2031 0.0870979C30.3631 0.0870979 31.9897 0.713764 33.0831 1.9671C34.1897 3.2071 34.7431 4.97376 34.7431 7.2671C34.7431 9.56043 34.1831 11.3404 33.0631 12.6071C31.9564 13.8738 30.2897 14.5071 28.0631 14.5071ZM43.384 0.307097H49.624V0.687097H48.464V6.8871H52.444V0.687097H51.264V0.307097H57.524V0.687097H56.344V13.9271H57.524V14.3071H51.264V13.9271H52.444V7.4071H48.464V13.9271H49.624V14.3071H43.384V13.9271H44.564V0.687097H43.384V0.307097ZM65.8445 0.307097H71.9445V0.687097H70.8445V13.9271H71.9445V14.3071H65.8445V13.9271H66.9445V0.687097H65.8445V0.307097ZM88.4538 10.6871L91.9338 0.687097H90.3738V0.307097H93.4338V0.687097H92.4938L87.6738 14.5071H85.9938L80.8938 0.687097H79.9738V0.307097H86.5138V0.687097H85.0938L88.4538 10.6871ZM101.365 0.307097H111.765L111.965 4.2671H111.605C111.045 2.92043 110.459 2.00043 109.845 1.5071C109.232 1.00043 108.332 0.747098 107.145 0.747098H106.445V6.9271H107.125C107.752 6.9271 108.279 6.69376 108.705 6.2271C109.132 5.7471 109.432 5.1071 109.605 4.3071H109.905V10.2271H109.565C109.325 9.2271 108.999 8.51376 108.585 8.0871C108.185 7.66043 107.632 7.4471 106.925 7.4471H106.445V13.8671H107.205C108.432 13.8671 109.472 13.5004 110.325 12.7671C111.192 12.0338 111.785 11.0938 112.105 9.9471H112.505L112.345 14.3071H101.365V13.8671H102.545V0.747098H101.365V0.307097Z" fill="white"/>
</svg>
