<svg width="297" height="259" viewBox="0 0 297 259" fill="none" xmlns="http://www.w3.org/2000/svg">
<g filter="url(#filter0_b_202_223)">
<rect y="0.941467" width="297" height="258" rx="32" fill="#F5F5F5" fill-opacity="0.6"/>
<path d="M86.4631 66.0943C87.0882 66.3164 87.6111 66.3916 88.0316 66.3201C88.6878 66.21 89.144 66.4697 89.6312 66.4697C112.965 66.5168 136.298 66.5328 159.631 66.5177C176.175 66.5064 192.737 66.6617 209.278 66.385C209.369 66.3832 209.451 66.4076 209.526 66.4584C209.68 66.5601 209.83 66.5431 209.977 66.4076C210.048 66.3436 210.13 66.3239 210.222 66.3483C210.624 66.4575 211.018 66.3587 211.405 66.0519" stroke="#040813" stroke-width="0.485632"/>
<path d="M192.227 193.618L184.868 193.609C184.787 193.609 184.709 193.578 184.65 193.521C184.592 193.464 184.558 193.386 184.556 193.304C184.539 192.603 184.319 191.988 183.897 191.461C183.805 191.344 183.832 191.286 183.979 191.286L189.129 191.266" stroke="#81671C" stroke-width="0.485632"/>
<path d="M189.129 191.266C188.979 191.268 188.862 191.228 188.777 191.145C188.678 191.045 188.698 190.988 188.836 190.973C190.064 190.843 190.025 189.285 188.803 189.302C188.399 189.309 188.193 189.312 188.183 189.31C185.763 189.086 183.341 189.046 180.918 189.189C178.963 189.307 176.651 189.067 174.776 189.471C173.953 189.649 173.297 189.271 172.537 189.31C171.548 189.363 170.566 189.304 169.591 189.135C169.496 189.118 169.42 189.069 169.366 188.988C169.31 188.905 169.28 188.825 169.276 188.748" stroke="#040813" stroke-width="0.485632"/>
<path d="M189.129 191.266C196.308 191.266 203.486 191.279 210.661 191.303C212.387 191.309 213.593 191.789 214.119 193.432C214.157 193.548 214.114 193.607 213.992 193.607L192.227 193.618" stroke="#826718" stroke-width="0.485632"/>
<path d="M208.422 74.7577C210.542 74.7276 211.784 75.7363 212.148 77.7838" stroke="#81561D" stroke-width="0.485632"/>
<path d="M212.148 77.7838C212.152 104.978 212.152 132.17 212.151 159.362C212.151 162.12 211.083 163.314 208.278 163.325C203.656 163.348 199.033 163.33 194.409 163.272" stroke="#81671C" stroke-width="0.485632"/>
<path d="M194.409 163.272C194.593 163.332 194.729 163.427 194.818 163.557C194.889 163.66 194.865 163.73 194.744 163.766C194.012 163.975 193.303 163.743 192.717 163.752C187.351 163.835 181.986 163.854 176.62 163.811C176.526 163.811 176.438 163.832 176.355 163.873C175.995 164.054 175.767 163.89 175.513 163.89C165.333 163.935 155.164 163.749 144.987 163.757C144.916 163.759 144.914 163.773 144.981 163.8C145.006 163.809 145.032 163.817 145.06 163.822C145.265 163.869 145.255 163.894 145.032 163.896C133.196 163.921 121.363 163.808 109.53 163.831C109.436 163.831 109.348 163.808 109.268 163.763C109.044 163.637 108.939 163.501 108.952 163.357" stroke="#040813" stroke-width="0.485632"/>
<path d="M108.952 163.356C108.761 163.095 108.689 162.626 108.738 161.951" stroke="#81671C" stroke-width="0.485632"/>
<path d="M108.738 161.951C108.789 160.871 108.807 159.636 108.792 158.247C108.775 156.593 108.009 155.548 106.345 155.551C105.038 155.553 103.738 155.461 102.444 155.275" stroke="#81561D" stroke-width="0.485632"/>
<path d="M102.444 155.275C99.8649 154.295 98.6934 152.381 98.6174 149.674C98.3865 141.205 98.5244 132.706 98.5385 124.234C98.547 120.124 101.549 116.296 105.773 116.096C107.478 116.017 111.517 116.004 117.891 116.056C120.456 116.076 120.315 113.392 118.516 113.386C115.214 113.373 111.919 113.365 108.631 113.363C108.602 113.363 108.574 113.351 108.554 113.33C108.533 113.309 108.522 113.28 108.522 113.25L108.592 103.562" stroke="#81671C" stroke-width="0.485632"/>
<path d="M108.592 103.562C108.352 103.681 108.232 103.556 108.234 103.187C108.245 101.192 108.219 99.1991 108.155 97.208C108.14 96.6867 108.417 95.9547 108.986 95.0118C109.037 94.929 109.107 94.8698 109.197 94.834C109.357 94.7719 109.472 94.6543 109.544 94.4811C109.572 94.4134 109.62 94.3645 109.687 94.3343L110.16 94.117C110.245 94.0775 110.301 94.0135 110.329 93.925C110.373 93.7839 110.462 93.7237 110.597 93.7444C110.702 93.7613 110.787 93.7265 110.853 93.6399C111.261 93.0923 114.151 93.2447 114.877 93.2532C114.909 93.2551 114.917 93.2419 114.9 93.2137C114.881 93.1817 114.847 93.1657 114.798 93.1657C114.701 93.1694 114.744 93.129 114.928 93.0443C115.026 92.9991 115.098 92.9248 115.145 92.8213C115.155 92.7986 115.16 92.7741 115.159 92.7495C115.159 92.7248 115.153 92.7004 115.143 92.678C115.133 92.6556 115.118 92.6357 115.099 92.6195C115.08 92.6033 115.059 92.5913 115.035 92.5842C112.405 91.7966 109.676 91.4409 108.11 94.2638C108.08 94.3165 108.04 94.3607 107.989 94.3964C107.954 94.419 107.911 94.4586 107.862 94.515C107.808 94.5752 107.789 94.6449 107.806 94.7239C107.885 95.0965 107.77 95.3656 107.463 95.5312C107.384 95.5745 107.317 95.6329 107.263 95.7063L106.795 96.3358C106.739 96.411 106.701 96.4938 106.683 96.5842L106.353 98.1876C106.347 98.2148 106.332 98.2394 106.311 98.2578C106.29 98.2761 106.263 98.2873 106.236 98.2895C106.208 98.2917 106.181 98.2849 106.158 98.2701C106.135 98.2553 106.117 98.2333 106.108 98.2073L105.995 97.9109" stroke="#040813" stroke-width="0.485632"/>
<path d="M105.995 97.9109L105.981 113.338C105.979 113.432 105.932 113.483 105.84 113.49C104.562 113.588 103.323 113.885 102.123 114.38" stroke="#81561D" stroke-width="0.485632"/>
<path d="M102.123 114.38C99.112 115.859 97.1332 118.226 96.187 121.482" stroke="#81671C" stroke-width="0.485632"/>
<path d="M96.1869 121.482C96.0537 122.626 95.987 123.402 95.987 123.811C95.9851 131.956 95.9861 140.103 95.9898 148.251C95.9917 150.086 96.1156 151.414 96.3615 152.234C97.6034 156.376 101.594 158.552 105.762 158.033C106.092 157.991 106.257 158.137 106.257 158.47L106.269 163.119C106.269 163.223 106.221 163.292 106.125 163.325C106.057 163.348 105.987 163.354 105.914 163.342" stroke="#81561D" stroke-width="0.485632"/>
<path d="M105.914 163.342C105.985 163.412 106.008 163.497 105.981 163.596C105.957 163.692 105.895 163.742 105.795 163.746C100.163 163.921 95.3055 163.887 89.0002 163.791C88.161 163.78 86.7417 162.148 86.3841 161.443C86.1025 160.884 85.7308 160.635 85.9617 159.853C85.9673 159.834 85.9598 159.824 85.9391 159.822C85.9091 159.82 85.8781 159.82 85.8462 159.822C85.7955 159.826 85.7702 159.802 85.7702 159.752C85.8002 153.982 85.788 148.212 85.7336 142.442C85.7195 140.903 85.5393 138.484 86.0518 137.081C86.0818 137.002 86.1175 136.999 86.1588 137.073L86.401 137.502" stroke="#040813" stroke-width="0.485632"/>
<path d="M86.4009 137.502V115.06" stroke="#81671C" stroke-width="0.485632"/>
<path d="M86.4011 115.06C86.4029 115.222 86.3682 115.334 86.2969 115.396C86.2049 115.473 86.1551 115.452 86.1476 115.334C86.08 114.298 85.9308 113.267 85.9195 112.262C85.8538 106.645 85.865 101.028 85.9533 95.4127C85.9617 94.8001 86.1082 94.1226 86.1532 93.4903C86.1589 93.4075 86.2002 93.352 86.2771 93.3237C86.3166 93.3087 86.3579 93.3087 86.4011 93.3237" stroke="#040813" stroke-width="0.485632"/>
<path d="M86.4009 93.3238L86.3531 86.6251" stroke="#81671C" stroke-width="0.485632"/>
<path d="M86.3532 86.625C85.8998 83.7909 85.4914 79.7598 86.187 76.9764C86.2959 76.5342 86.525 76.1371 86.8742 75.7852C87.7669 74.8819 88.3751 74.3766 89.7184 74.3314C95.3449 74.1451 100.932 74.337 106.55 74.337C134.61 74.3427 162.67 74.3417 190.732 74.3342C195.778 74.3314 200.954 74.21 206.065 74.2044C206.082 74.2044 206.323 74.1884 206.789 74.1564C207.437 74.1112 207.981 74.3116 208.422 74.7577" stroke="#040813" stroke-width="0.485632"/>
<path d="M86.353 86.6251C86.415 84.0186 86.461 81.4169 86.491 78.8198C86.5079 77.1882 86.8571 76.155 88.1835 75.311" stroke="#826718" stroke-width="0.485632"/>
<path d="M88.1836 75.311C88.683 74.9403 89.2659 74.7549 89.9324 74.7549C129.427 74.7624 168.924 74.7634 208.422 74.7577" stroke="#825619" stroke-width="0.485632"/>
<path d="M86.4009 93.3237V115.06" stroke="#826718" stroke-width="0.485632"/>
<path d="M86.4009 137.502C86.4235 144.901 86.4441 152.3 86.4629 159.698C86.4657 161.671 87.4654 163.249 89.5775 163.258C92.4912 163.267 95.4021 163.264 98.3102 163.249" stroke="#826718" stroke-width="0.485632"/>
<path d="M98.3102 163.249C98.282 163.116 98.2285 162.992 98.1497 162.879C98.0952 162.798 98.0182 162.756 97.9187 162.752C94.8154 162.658 92.6433 161.341 91.4023 158.8C90.1463 156.229 90.7039 152.706 90.7067 149.925C90.7124 144.379 90.688 138.833 90.6335 133.287C90.6091 130.677 90.642 128.981 90.7321 128.2C91.0306 125.646 94.01 123.08 95.5814 121.567C95.7917 121.363 95.9935 121.335 96.1869 121.482" stroke="#FFB522" stroke-width="0.485632"/>
<path d="M102.123 114.38C101.75 113.911 101.582 113.267 101.619 112.449C101.707 110.501 101.73 107.203 101.687 102.555C101.681 101.917 101.892 100.951 102.227 100.406C103.296 98.658 104.636 97.1403 106.249 95.853" stroke="#FFB522" stroke-width="0.485632"/>
<path d="M106.249 95.853C107.615 92.2567 110.2 91.2037 113.827 91.2066C138.823 91.2084 163.818 91.2075 188.814 91.2037C190.511 91.2037 191.787 91.3345 192.641 91.5961C195.797 92.5615 197.374 94.9017 197.372 98.6166C197.364 115.289 197.363 131.961 197.366 148.635C197.366 151.117 196.287 153.009 194.128 154.309" stroke="#826718" stroke-width="0.485632"/>
<path d="M194.128 154.309C194.248 154.368 194.338 154.444 194.398 154.538C194.451 154.621 194.447 154.701 194.387 154.778C193.046 156.455 191.627 158.055 190.264 159.709C189.34 160.827 188.327 161.654 186.803 161.815C184.716 162.03 182.351 161.914 180.625 161.917C167.977 161.932 155.329 161.936 142.681 161.928C131.369 161.921 120.055 161.928 108.738 161.951" stroke="#FFB522" stroke-width="0.485632"/>
<path d="M108.952 163.356C137.437 163.269 165.922 163.26 194.409 163.272" stroke="#826718" stroke-width="0.485632"/>
<path d="M88.1836 75.311C88.0578 75.6742 87.8428 75.9678 87.5387 76.1917C87.4692 76.2444 87.4514 76.3103 87.4852 76.3893L87.5218 76.474C87.5575 76.553 87.6138 76.5719 87.6908 76.5305C88.1076 76.3009 88.4793 76.1814 88.8059 76.172C95.7448 75.9856 103.368 76.1183 111.546 76.1042C142.029 76.0572 172.512 76.0336 202.996 76.0336C204.857 76.0336 206.893 76.1437 208.845 76.1748C209.83 76.1917 210.67 76.6961 211.365 77.6878C211.421 77.7706 211.499 77.8102 211.599 77.8064L212.148 77.7838" stroke="#FFB522" stroke-width="0.485632"/>
<path d="M98.3102 163.249L105.914 163.342" stroke="#825619" stroke-width="0.485632"/>
<path d="M106.249 95.853L105.995 97.9109" stroke="#825619" stroke-width="0.485632"/>
<path d="M108.592 103.562C108.528 101.566 108.567 99.5774 108.707 97.5976C108.876 95.2094 110.833 93.8432 113.162 93.8404C132.103 93.8215 151.043 93.8159 169.98 93.8234C171.52 93.8234 173.5 93.925 175.26 93.8996" stroke="#826718" stroke-width="0.485632"/>
<path d="M175.26 93.8997L178.991 93.8065" stroke="#7D7E80" stroke-width="0.485632"/>
<path d="M178.991 93.8064C179.164 93.6766 179.292 93.5006 179.374 93.2785C179.408 93.1825 179.476 93.1346 179.577 93.1346C184.539 93.1317 188.008 92.6885 191.796 93.4818C191.894 93.5025 191.916 93.5561 191.864 93.6427C191.79 93.765 191.767 93.8939 191.793 94.0294" stroke="#040813" stroke-width="0.485632"/>
<path d="M191.793 94.0295C193.489 94.7013 194.7 96.0676 194.688 97.9815C194.662 101.397 194.674 106.525 194.725 113.366" stroke="#7D7E80" stroke-width="0.485632"/>
<path d="M194.725 113.366C194.768 122.693 194.779 132.019 194.758 141.344C194.753 143.684 194.848 145.663 194.688 148.658C194.533 151.526 192.905 152.39 190.151 152.39C164.433 152.393 138.712 152.394 112.99 152.392C109.6 152.39 108.538 151.049 108.527 147.661C108.514 144.183 108.512 140.702 108.521 137.217C108.523 136.902 108.279 136.568 107.789 136.214" stroke="#826718" stroke-width="0.485632"/>
<path d="M107.789 136.214C106.412 135.924 105.995 136.94 105.993 138.137C105.981 141.489 105.979 144.843 105.984 148.2C105.99 151.15 106.871 153.533 109.755 154.577C110.538 154.86 111.843 155.001 113.669 155.001C139.801 155.005 165.934 155.005 192.069 155.001C192.569 155.001 193.255 154.77 194.128 154.309" stroke="#825619" stroke-width="0.485632"/>
<path d="M102.444 155.275C102.23 154.767 102.142 154.249 102.18 153.722C102.225 153.094 102.247 152.77 102.247 152.751C102.242 148.48 102.467 144.201 102.289 139.932C102.286 139.861 102.254 139.806 102.194 139.769L99.065 137.798C98.9824 137.747 98.9354 137.674 98.9242 137.578C98.8735 137.111 98.8453 136.645 98.8397 136.178C98.7927 132.367 98.8068 128.557 98.8819 124.748C98.9007 123.769 98.9533 123.036 99.0396 122.546C99.0528 122.473 99.0959 122.427 99.1692 122.408C99.6423 122.284 99.9333 122.444 100.042 122.888C100.068 122.999 100.126 123.088 100.214 123.156C100.409 123.307 100.645 123.381 100.921 123.379C100.985 123.379 101.049 123.395 101.106 123.426C101.163 123.457 101.211 123.502 101.246 123.556C101.282 123.611 101.303 123.673 101.308 123.738C101.313 123.802 101.302 123.867 101.276 123.927C100.712 125.193 100.458 126.523 100.512 127.915C100.516 128.011 100.556 128.09 100.631 128.152C100.756 128.258 100.894 128.316 101.045 128.327" stroke="#FFB522" stroke-width="0.485632"/>
<path d="M101.045 128.327C100.256 123.545 104.793 119.932 109.276 121.787C112.901 123.289 113.757 127.958 111.278 130.874C110.343 131.973 109.095 132.657 107.533 132.926" stroke="#826718" stroke-width="0.485632"/>
<path d="M107.533 132.926C107.839 133.161 108.187 133.208 108.578 133.067C108.686 133.028 108.737 133.066 108.73 133.183C108.7 133.625 108.518 133.968 108.186 134.213C108.105 134.273 108.058 134.353 108.043 134.453L107.789 136.215" stroke="#FFB522" stroke-width="0.485632"/>
<path d="M101.045 128.327C101.987 131.521 104.15 133.054 107.533 132.926" stroke="#825619" stroke-width="0.485632"/>
<path d="M178.991 93.8065C183.229 93.8177 187.577 93.6173 191.793 94.0295" stroke="#7C7E84" stroke-width="0.485632"/>
<path d="M175.26 93.8996C175.252 94.6166 175.387 95.8022 176.175 95.7966C180.715 95.7665 185.256 95.8135 189.8 95.9377C191.01 95.9716 191.717 95.7994 192.3 96.7874C192.501 97.128 192.604 97.7124 192.61 98.5404C192.64 103.059 192.696 107.577 192.779 112.096C192.799 113.315 193.852 113.191 194.725 113.366" stroke="#FADD89" stroke-width="0.485632"/>
<path d="M146.488 167.639C146.488 166.892 146.784 166.175 147.311 165.647C147.838 165.118 148.553 164.822 149.299 164.822C150.044 164.822 150.759 165.118 151.286 165.647C151.813 166.175 152.109 166.892 152.109 167.639C152.109 168.386 151.813 169.103 151.286 169.631C150.759 170.159 150.044 170.456 149.299 170.456C148.553 170.456 147.838 170.159 147.311 169.631C146.784 169.103 146.488 168.386 146.488 167.639Z" stroke="#7C7E84" stroke-width="0.485632"/>
<path d="M125.184 188.666C122.053 188.666 118.349 188.085 115.685 189.908C115.603 189.965 115.515 189.977 115.421 189.945C110.896 188.426 108.663 185.266 108.721 180.463" stroke="#81671C" stroke-width="0.485632"/>
<path d="M108.721 180.463L108.73 172.644C108.73 172.459 108.823 172.367 109.009 172.367L131.749 172.364C131.788 172.364 131.826 172.372 131.862 172.387C131.898 172.403 131.931 172.425 131.958 172.453C131.985 172.482 132.006 172.515 132.02 172.552C132.034 172.588 132.04 172.627 132.039 172.666C131.979 174.608 131.953 176.548 131.963 178.484C131.98 181.996 130.988 185.33 129.563 188.52C129.524 188.608 129.455 188.652 129.358 188.652L125.184 188.666" stroke="#81561D" stroke-width="0.485632"/>
<path d="M108.721 180.463L124.804 180.534C124.965 180.534 125.042 180.615 125.035 180.776C124.913 183.477 124.963 186.107 125.184 188.666" stroke="#FFB522" stroke-width="0.485632"/>
<path d="M133.23 172.534C133.23 172.513 133.238 172.494 133.252 172.48C133.266 172.465 133.286 172.457 133.306 172.457H165.465C165.486 172.457 165.505 172.465 165.519 172.48C165.533 172.494 165.542 172.513 165.542 172.534V178.851C165.542 178.871 165.533 178.891 165.519 178.905C165.505 178.919 165.486 178.927 165.465 178.927H133.306C133.286 178.927 133.266 178.919 133.252 178.905C133.238 178.891 133.23 178.871 133.23 178.851V172.534Z" stroke="#4A525A" stroke-width="0.485632"/>
<path d="M108.045 146.484C108.113 147.52 107.778 148.528 108.003 149.505C108.136 150.077 108.313 150.63 108.533 151.164C108.57 151.255 108.554 151.334 108.485 151.402L107.876 151.994C107.811 152.058 107.741 152.062 107.668 152.006C105.964 150.654 106.575 148.378 106.598 146.526C106.626 143.809 106.632 141.09 106.615 138.368C106.609 137.609 106.846 137.197 107.555 136.974C107.618 136.954 107.684 136.95 107.749 136.961C107.814 136.972 107.875 136.998 107.928 137.037C107.981 137.076 108.024 137.127 108.054 137.185C108.083 137.244 108.099 137.309 108.099 137.375C108.105 140.375 107.854 143.498 108.045 146.484Z" stroke="#040813" stroke-width="0.485632"/>
<path d="M166.169 147.946C166.755 147.946 168.062 147.771 168.729 147.997C169.847 148.378 169.709 149.781 168.501 149.781C151.715 149.783 134.929 149.782 118.141 149.778C117.93 149.778 117.727 149.674 117.451 149.716C117.346 149.733 117.265 149.696 117.209 149.603C116.893 149.078 116.86 147.949 117.758 147.949C133.896 147.947 150.033 147.946 166.169 147.946Z" stroke="#826718" stroke-width="0.485632"/>
<path d="M112.081 148.892C112.081 148.605 112.195 148.329 112.398 148.126C112.6 147.922 112.876 147.808 113.162 147.808C113.449 147.808 113.724 147.922 113.927 148.126C114.13 148.329 114.244 148.605 114.244 148.892C114.244 149.18 114.13 149.455 113.927 149.659C113.724 149.862 113.449 149.976 113.162 149.976C112.876 149.976 112.6 149.862 112.398 149.659C112.195 149.455 112.081 149.18 112.081 148.892Z" stroke="#826718" stroke-width="0.485632"/>
<path d="M171.802 148.813C171.802 148.583 171.893 148.363 172.055 148.2C172.217 148.038 172.437 147.946 172.666 147.946H183.058C183.287 147.946 183.507 148.038 183.669 148.2C183.831 148.363 183.922 148.583 183.922 148.813V148.915C183.922 149.144 183.831 149.365 183.669 149.527C183.507 149.69 183.287 149.781 183.058 149.781H172.666C172.437 149.781 172.217 149.69 172.055 149.527C171.893 149.365 171.802 149.144 171.802 148.915V148.813Z" stroke="#826718" stroke-width="0.485632"/>
<path d="M102.582 127.057C102.582 126.497 102.693 125.942 102.907 125.424C103.121 124.906 103.434 124.435 103.83 124.039C104.225 123.643 104.694 123.328 105.211 123.114C105.727 122.899 106.281 122.789 106.84 122.789C107.97 122.789 109.053 123.239 109.851 124.039C110.65 124.84 111.098 125.925 111.098 127.057C111.098 128.189 110.65 129.275 109.851 130.075C109.053 130.876 107.97 131.325 106.84 131.325C106.281 131.325 105.727 131.215 105.211 131C104.694 130.786 104.225 130.472 103.83 130.075C103.434 129.679 103.121 129.208 102.907 128.69C102.693 128.173 102.582 127.618 102.582 127.057Z" stroke="#826718" stroke-width="0.485632"/>
<path d="M86.4631 66.0943C87.0882 66.3164 87.6111 66.3916 88.0316 66.3201C88.6878 66.21 89.144 66.4697 89.6312 66.4697C112.965 66.5168 136.298 66.5328 159.631 66.5177C176.175 66.5064 192.737 66.6617 209.278 66.385C209.369 66.3832 209.451 66.4076 209.526 66.4584C209.68 66.5601 209.83 66.5431 209.977 66.4076C210.048 66.3436 210.13 66.3239 210.222 66.3483C210.624 66.4575 211.018 66.3587 211.405 66.0519L86.4631 66.0943Z" fill="#05070F"/>
<path d="M211.404 66.0519C211.018 66.3587 210.623 66.4575 210.222 66.3483C210.13 66.3239 210.048 66.3436 209.977 66.4076C209.83 66.5431 209.68 66.5601 209.526 66.4584C209.451 66.4076 209.368 66.3832 209.278 66.385C192.737 66.6617 176.175 66.5064 159.631 66.5177C136.298 66.5328 112.965 66.5168 89.631 66.4697C89.1439 66.4697 88.6877 66.21 88.0315 66.3201C87.611 66.3916 87.0881 66.3164 86.4629 66.0943C82.113 67.0484 79.3101 69.6097 78.0541 73.7782C77.8795 74.3512 77.7331 75.5961 77.7302 76.2538C77.627 119.051 77.6214 148.053 77.7133 163.261C77.7171 163.859 77.8617 164.59 78.147 165.454C79.5044 169.564 83.1907 172.22 87.4908 172.257C93.5942 172.31 99.7455 172.317 105.945 172.28C106.181 172.278 106.297 172.395 106.291 172.633C106.227 175.41 106.237 178.215 106.319 181.048C106.364 182.538 106.535 183.741 106.832 184.655C107.798 187.622 110.4 191.024 113.649 191.825C113.779 191.857 113.834 191.94 113.816 192.074L113.599 193.55C113.591 193.606 113.563 193.657 113.521 193.693C113.478 193.73 113.424 193.75 113.368 193.75L105.421 193.759C104.929 193.955 104.692 194.313 104.711 194.834C104.715 194.929 104.752 195.009 104.821 195.074L105.432 195.659C105.477 195.702 105.469 195.724 105.407 195.724H103.669C103.59 195.724 103.587 195.741 103.658 195.774L103.861 195.868C103.919 195.896 103.916 195.914 103.852 195.921L103.757 195.935C103.629 195.952 103.629 195.972 103.757 195.995L104.506 196.136H184.342L186.823 196.085C186.92 196.083 187.013 196.061 187.102 196.017C187.387 195.878 187.687 195.804 188.003 195.794C188.052 195.792 188.065 195.775 188.042 195.743C188.031 195.728 188.016 195.719 187.997 195.715C187.971 195.71 187.961 195.705 187.966 195.701C188.426 195.398 188.91 195.2 189.416 195.105C189.968 195.004 192.765 195.481 192.072 193.979C192.065 193.966 192.068 193.959 192.083 193.959C192.11 193.959 192.138 193.96 192.168 193.962C192.258 193.966 192.262 193.949 192.179 193.911C192.087 193.866 191.982 193.839 191.864 193.83C191.606 193.811 191.61 193.784 191.875 193.75C192.001 193.734 192.118 193.689 192.227 193.618L184.868 193.609C184.787 193.609 184.709 193.578 184.65 193.521C184.592 193.464 184.558 193.386 184.556 193.304C184.539 192.603 184.319 191.988 183.897 191.461C183.805 191.344 183.832 191.286 183.979 191.286L189.129 191.266C188.979 191.268 188.862 191.228 188.777 191.145C188.678 191.045 188.697 190.988 188.836 190.973C190.064 190.843 190.025 189.285 188.803 189.302C188.399 189.309 188.192 189.312 188.183 189.31C185.763 189.086 183.341 189.046 180.917 189.189C178.963 189.307 176.651 189.067 174.776 189.471C173.953 189.649 173.297 189.271 172.537 189.31C171.547 189.363 170.566 189.304 169.591 189.135C169.495 189.118 169.42 189.069 169.366 188.988C169.31 188.905 169.28 188.826 169.276 188.748C169.093 188.768 169.028 188.768 168.958 188.59C168.131 186.486 167.465 184.338 166.958 182.146C166.268 179.159 166.584 175.568 166.609 172.497C166.61 172.444 166.631 172.393 166.669 172.355C166.707 172.318 166.758 172.297 166.812 172.297C181.044 172.291 195.294 172.291 209.56 172.297C211.477 172.298 212.908 172.167 213.854 171.901C217.007 171.023 219.229 168.935 220.523 165.637C220.906 164.658 220.951 163.001 220.951 161.683C220.949 133.546 220.95 105.409 220.954 77.2729C220.954 75.8633 220.837 74.721 220.602 73.8459C219.397 69.382 216.331 66.784 211.404 66.0519ZM208.422 74.7577C210.542 74.7276 211.784 75.7363 212.148 77.7838C212.152 104.978 212.153 132.17 212.151 159.362C212.151 162.12 211.083 163.314 208.279 163.326C203.656 163.348 199.033 163.33 194.409 163.272C194.593 163.332 194.729 163.427 194.818 163.557C194.889 163.66 194.865 163.73 194.744 163.766C194.012 163.975 193.303 163.743 192.717 163.752C187.351 163.835 181.986 163.854 176.62 163.811C176.526 163.811 176.438 163.832 176.355 163.873C175.995 164.054 175.767 163.89 175.513 163.89C165.333 163.935 155.164 163.749 144.987 163.757C144.916 163.759 144.914 163.773 144.981 163.8C145.006 163.809 145.032 163.817 145.06 163.822C145.265 163.869 145.255 163.894 145.032 163.896C133.196 163.921 121.363 163.808 109.53 163.831C109.436 163.831 109.348 163.808 109.268 163.763C109.044 163.637 108.939 163.501 108.952 163.357C108.761 163.095 108.689 162.626 108.738 161.951C108.789 160.871 108.807 159.636 108.792 158.247C108.775 156.593 108.009 155.548 106.345 155.551C105.038 155.553 103.738 155.461 102.444 155.275C99.8647 154.295 98.6932 152.381 98.6172 149.674C98.3863 141.205 98.5243 132.706 98.5383 124.234C98.5468 120.124 101.549 116.296 105.773 116.096C107.478 116.017 111.517 116.004 117.891 116.056C120.456 116.076 120.315 113.392 118.516 113.386C115.213 113.373 111.919 113.365 108.631 113.363C108.602 113.363 108.574 113.351 108.554 113.33C108.533 113.309 108.521 113.28 108.521 113.25L108.592 103.562C108.351 103.681 108.232 103.556 108.234 103.187C108.245 101.192 108.219 99.1991 108.155 97.208C108.14 96.6868 108.417 95.9547 108.986 95.0118C109.037 94.929 109.107 94.8698 109.197 94.834C109.357 94.7719 109.472 94.6543 109.544 94.4811C109.572 94.4134 109.62 94.3645 109.687 94.3344L110.16 94.117C110.245 94.0775 110.301 94.0135 110.329 93.925C110.373 93.7839 110.462 93.7237 110.597 93.7444C110.702 93.7613 110.787 93.7265 110.853 93.6399C111.261 93.0923 114.151 93.2447 114.877 93.2532C114.909 93.2551 114.917 93.2419 114.9 93.2137C114.881 93.1817 114.847 93.1657 114.798 93.1657C114.701 93.1694 114.744 93.129 114.928 93.0443C115.026 92.9991 115.098 92.9248 115.145 92.8213C115.155 92.7986 115.16 92.7742 115.159 92.7495C115.159 92.7248 115.153 92.7004 115.143 92.678C115.133 92.6556 115.118 92.6357 115.099 92.6195C115.08 92.6033 115.059 92.5913 115.035 92.5842C112.405 91.7966 109.676 91.4409 108.11 94.2638C108.08 94.3165 108.04 94.3607 107.989 94.3965C107.953 94.419 107.911 94.4586 107.862 94.515C107.808 94.5752 107.789 94.6449 107.806 94.7239C107.885 95.0965 107.77 95.3657 107.463 95.5313C107.384 95.5745 107.317 95.6329 107.263 95.7063L106.795 96.3358C106.739 96.4111 106.701 96.4939 106.682 96.5842L106.353 98.1876C106.347 98.2148 106.332 98.2394 106.311 98.2578C106.29 98.2761 106.263 98.2873 106.236 98.2895C106.208 98.2917 106.181 98.2849 106.158 98.2701C106.135 98.2553 106.117 98.2333 106.108 98.2073L105.995 97.9109L105.981 113.338C105.979 113.432 105.932 113.483 105.84 113.49C104.562 113.588 103.323 113.885 102.123 114.38C99.1119 115.859 97.1331 118.226 96.1869 121.482C96.0536 122.626 95.987 123.402 95.987 123.811C95.9851 131.956 95.986 140.103 95.9898 148.251C95.9917 150.086 96.1156 151.414 96.3615 152.234C97.6034 156.376 101.594 158.552 105.762 158.033C106.092 157.991 106.257 158.137 106.257 158.47L106.269 163.119C106.269 163.223 106.221 163.292 106.125 163.326C106.057 163.348 105.987 163.354 105.914 163.342C105.985 163.412 106.008 163.497 105.981 163.596C105.957 163.692 105.895 163.742 105.795 163.746C100.163 163.921 95.3055 163.887 89.0002 163.791C88.161 163.78 86.7417 162.148 86.3841 161.443C86.1025 160.884 85.7308 160.635 85.9617 159.853C85.9673 159.835 85.9598 159.824 85.9391 159.822C85.9091 159.82 85.8781 159.82 85.8462 159.822C85.7955 159.826 85.7702 159.803 85.7702 159.752C85.8002 153.982 85.788 148.212 85.7336 142.442C85.7195 140.903 85.5393 138.484 86.0518 137.081C86.0818 137.002 86.1175 136.999 86.1588 137.073L86.401 137.502V115.06C86.4029 115.222 86.3681 115.334 86.2968 115.396C86.2048 115.473 86.155 115.452 86.1475 115.334C86.08 114.298 85.9307 113.267 85.9194 112.262C85.8537 106.645 85.865 101.028 85.9532 95.4127C85.9617 94.8001 86.1081 94.1226 86.1532 93.4903C86.1588 93.4075 86.2001 93.352 86.2771 93.3238C86.3165 93.3087 86.3578 93.3087 86.401 93.3238L86.3531 86.6251C85.8997 83.7909 85.4914 79.7598 86.187 76.9765C86.2959 76.5342 86.5249 76.1371 86.8741 75.7852C87.7668 74.8819 88.3751 74.3766 89.7183 74.3314C95.3449 74.1451 100.932 74.3371 106.55 74.3371C134.61 74.3427 162.67 74.3418 190.732 74.3343C195.778 74.3314 200.954 74.2101 206.065 74.2044C206.082 74.2044 206.323 74.1884 206.789 74.1564C207.437 74.1113 207.981 74.3117 208.422 74.7577ZM146.488 167.639C146.488 166.892 146.784 166.175 147.311 165.647C147.838 165.118 148.553 164.822 149.298 164.822C150.044 164.822 150.759 165.118 151.286 165.647C151.813 166.175 152.109 166.892 152.109 167.639C152.109 168.386 151.813 169.103 151.286 169.631C150.759 170.159 150.044 170.456 149.298 170.456C148.553 170.456 147.838 170.159 147.311 169.631C146.784 169.103 146.488 168.386 146.488 167.639ZM125.184 188.666C122.053 188.666 118.35 188.085 115.686 189.909C115.603 189.965 115.515 189.977 115.421 189.945C110.896 188.427 108.663 185.266 108.721 180.463L108.73 172.644C108.73 172.459 108.823 172.367 109.009 172.367L131.749 172.364C131.788 172.364 131.826 172.372 131.862 172.388C131.898 172.403 131.931 172.425 131.958 172.453C131.985 172.482 132.006 172.515 132.02 172.552C132.034 172.588 132.04 172.627 132.039 172.666C131.978 174.609 131.953 176.548 131.963 178.484C131.979 181.996 130.988 185.33 129.563 188.52C129.524 188.608 129.455 188.652 129.358 188.652L125.184 188.666ZM133.23 172.534C133.23 172.514 133.238 172.494 133.252 172.48C133.266 172.466 133.286 172.458 133.306 172.458H165.466C165.486 172.458 165.505 172.466 165.519 172.48C165.534 172.494 165.542 172.514 165.542 172.534V178.851C165.542 178.872 165.534 178.891 165.519 178.905C165.505 178.92 165.486 178.928 165.466 178.928H133.306C133.286 178.928 133.266 178.92 133.252 178.905C133.238 178.891 133.23 178.872 133.23 178.851V172.534Z" fill="#020817"/>
<path d="M86.3532 86.625C86.4151 84.0186 86.4611 81.4168 86.4912 78.8198C86.5081 77.1881 86.8572 76.155 88.1836 75.3109C88.683 74.9402 89.2659 74.7548 89.9324 74.7548C129.427 74.7624 168.924 74.7633 208.422 74.7577C207.981 74.3116 207.437 74.1112 206.789 74.1564C206.323 74.1884 206.082 74.2044 206.065 74.2044C200.954 74.21 195.778 74.3314 190.732 74.3342C162.67 74.3417 134.61 74.3427 106.55 74.337C100.932 74.337 95.3449 74.1451 89.7184 74.3314C88.3751 74.3766 87.7669 74.8819 86.8742 75.7852C86.525 76.1371 86.2959 76.5342 86.187 76.9764C85.4914 79.7598 85.8998 83.7909 86.3532 86.625Z" fill="#05070F"/>
<path d="M208.422 74.7577C168.924 74.7634 129.427 74.7624 89.9324 74.7549C89.2659 74.7549 88.683 74.9403 88.1836 75.311C88.0578 75.6742 87.8428 75.9678 87.5387 76.1917C87.4692 76.2444 87.4514 76.3103 87.4852 76.3893L87.5218 76.474C87.5575 76.5531 87.6138 76.5719 87.6908 76.5305C88.1076 76.3009 88.4793 76.1814 88.8059 76.172C95.7448 75.9857 103.368 76.1183 111.546 76.1042C142.029 76.0572 172.512 76.0336 202.996 76.0336C204.857 76.0336 206.893 76.1437 208.845 76.1748C209.83 76.1917 210.67 76.6961 211.365 77.6879C211.421 77.7707 211.499 77.8102 211.599 77.8064L212.148 77.7838C211.784 75.7363 210.542 74.7276 208.422 74.7577Z" fill="#FFA422"/>
<path d="M88.1835 75.311C86.8571 76.155 86.5079 77.1882 86.491 78.8198C86.461 81.4169 86.415 84.0186 86.353 86.6251L86.4009 93.3238V115.06V137.502C86.4234 144.902 86.4441 152.3 86.4629 159.698C86.4657 161.671 87.4654 163.249 89.5775 163.258C92.4912 163.267 95.4021 163.264 98.3102 163.249C98.282 163.116 98.2285 162.992 98.1496 162.879C98.0952 162.799 98.0182 162.756 97.9187 162.752C94.8154 162.658 92.6432 161.341 91.4023 158.8C90.1463 156.229 90.7039 152.706 90.7067 149.925C90.7123 144.379 90.6879 138.833 90.6335 133.287C90.6091 130.677 90.642 128.981 90.7321 128.2C91.0306 125.646 94.01 123.08 95.5814 121.567C95.7916 121.363 95.9935 121.335 96.1868 121.482C97.133 118.226 99.1118 115.859 102.123 114.38C101.75 113.911 101.582 113.267 101.619 112.449C101.707 110.501 101.73 107.203 101.687 102.555C101.681 101.917 101.892 100.951 102.227 100.406C103.296 98.6581 104.636 97.1403 106.249 95.8531C107.615 92.2567 110.2 91.2038 113.827 91.2066C138.822 91.2085 163.818 91.2075 188.814 91.2038C190.511 91.2038 191.787 91.3346 192.641 91.5962C195.797 92.5616 197.374 94.9017 197.372 98.6167C197.364 115.289 197.362 131.961 197.366 148.635C197.366 151.117 196.287 153.009 194.128 154.309C194.248 154.368 194.338 154.444 194.398 154.538C194.451 154.621 194.447 154.701 194.387 154.778C193.046 156.455 191.627 158.055 190.264 159.709C189.34 160.827 188.327 161.654 186.803 161.815C184.716 162.03 182.351 161.914 180.625 161.917C167.977 161.932 155.329 161.936 142.681 161.928C131.369 161.921 120.055 161.928 108.738 161.951C108.689 162.626 108.761 163.095 108.952 163.357C137.437 163.269 165.922 163.261 194.409 163.272C199.033 163.33 203.656 163.348 208.279 163.325C211.083 163.314 212.151 162.12 212.151 159.362C212.153 132.17 212.152 104.978 212.148 77.7838L211.599 77.8064C211.499 77.8102 211.421 77.7706 211.365 77.6878C210.67 76.6961 209.83 76.1917 208.845 76.1748C206.893 76.1437 204.857 76.0336 202.996 76.0336C172.512 76.0336 142.029 76.0572 111.546 76.1042C103.368 76.1183 95.7447 75.9856 88.8059 76.172C88.4792 76.1814 88.1075 76.3009 87.6907 76.5305C87.6137 76.5719 87.5574 76.553 87.5217 76.474L87.4851 76.3893C87.4513 76.3103 87.4691 76.2444 87.5386 76.1917C87.8428 75.9678 88.0577 75.6742 88.1835 75.311Z" fill="#FFC621"/>
<path d="M106.249 95.853L105.996 97.9109L106.108 98.2073C106.117 98.2332 106.135 98.2553 106.158 98.2701C106.181 98.2849 106.208 98.2917 106.236 98.2894C106.264 98.2872 106.29 98.2761 106.311 98.2577C106.332 98.2393 106.347 98.2147 106.353 98.1875L106.683 96.5841C106.701 96.4938 106.739 96.411 106.795 96.3357L107.263 95.7062C107.317 95.6328 107.384 95.5745 107.463 95.5312C107.771 95.3656 107.885 95.0965 107.806 94.7239C107.789 94.6448 107.808 94.5752 107.863 94.515C107.911 94.4585 107.954 94.419 107.989 94.3964C108.04 94.3607 108.08 94.3164 108.11 94.2637C109.676 91.4409 112.405 91.7965 115.035 92.5841C115.059 92.5912 115.081 92.6033 115.099 92.6195C115.118 92.6357 115.133 92.6556 115.143 92.678C115.154 92.7004 115.159 92.7247 115.159 92.7494C115.16 92.7741 115.155 92.7986 115.145 92.8212C115.098 92.9247 115.026 92.9991 114.928 93.0442C114.744 93.1289 114.701 93.1694 114.799 93.1656C114.847 93.1656 114.881 93.1816 114.9 93.2136C114.917 93.2419 114.909 93.255 114.877 93.2531C114.151 93.2447 111.262 93.0922 110.853 93.6399C110.788 93.7264 110.702 93.7613 110.597 93.7443C110.462 93.7236 110.373 93.7838 110.329 93.925C110.301 94.0134 110.245 94.0774 110.161 94.1169L109.687 94.3343C109.62 94.3644 109.572 94.4133 109.544 94.4811C109.472 94.6542 109.357 94.7719 109.197 94.834C109.107 94.8697 109.037 94.929 108.986 95.0118C108.417 95.9546 108.14 96.6867 108.155 97.208C108.219 99.1991 108.246 101.192 108.234 103.187C108.232 103.556 108.352 103.681 108.592 103.562C108.528 101.566 108.567 99.5773 108.707 97.5976C108.876 95.2094 110.834 93.8431 113.162 93.8403C132.104 93.8215 151.043 93.8158 169.98 93.8234C171.52 93.8234 173.5 93.925 175.26 93.8996L178.991 93.8064C179.164 93.6766 179.292 93.5006 179.374 93.2785C179.408 93.1826 179.476 93.1346 179.577 93.1346C184.539 93.1318 188.009 92.6886 191.796 93.4818C191.894 93.5025 191.916 93.5561 191.864 93.6427C191.791 93.765 191.767 93.8939 191.793 94.0294C193.489 94.7013 194.7 96.0676 194.688 97.9815C194.662 101.397 194.674 106.525 194.725 113.366C194.768 122.693 194.779 132.019 194.759 141.344C194.753 143.684 194.849 145.663 194.688 148.658C194.533 151.526 192.906 152.39 190.152 152.39C164.433 152.393 138.713 152.394 112.991 152.392C109.6 152.39 108.538 151.049 108.527 147.661C108.514 144.184 108.512 140.702 108.522 137.217C108.523 136.902 108.279 136.568 107.789 136.215C106.412 135.924 105.996 136.94 105.993 138.137C105.981 141.489 105.979 144.843 105.984 148.2C105.99 151.15 106.871 153.533 109.755 154.577C110.538 154.86 111.843 155.001 113.669 155.001C139.801 155.005 165.934 155.005 192.069 155.001C192.569 155.001 193.255 154.77 194.128 154.309C196.287 153.009 197.366 151.117 197.366 148.635C197.363 131.961 197.365 115.289 197.372 98.6166C197.374 94.9017 195.797 92.5615 192.641 91.5961C191.787 91.3345 190.511 91.2037 188.814 91.2037C163.818 91.2075 138.823 91.2084 113.827 91.2066C110.2 91.2037 107.615 92.2567 106.249 95.853ZM108.046 146.484C108.113 147.52 107.778 148.528 108.003 149.505C108.137 150.077 108.313 150.63 108.533 151.164C108.57 151.255 108.554 151.334 108.485 151.402L107.877 151.994C107.811 152.058 107.741 152.062 107.668 152.006C105.965 150.654 106.576 148.378 106.598 146.526C106.626 143.809 106.632 141.09 106.615 138.368C106.609 137.609 106.846 137.197 107.556 136.974C107.618 136.954 107.685 136.95 107.749 136.961C107.814 136.972 107.875 136.998 107.928 137.037C107.981 137.076 108.024 137.127 108.054 137.185C108.083 137.244 108.099 137.309 108.099 137.375C108.105 140.375 107.854 143.498 108.046 146.484Z" fill="#05070F"/>
<path d="M178.991 93.8064C183.23 93.8177 187.578 93.6173 191.793 94.0294C191.767 93.8939 191.791 93.765 191.864 93.6427C191.916 93.5561 191.894 93.5025 191.796 93.4818C188.009 92.6885 184.539 93.1317 179.577 93.1346C179.476 93.1346 179.408 93.1825 179.374 93.2785C179.292 93.5006 179.164 93.6766 178.991 93.8064Z" fill="#020817"/>
<path d="M86.4009 93.3237C86.3577 93.3087 86.3164 93.3087 86.277 93.3237C86.2 93.352 86.1587 93.4075 86.1531 93.4903C86.108 94.1226 85.9615 94.8001 85.9531 95.4127C85.8649 101.028 85.8536 106.645 85.9193 112.262C85.9306 113.267 86.0798 114.298 86.1474 115.334C86.1549 115.452 86.2047 115.473 86.2967 115.396C86.368 115.334 86.4027 115.222 86.4009 115.06V93.3237Z" fill="#05070F"/>
<path d="M178.991 93.8065L175.26 93.8996C175.252 94.6166 175.387 95.8022 176.175 95.7966C180.715 95.7665 185.256 95.8135 189.8 95.9377C191.01 95.9716 191.717 95.7994 192.3 96.7874C192.501 97.128 192.604 97.7124 192.61 98.5404C192.64 103.059 192.696 107.577 192.779 112.096C192.799 113.315 193.852 113.191 194.725 113.366C194.674 106.525 194.662 101.397 194.688 97.9815C194.7 96.0676 193.489 94.7013 191.793 94.0295C187.578 93.6173 183.23 93.8177 178.991 93.8065Z" fill="#F5F4F1"/>
<path d="M108.592 103.562L108.521 113.25C108.521 113.28 108.533 113.309 108.553 113.33C108.574 113.351 108.602 113.363 108.631 113.363C111.918 113.365 115.213 113.373 118.515 113.386C120.315 113.392 120.456 116.076 117.89 116.056C111.517 116.004 107.477 116.017 105.773 116.096C101.549 116.296 98.5466 120.124 98.5381 124.234C98.5241 132.706 98.3861 141.205 98.617 149.674C98.693 152.381 99.8645 154.295 102.444 155.275C102.23 154.767 102.142 154.249 102.179 153.722C102.224 153.094 102.247 152.77 102.247 152.751C102.241 148.48 102.467 144.2 102.289 139.932C102.285 139.861 102.253 139.806 102.193 139.769L99.0647 137.798C98.9821 137.747 98.9352 137.674 98.9239 137.578C98.8733 137.111 98.8451 136.645 98.8395 136.178C98.7925 132.367 98.8066 128.557 98.8817 124.748C98.9005 123.769 98.953 123.035 99.0394 122.546C99.0526 122.473 99.0957 122.427 99.1689 122.408C99.642 122.284 99.9331 122.444 100.042 122.888C100.068 122.999 100.125 123.088 100.214 123.156C100.409 123.306 100.645 123.381 100.921 123.379C100.985 123.379 101.049 123.395 101.106 123.426C101.163 123.457 101.211 123.502 101.246 123.556C101.281 123.611 101.302 123.673 101.308 123.738C101.313 123.802 101.302 123.867 101.275 123.927C100.712 125.193 100.458 126.523 100.512 127.915C100.516 128.011 100.555 128.09 100.63 128.152C100.756 128.258 100.894 128.316 101.044 128.327C100.256 123.545 104.793 119.932 109.276 121.787C112.9 123.289 113.756 127.958 111.278 130.874C110.343 131.973 109.095 132.657 107.533 132.926C107.839 133.161 108.187 133.208 108.578 133.067C108.686 133.028 108.737 133.066 108.73 133.183C108.7 133.625 108.518 133.969 108.186 134.213C108.105 134.273 108.057 134.353 108.042 134.453L107.789 136.215C108.279 136.568 108.523 136.902 108.521 137.217C108.512 140.702 108.514 144.184 108.527 147.661C108.538 151.049 109.6 152.39 112.99 152.392C138.713 152.394 164.433 152.393 190.151 152.39C192.905 152.39 194.533 151.526 194.688 148.658C194.848 145.663 194.753 143.684 194.758 141.344C194.779 132.019 194.768 122.693 194.725 113.366C193.852 113.191 192.798 113.315 192.779 112.096C192.696 107.577 192.64 103.059 192.61 98.5404C192.604 97.7124 192.501 97.1281 192.3 96.7874C191.717 95.7994 191.01 95.9716 189.799 95.9377C185.256 95.8135 180.715 95.7665 176.175 95.7966C175.386 95.8023 175.251 94.6166 175.26 93.8996C173.5 93.925 171.52 93.8234 169.98 93.8234C151.042 93.8159 132.103 93.8215 113.162 93.8404C110.833 93.8432 108.876 95.2094 108.707 97.5976C108.566 99.5774 108.528 101.566 108.592 103.562ZM166.169 147.946C166.755 147.946 168.062 147.771 168.729 147.997C169.847 148.378 169.709 149.781 168.501 149.781C151.715 149.783 134.929 149.782 118.141 149.779C117.93 149.779 117.727 149.674 117.451 149.716C117.346 149.733 117.265 149.696 117.209 149.603C116.893 149.078 116.86 147.949 117.758 147.949C133.896 147.947 150.033 147.946 166.169 147.946ZM112.081 148.892C112.081 148.605 112.195 148.329 112.397 148.126C112.6 147.922 112.875 147.808 113.162 147.808C113.449 147.808 113.724 147.922 113.927 148.126C114.13 148.329 114.243 148.605 114.243 148.892C114.243 149.18 114.13 149.455 113.927 149.659C113.724 149.862 113.449 149.976 113.162 149.976C112.875 149.976 112.6 149.862 112.397 149.659C112.195 149.455 112.081 149.18 112.081 148.892ZM171.802 148.813C171.802 148.583 171.893 148.363 172.055 148.2C172.217 148.038 172.437 147.946 172.666 147.946H183.058C183.287 147.946 183.507 148.038 183.669 148.2C183.831 148.363 183.922 148.583 183.922 148.813V148.915C183.922 149.145 183.831 149.365 183.669 149.528C183.507 149.69 183.287 149.781 183.058 149.781H172.666C172.437 149.781 172.217 149.69 172.055 149.528C171.893 149.365 171.802 149.145 171.802 148.915V148.813Z" fill="#FFC621"/>
<path d="M106.249 95.853C104.636 97.1403 103.296 98.658 102.227 100.406C101.892 100.951 101.681 101.917 101.687 102.555C101.73 107.203 101.707 110.501 101.619 112.449C101.582 113.267 101.75 113.911 102.123 114.38C103.323 113.885 104.562 113.588 105.841 113.49C105.932 113.483 105.979 113.432 105.981 113.338L105.995 97.9109L106.249 95.853Z" fill="#FFA422"/>
<path d="M101.045 128.327C101.987 131.521 104.15 133.054 107.533 132.926C109.095 132.657 110.343 131.973 111.278 130.874C113.756 127.958 112.9 123.289 109.276 121.787C104.793 119.932 100.256 123.545 101.045 128.327ZM102.582 127.057C102.582 126.497 102.692 125.942 102.906 125.424C103.12 124.906 103.434 124.435 103.829 124.039C104.225 123.643 104.694 123.328 105.211 123.114C105.727 122.899 106.281 122.789 106.84 122.789C107.969 122.789 109.052 123.239 109.851 124.039C110.649 124.84 111.098 125.925 111.098 127.057C111.098 128.189 110.649 129.275 109.851 130.075C109.052 130.876 107.969 131.325 106.84 131.325C106.281 131.325 105.727 131.215 105.211 131C104.694 130.786 104.225 130.472 103.829 130.075C103.434 129.679 103.12 129.208 102.906 128.69C102.692 128.173 102.582 127.618 102.582 127.057Z" fill="#05070F"/>
<path d="M98.3103 163.249L105.914 163.342C105.987 163.354 106.057 163.348 106.125 163.326C106.221 163.292 106.269 163.223 106.269 163.119L106.257 158.47C106.257 158.137 106.092 157.991 105.762 158.033C101.594 158.552 97.6034 156.376 96.3615 152.234C96.1156 151.414 95.9917 150.086 95.9898 148.251C95.9861 140.103 95.9851 131.956 95.987 123.811C95.987 123.402 96.0537 122.626 96.1869 121.482C95.9936 121.335 95.7918 121.363 95.5815 121.567C94.0101 123.08 91.0307 125.646 90.7322 128.2C90.6421 128.981 90.6092 130.677 90.6336 133.287C90.6881 138.833 90.7125 144.379 90.7068 149.925C90.704 152.706 90.1464 156.229 91.4024 158.8C92.6434 161.341 94.8155 162.658 97.9188 162.752C98.0183 162.756 98.0953 162.799 98.1498 162.879C98.2286 162.992 98.2821 163.116 98.3103 163.249Z" fill="#FFA422"/>
<path d="M102.444 155.275C103.738 155.461 105.038 155.553 106.345 155.551C108.009 155.548 108.775 156.593 108.792 158.247C108.807 159.636 108.789 160.871 108.738 161.951C120.055 161.928 131.369 161.921 142.681 161.928C155.329 161.936 167.977 161.932 180.625 161.917C182.351 161.914 184.716 162.03 186.803 161.815C188.327 161.654 189.34 160.827 190.264 159.709C191.627 158.055 193.046 156.455 194.387 154.778C194.447 154.701 194.451 154.621 194.398 154.538C194.338 154.444 194.248 154.368 194.128 154.309C193.255 154.77 192.569 155.001 192.069 155.001C165.934 155.005 139.801 155.005 113.669 155.001C111.843 155.001 110.538 154.86 109.755 154.577C106.871 153.533 105.99 151.15 105.984 148.201C105.979 144.843 105.981 141.489 105.993 138.137C105.995 136.94 106.412 135.924 107.789 136.215L108.043 134.453C108.058 134.353 108.106 134.273 108.186 134.213C108.519 133.969 108.7 133.625 108.73 133.183C108.737 133.066 108.687 133.028 108.578 133.067C108.187 133.208 107.839 133.161 107.533 132.926C104.15 133.054 101.987 131.521 101.045 128.327C100.895 128.316 100.757 128.258 100.631 128.152C100.556 128.09 100.516 128.011 100.513 127.915C100.458 126.523 100.712 125.193 101.276 123.927C101.302 123.867 101.313 123.802 101.308 123.738C101.303 123.673 101.282 123.611 101.246 123.556C101.211 123.502 101.163 123.457 101.106 123.426C101.049 123.395 100.986 123.379 100.921 123.379C100.645 123.381 100.409 123.307 100.214 123.156C100.126 123.088 100.069 122.999 100.042 122.888C99.9333 122.444 99.6423 122.284 99.1692 122.408C99.096 122.427 99.0528 122.473 99.0397 122.546C98.9533 123.036 98.9008 123.769 98.882 124.748C98.8069 128.557 98.7928 132.367 98.8398 136.178C98.8454 136.645 98.8736 137.111 98.9242 137.578C98.9355 137.674 98.9824 137.747 99.065 137.798L102.194 139.769C102.254 139.806 102.286 139.861 102.289 139.932C102.467 144.201 102.242 148.48 102.247 152.751C102.247 152.77 102.225 153.094 102.18 153.722C102.142 154.249 102.23 154.767 102.444 155.275Z" fill="#FFA422"/>
<path d="M106.84 131.325C104.489 131.325 102.582 129.415 102.582 127.057C102.582 124.7 104.489 122.789 106.84 122.789C109.192 122.789 111.098 124.7 111.098 127.057C111.098 129.415 109.192 131.325 106.84 131.325Z" fill="#FFC621"/>
<path d="M108.045 146.484C107.854 143.498 108.105 140.375 108.099 137.375C108.099 137.309 108.083 137.244 108.054 137.185C108.024 137.127 107.981 137.076 107.928 137.037C107.875 136.998 107.814 136.972 107.749 136.961C107.684 136.95 107.618 136.954 107.555 136.974C106.846 137.197 106.609 137.609 106.615 138.368C106.632 141.09 106.626 143.809 106.598 146.526C106.575 148.378 105.964 150.654 107.668 152.006C107.741 152.062 107.811 152.058 107.876 151.994L108.485 151.402C108.554 151.334 108.57 151.255 108.533 151.164C108.313 150.63 108.136 150.077 108.003 149.505C107.778 148.528 108.113 147.52 108.045 146.484Z" fill="#020817"/>
<path d="M105.914 163.342L98.3103 163.249C95.4022 163.264 92.4913 163.267 89.5776 163.258C87.4655 163.249 86.4658 161.671 86.463 159.698C86.4442 152.3 86.4236 144.902 86.4011 137.502L86.1589 137.073C86.1175 136.999 86.0819 137.002 86.0518 137.081C85.5393 138.484 85.7196 140.903 85.7336 142.442C85.7881 148.212 85.8003 153.982 85.7702 159.752C85.7702 159.803 85.7956 159.826 85.8463 159.822C85.8782 159.82 85.9092 159.82 85.9392 159.822C85.9599 159.824 85.9674 159.835 85.9617 159.853C85.7308 160.635 86.1025 160.884 86.3842 161.443C86.7418 162.148 88.1611 163.78 89.0003 163.791C95.3055 163.887 100.163 163.921 105.795 163.746C105.895 163.742 105.957 163.693 105.981 163.597C106.008 163.497 105.985 163.412 105.914 163.342Z" fill="#05070F"/>
<path d="M166.169 147.947C150.033 147.947 133.896 147.947 117.758 147.949C116.86 147.949 116.893 149.078 117.209 149.604C117.265 149.696 117.346 149.733 117.451 149.716C117.727 149.674 117.93 149.779 118.141 149.779C134.929 149.782 151.715 149.783 168.501 149.781C169.709 149.781 169.847 148.378 168.729 147.997C168.062 147.771 166.755 147.947 166.169 147.947Z" fill="#05070F"/>
<path d="M113.162 149.976C112.565 149.976 112.081 149.491 112.081 148.892C112.081 148.293 112.565 147.808 113.162 147.808C113.76 147.808 114.244 148.293 114.244 148.892C114.244 149.491 113.76 149.976 113.162 149.976Z" fill="#05070F"/>
<path d="M172.666 147.946H183.058C183.535 147.946 183.922 148.334 183.922 148.813V148.915C183.922 149.393 183.535 149.781 183.058 149.781H172.666C172.189 149.781 171.802 149.393 171.802 148.915V148.813C171.802 148.334 172.189 147.946 172.666 147.946Z" fill="#05070F"/>
<path d="M194.409 163.272C165.922 163.26 137.437 163.269 108.952 163.356C108.939 163.501 109.044 163.637 109.268 163.763C109.348 163.808 109.436 163.831 109.53 163.831C121.363 163.808 133.196 163.921 145.032 163.896C145.255 163.894 145.265 163.869 145.06 163.822C145.032 163.817 145.006 163.809 144.981 163.8C144.914 163.773 144.916 163.759 144.987 163.757C155.164 163.749 165.333 163.935 175.513 163.89C175.767 163.89 175.995 164.054 176.355 163.873C176.438 163.832 176.526 163.811 176.62 163.811C181.986 163.854 187.351 163.834 192.717 163.752C193.303 163.743 194.012 163.975 194.745 163.766C194.865 163.73 194.889 163.66 194.818 163.557C194.729 163.427 194.593 163.332 194.409 163.272Z" fill="#05070F"/>
<path d="M149.299 170.456C147.746 170.456 146.488 169.195 146.488 167.639C146.488 166.083 147.746 164.822 149.299 164.822C150.851 164.822 152.109 166.083 152.109 167.639C152.109 169.195 150.851 170.456 149.299 170.456Z" fill="#F5F4F1"/>
<path d="M108.722 180.463L124.804 180.534C124.966 180.534 125.043 180.615 125.035 180.776C124.913 183.477 124.963 186.107 125.184 188.666L129.358 188.652C129.455 188.652 129.524 188.608 129.563 188.52C130.988 185.33 131.98 181.996 131.963 178.484C131.953 176.548 131.979 174.608 132.039 172.666C132.04 172.627 132.034 172.588 132.02 172.552C132.006 172.515 131.985 172.482 131.958 172.453C131.931 172.425 131.898 172.403 131.862 172.387C131.826 172.372 131.788 172.364 131.749 172.364L109.009 172.367C108.823 172.367 108.73 172.459 108.73 172.644L108.722 180.463Z" fill="#FFA422"/>
<path d="M133.306 172.458H165.465C165.507 172.458 165.542 172.492 165.542 172.534V178.851C165.542 178.893 165.507 178.928 165.465 178.928H133.306C133.264 178.928 133.23 178.893 133.23 178.851V172.534C133.23 172.492 133.264 172.458 133.306 172.458Z" fill="#919B9C"/>
<path d="M108.721 180.463C108.663 185.266 110.896 188.426 115.421 189.945C115.515 189.977 115.603 189.965 115.686 189.908C118.35 188.085 122.053 188.666 125.184 188.666C124.963 186.107 124.913 183.477 125.035 180.776C125.042 180.615 124.965 180.534 124.804 180.534L108.721 180.463Z" fill="#FFC621"/>
<path d="M169.276 188.748C169.279 188.825 169.31 188.905 169.366 188.988C169.42 189.069 169.495 189.118 169.591 189.135C170.565 189.304 171.547 189.363 172.537 189.31C173.297 189.271 173.953 189.649 174.776 189.471C176.651 189.067 178.963 189.307 180.917 189.189C183.341 189.046 185.763 189.086 188.183 189.31C188.192 189.312 188.399 189.309 188.803 189.302C190.025 189.285 190.064 190.843 188.836 190.973C188.697 190.988 188.678 191.045 188.777 191.145C188.862 191.228 188.979 191.268 189.129 191.266C196.308 191.266 203.486 191.279 210.661 191.303C212.387 191.309 213.593 191.789 214.119 193.431C214.157 193.548 214.114 193.606 213.992 193.606L192.227 193.618C192.118 193.689 192.001 193.733 191.875 193.75C191.61 193.784 191.606 193.811 191.864 193.829C191.982 193.839 192.087 193.866 192.179 193.911C192.262 193.949 192.258 193.966 192.168 193.962C192.138 193.96 192.11 193.959 192.083 193.959C192.068 193.959 192.064 193.966 192.072 193.979C192.765 195.481 189.968 195.004 189.416 195.105C188.91 195.2 188.426 195.398 187.966 195.701C187.96 195.705 187.971 195.71 187.997 195.715C188.016 195.719 188.031 195.728 188.042 195.743C188.065 195.775 188.052 195.792 188.003 195.794C187.687 195.804 187.387 195.878 187.102 196.017C187.013 196.06 186.92 196.083 186.823 196.085L184.342 196.136C199.72 196.151 215.096 196.154 230.472 196.144C232.407 196.144 232.187 193.813 230.596 193.804C224.435 193.773 220.12 193.945 216.856 193.635C216.755 193.625 216.694 193.57 216.673 193.468C215.541 187.608 209.78 188.937 205.609 188.867C193.77 188.666 183.618 188.92 169.276 188.748Z" fill="#05070F"/>
<path d="M189.129 191.266L183.979 191.286C183.832 191.286 183.805 191.344 183.897 191.461C184.319 191.988 184.539 192.603 184.556 193.304C184.558 193.386 184.592 193.464 184.65 193.521C184.709 193.578 184.787 193.609 184.868 193.609L192.227 193.618L213.992 193.607C214.115 193.607 214.157 193.548 214.119 193.432C213.593 191.789 212.387 191.309 210.661 191.303C203.486 191.279 196.308 191.266 189.129 191.266Z" fill="#FFC621"/>
<path d="M104.505 196.136L103.756 195.995C103.629 195.972 103.629 195.952 103.756 195.935L103.852 195.921C103.916 195.914 103.919 195.896 103.861 195.868L103.658 195.774C103.587 195.741 103.59 195.724 103.669 195.724H105.407C105.469 195.724 105.477 195.702 105.432 195.659L104.821 195.074C104.751 195.009 104.715 194.929 104.711 194.834C104.692 194.313 104.929 193.955 105.421 193.759C95.2096 193.693 84.9994 193.667 74.7901 193.68C72.7062 193.683 70.1773 193.767 67.6175 193.66C66.5699 193.615 66.0508 194.114 66.0602 195.156C66.0621 195.252 66.0893 195.342 66.1419 195.424L66.5192 196.023C66.5699 196.104 66.6422 196.144 66.7361 196.144L104.505 196.136Z" fill="#05070F"/>
<path d="M145.119 128.324C145.187 129.264 145.321 130.003 145.724 130.809C146.127 131.615 147.48 132.788 147.48 132.788L148.286 134.131C149.853 134.265 153.014 134.534 153.121 134.534C153.228 134.534 154.867 133.952 155.673 133.661L157.274 130.809C157.274 130.809 157.811 129.264 157.878 128.526C157.945 127.787 157.878 127.653 157.744 125.974C157.609 124.295 155.729 122.012 155.595 122.012C155.461 122.012 156.814 120.902 156.747 120.231C156.68 119.559 156.804 118.319 156.736 117.782C156.669 117.245 155.528 115.7 155.528 115.7C155.259 115.544 154.692 115.315 154.531 115.262C154.33 115.194 153.042 114.703 150.166 114.993C147.507 115.262 148.007 115.364 147.403 115.835C146.922 116.208 146.622 117.277 146.465 117.84L146.462 117.849C146.373 118.341 146.272 119.492 146.272 120.096C146.272 120.701 146.809 121.171 146.809 121.171C146.809 121.171 147.268 121.609 147.604 122.012C147.94 122.415 145.791 124.161 145.321 125.907C145.321 125.907 145.052 127.384 145.119 128.324Z" fill="#160F06" fill-opacity="0.1"/>
<path d="M154.629 112.615L154.312 112.374C154.489 112.277 154.597 112.202 154.635 112.149C155.159 111.415 155.845 110.889 156.692 110.571C156.986 110.46 157.888 110.192 158.002 110.669C158.011 110.707 158.006 110.742 157.988 110.776C157.501 111.675 155.544 112.27 154.629 112.615Z" fill="#160F06" fill-opacity="0.1"/>
<path d="M148.612 112.307C148.607 112.447 148.541 112.542 148.412 112.592C147.646 112.416 144.985 111.447 145.04 110.598C145.042 110.56 145.06 110.534 145.094 110.519C146.214 110.023 147.969 111.432 148.612 112.307Z" fill="#160F06" fill-opacity="0.1"/>
<path d="M148.611 112.308C149.143 112.823 149.494 113.552 149.817 114.235L149.507 114.296C149.188 113.698 148.822 113.13 148.411 112.592C148.54 112.542 148.607 112.447 148.611 112.308Z" fill="#160F06" fill-opacity="0.1"/>
<path d="M154.312 112.375L154.629 112.615C154.248 113.133 153.932 113.709 153.682 114.343C153.552 114.361 153.417 114.336 153.277 114.268C153.565 113.604 153.91 112.973 154.312 112.375Z" fill="#160F06" fill-opacity="0.1"/>
<path d="M153.277 114.268C153.417 114.336 153.552 114.362 153.682 114.343C154.41 114.666 155.051 115.123 155.604 115.713C155.609 115.719 155.613 115.726 155.614 115.733C155.615 115.741 155.614 115.749 155.611 115.756C155.608 115.763 155.603 115.769 155.597 115.773C155.59 115.778 155.583 115.78 155.575 115.78H147.545C147.501 115.78 147.493 115.763 147.52 115.73C148.103 115.011 148.804 114.716 149.507 114.296L149.817 114.234C150.974 113.888 152.127 113.899 153.277 114.268Z" fill="#160F06" fill-opacity="0.1"/>
<path d="M146.224 119.365L146.261 119.449C146.223 119.513 146.165 119.543 146.088 119.538C145.79 119.464 145.206 119.299 144.335 119.045C142.194 118.417 139.979 118.047 137.692 117.933C135.493 117.824 133.28 118.222 131.199 118.917C131.1 118.95 130.971 119.079 130.811 119.305C130.79 119.334 130.762 119.349 130.726 119.352C130.605 119.358 130.502 119.315 130.419 119.225C130.917 116.902 135.925 116.718 137.603 116.912C140.602 117.259 143.476 118.077 146.224 119.365Z" fill="#160F06" fill-opacity="0.1"/>
<path d="M172.822 119.056L172.814 119.27C172.813 119.306 172.797 119.334 172.766 119.353C172.63 119.436 172.516 119.431 172.425 119.338C172.13 119.035 171.97 119.052 171.633 118.902C167.468 117.053 162.608 118.148 158.401 119.157C158.148 119.219 157.714 119.252 157.374 119.399C157.259 119.449 157.159 119.427 157.167 119.28C159.627 118.193 162.179 117.441 164.823 117.025C167.151 116.659 169.772 116.78 171.871 117.982C172.329 118.244 172.645 118.602 172.822 119.056Z" fill="#160F06" fill-opacity="0.1"/>
<path d="M156.896 119.365V119.561C156.868 119.781 156.8 119.987 156.691 120.177H146.457L146.261 119.449L146.224 119.365C146.223 118.842 146.294 118.359 146.438 117.915C146.449 117.881 146.471 117.851 146.5 117.829C146.529 117.808 146.564 117.796 146.6 117.797H156.668C156.706 117.797 156.729 117.815 156.738 117.853C156.854 118.354 156.907 118.858 156.896 119.365Z" fill="#160F06" fill-opacity="0.1"/>
<path d="M146.088 119.538C143.688 120.88 140.706 121.521 137.996 121.756C135.744 121.951 133 121.688 131.075 120.382C130.965 120.307 130.887 120.307 130.779 120.378C130.504 120.046 130.384 119.662 130.419 119.225C130.502 119.315 130.605 119.358 130.726 119.352C130.762 119.349 130.79 119.334 130.811 119.305C130.971 119.079 131.1 118.95 131.199 118.917C133.28 118.222 135.493 117.824 137.692 117.933C139.979 118.047 142.194 118.417 144.335 119.045C145.206 119.299 145.79 119.464 146.088 119.538Z" fill="#160F06" fill-opacity="0.1"/>
<path d="M172.821 119.057C172.922 119.642 172.754 120.137 172.317 120.541L172.175 120.459C172.142 120.441 172.111 120.443 172.081 120.465C171.495 120.891 170.797 121.194 169.989 121.375C165.587 122.355 161.123 121.575 157.14 119.589C157.109 119.573 157.076 119.571 157.043 119.583C156.992 119.601 156.943 119.594 156.896 119.561V119.365L157.167 119.281C157.159 119.428 157.259 119.449 157.374 119.4C157.713 119.253 158.148 119.219 158.401 119.158C162.608 118.148 167.468 117.054 171.632 118.902C171.969 119.052 172.129 119.036 172.425 119.338C172.516 119.431 172.629 119.437 172.765 119.354C172.797 119.334 172.813 119.307 172.813 119.271L172.821 119.057Z" fill="#160F06" fill-opacity="0.1"/>
<path d="M146.261 119.449L146.457 120.177L146.45 120.241C145.69 120.615 144.961 120.909 144.262 121.122C142.917 121.535 141.81 121.893 140.939 122.198C139.451 122.404 138.35 122.522 137.636 122.552C135.503 122.644 132.138 122.248 130.779 120.378C130.888 120.307 130.965 120.307 131.076 120.382C133 121.688 135.744 121.95 137.996 121.755C140.706 121.521 143.688 120.879 146.088 119.537C146.165 119.543 146.223 119.513 146.261 119.449Z" fill="#160F06" fill-opacity="0.1"/>
<path d="M156.896 119.561C156.943 119.594 156.992 119.601 157.043 119.583C157.077 119.571 157.109 119.573 157.14 119.589C161.124 121.575 165.587 122.355 169.989 121.374C170.797 121.194 171.495 120.891 172.082 120.465C172.111 120.442 172.143 120.441 172.176 120.459L172.318 120.541C171.667 121.346 170.607 121.808 169.651 122.069C167.178 122.745 164.677 122.65 162.182 122.17C160.59 121.59 158.732 121.059 156.917 120.368C156.84 120.339 156.752 120.344 156.672 120.345L156.692 120.177C156.8 119.986 156.868 119.781 156.896 119.561Z" fill="#160F06" fill-opacity="0.1"/>
<path d="M146.45 120.241C146.509 120.517 146.623 120.775 146.792 121.017L146.657 121.158C144.549 121.707 142.999 122.157 142.008 122.508C140.774 122.947 139.585 123.679 138.44 124.705C138.411 124.731 138.393 124.761 138.385 124.798C138.33 125.028 138.184 125.177 137.948 125.246C137.643 123.501 139.75 122.767 140.939 122.198C141.809 121.893 142.917 121.535 144.262 121.123C144.961 120.909 145.69 120.615 146.45 120.241Z" fill="#160F06" fill-opacity="0.1"/>
<path d="M156.672 120.345C156.752 120.344 156.84 120.339 156.917 120.368C158.732 121.059 160.59 121.589 162.182 122.17C163.328 122.707 164.517 123.142 165.2 124.294L165.152 124.462C165.141 124.498 165.145 124.534 165.162 124.568C165.198 124.641 165.205 124.716 165.183 124.792C165.171 124.833 165.175 124.873 165.195 124.911C165.317 125.142 165.267 125.314 165.044 125.429C165 125.451 164.973 125.438 164.964 125.39C164.911 125.129 164.835 124.936 164.646 124.737C162.835 122.852 160.34 122.08 157.867 121.507C157.473 121.415 157.073 121.347 156.668 121.302C156.578 121.205 156.441 121.156 156.255 121.153C156.448 120.872 156.587 120.603 156.672 120.345Z" fill="#160F06" fill-opacity="0.1"/>
<path d="M146.792 121.017C146.877 121.075 146.901 121.138 146.862 121.205C145.61 123.382 142.889 127.168 139.813 126.742C139.18 126.653 138.674 126.354 138.295 125.843C138.938 126.105 139.594 126.227 140.263 126.209C141.63 126.174 143.125 125.242 143.983 124.23C144.867 123.187 145.758 122.163 146.657 121.158L146.792 121.017Z" fill="#160F06" fill-opacity="0.1"/>
<path d="M146.657 121.158C145.758 122.163 144.867 123.187 143.984 124.23C143.125 125.242 141.63 126.174 140.263 126.209C139.594 126.227 138.938 126.105 138.295 125.843C138.096 125.723 137.98 125.524 137.948 125.246C138.184 125.177 138.33 125.028 138.385 124.798C138.393 124.761 138.411 124.73 138.44 124.705C139.585 123.679 140.774 122.947 142.008 122.508C142.999 122.156 144.549 121.706 146.657 121.158Z" fill="#160F06" fill-opacity="0.1"/>
<path d="M156.255 121.153C156.441 121.156 156.578 121.205 156.668 121.302C158.455 123.512 160.269 126.289 163.384 126.227C163.847 126.218 164.516 126.035 164.9 125.649C164.925 125.624 164.955 125.614 164.99 125.62L165.12 125.643C164.796 126.129 164.394 126.454 163.916 126.618C161.872 127.318 159.715 125.717 158.432 124.208C157.54 123.159 156.815 122.141 156.255 121.153Z" fill="#160F06" fill-opacity="0.1"/>
<path d="M156.668 121.302C157.073 121.347 157.473 121.416 157.867 121.507C160.34 122.08 162.835 122.852 164.646 124.737C164.835 124.936 164.911 125.129 164.963 125.391C164.973 125.438 165 125.451 165.044 125.429C165.266 125.314 165.317 125.142 165.195 124.911C165.175 124.873 165.171 124.833 165.183 124.792C165.205 124.716 165.197 124.641 165.162 124.568C165.144 124.534 165.141 124.498 165.152 124.462L165.2 124.294C165.422 124.761 165.396 125.211 165.12 125.643L164.99 125.62C164.955 125.614 164.925 125.624 164.9 125.649C164.516 126.035 163.847 126.218 163.384 126.227C160.269 126.289 158.455 123.512 156.668 121.302Z" fill="#160F06" fill-opacity="0.1"/>
<path d="M160.11 128.07L160.003 128.103C159.957 127.982 159.892 127.871 159.809 127.771C159.687 127.623 159.624 127.548 159.622 127.544C158.591 126.129 157.325 124.561 155.825 122.84C155.575 122.553 155.388 122.356 155.264 122.248C155.225 122.215 155.228 122.185 155.272 122.159L155.576 121.977C155.61 121.957 155.64 121.962 155.666 121.991C157.346 123.877 158.927 125.842 160.409 127.888C160.417 127.899 160.422 127.912 160.422 127.925C160.423 127.939 160.42 127.952 160.413 127.964C160.407 127.976 160.397 127.985 160.385 127.991C160.373 127.997 160.36 128 160.347 127.999C160.261 127.99 160.183 128.014 160.11 128.07Z" fill="#160F06" fill-opacity="0.1"/>
<path d="M143.126 128.187C143.094 128.123 143.038 128.105 142.958 128.131L142.765 127.897C142.739 127.866 142.738 127.835 142.762 127.802C144.276 125.814 145.865 123.887 147.528 122.022C147.566 121.979 147.607 121.976 147.65 122.013L147.886 122.212C147.922 122.243 147.922 122.273 147.885 122.303C147.741 122.423 147.607 122.553 147.483 122.693C146.003 124.372 144.59 126.106 143.245 127.895C143.222 127.925 143.209 127.958 143.203 127.994C143.192 128.068 143.166 128.132 143.126 128.187Z" fill="#160F06" fill-opacity="0.1"/>
<path d="M145.245 128.584C145.216 128.584 145.188 128.574 145.166 128.554C145.144 128.535 145.129 128.508 145.126 128.479C145.021 127.654 145.075 126.838 145.287 126.032C145.302 125.974 145.336 125.923 145.383 125.886C145.431 125.849 145.489 125.829 145.549 125.828C149.33 125.802 153.083 125.795 156.808 125.806C157.092 125.807 157.376 125.82 157.66 125.846C157.7 125.85 157.725 125.872 157.736 125.911C157.949 126.764 157.999 127.629 157.885 128.505C157.884 128.516 157.878 128.526 157.87 128.534C157.861 128.541 157.85 128.545 157.839 128.545L145.245 128.584Z" fill="#160F06" fill-opacity="0.1"/>
<path d="M160.11 128.07C161.233 129.583 161.611 131.274 161.247 133.146C161.046 133.26 160.854 133.267 160.67 133.167C160.116 131.47 160.067 129.866 160.003 128.103L160.11 128.07Z" fill="#160F06" fill-opacity="0.1"/>
<path d="M142.958 128.13C143.038 128.104 143.094 128.123 143.126 128.186C143.057 129.881 142.964 131.54 142.338 133.139C142.184 133.254 142.024 133.265 141.858 133.172C141.545 131.331 141.912 129.65 142.958 128.13Z" fill="#160F06" fill-opacity="0.1"/>
<path d="M147.336 133.696C147.256 133.626 147.296 133.629 147.403 133.629L155.662 133.618C155.692 133.618 155.697 133.629 155.675 133.651C153.2 136.086 149.856 135.917 147.336 133.696Z" fill="#160F06" fill-opacity="0.1"/>
<path d="M157.274 130.809H145.724C146.358 132.904 147.004 133.562 147.268 133.629H155.682C156.527 133.092 157.076 131.525 157.274 130.809Z" fill="#160F06" fill-opacity="0.1"/>
</g>
<defs>
<filter id="filter0_b_202_223" x="-150" y="-149.059" width="597" height="558" filterUnits="userSpaceOnUse" color-interpolation-filters="sRGB">
<feFlood flood-opacity="0" result="BackgroundImageFix"/>
<feGaussianBlur in="BackgroundImageFix" stdDeviation="75"/>
<feComposite in2="SourceAlpha" operator="in" result="effect1_backgroundBlur_202_223"/>
<feBlend mode="normal" in="SourceGraphic" in2="effect1_backgroundBlur_202_223" result="shape"/>
</filter>
</defs>
</svg>
