<svg width="297" height="259" viewBox="0 0 297 259" fill="none" xmlns="http://www.w3.org/2000/svg">
<g filter="url(#filter0_b_202_213)">
<rect y="0.941467" width="297" height="258" rx="32" fill="#F5F5F5" fill-opacity="0.6"/>
<g filter="url(#filter1_d_202_213)">
<path d="M159.291 48.4305C159.225 60.8677 159.22 73.304 159.277 85.7394C159.283 87.2732 159.173 89.3146 159.227 91.1048C159.236 91.4094 159.108 91.494 158.843 91.3586C158.798 91.3358 158.758 91.3045 158.726 91.2664C158.693 91.2283 158.669 91.1843 158.654 91.1369C158.197 89.6459 157.345 88.456 156.098 87.5671C149.581 81.3226 139.088 84.0267 136.959 92.9084C136.593 94.4617 136.578 96.0204 136.913 97.5844C137.644 100.955 139.461 103.556 142.367 105.389C142.226 105.591 142.276 105.751 142.516 105.87C147.5 108.355 152.167 107.439 156.266 103.952C156.713 103.572 156.975 103.139 157.302 102.661L157.755 102.522C157.79 102.511 157.827 102.51 157.862 102.519C157.898 102.528 157.929 102.547 157.954 102.574C157.979 102.6 157.996 102.634 158.003 102.669C158.01 102.705 158.006 102.742 157.993 102.776C157.476 104.112 156.876 105.272 155.807 106.234C153.019 108.743 149.549 110.386 145.85 110.386C143.171 110.383 139.576 109.961 137.289 108.478C136.374 107.885 135.625 107.171 135.042 106.338C134.589 105.691 134.029 104.688 133.361 103.329C133.371 103.204 133.415 103.124 133.491 103.089C133.568 103.053 133.636 103.065 133.697 103.123C134.075 103.492 134.526 103.721 135.05 103.81C135.146 103.826 135.214 103.79 135.253 103.701C135.349 103.478 135.494 103.361 135.687 103.351C135.759 103.347 135.813 103.316 135.85 103.257C136.532 102.196 136.452 101.782 136.687 100.601C136.701 100.532 136.734 100.522 136.786 100.572L136.887 100.676C136.947 100.735 136.969 100.723 136.951 100.641C136.889 100.355 136.596 99.5616 136.799 99.3425C136.859 99.2766 136.879 99.2009 136.858 99.1154C136.434 97.4962 136.13 96.0533 136.287 94.3005C136.474 92.2431 136.298 89.5818 136.298 88.1843C136.308 75.6865 136.311 63.1887 136.306 50.691C136.306 49.9873 136.218 49.2971 136.042 48.6202C136.019 48.5364 135.965 48.4937 135.879 48.4919C135.792 48.4883 135.711 48.4679 135.637 48.4305C143.343 48.4144 151.049 48.3886 158.755 48.353C158.928 48.353 159.088 48.4465 159.291 48.4305ZM144.198 64.7323C145.535 66.8966 148.169 67.9012 150.349 66.5118C153.862 64.278 152.788 59.3616 148.896 58.429C146.354 57.6916 144.214 58.9928 143.419 61.4457C143.011 62.7087 143.27 63.8042 144.198 64.7323ZM148.287 78.2906C148.963 78.2169 149.581 77.8709 150.006 77.3287C150.431 76.7864 150.627 76.0923 150.552 75.3991C150.477 74.7059 150.137 74.0703 149.606 73.6322C149.074 73.194 148.396 72.9893 147.72 73.0629C147.044 73.1365 146.426 73.4825 146.001 74.0248C145.576 74.567 145.379 75.2611 145.455 75.9543C145.53 76.6476 145.87 77.2832 146.401 77.7213C146.932 78.1594 147.611 78.3642 148.287 78.2906Z" fill="#34302F"/>
<path d="M162.598 48.4304C163.359 48.8401 163.859 49.4823 164.099 50.3569C164.229 54.3355 164.083 58.8351 164.091 62.2606C164.11 72.7616 164.108 83.2616 164.083 93.7607C164.08 95.5937 164.155 97.6084 163.95 99.2677C163.267 104.74 160.471 108.829 155.559 111.535C155.575 111.48 155.575 111.424 155.559 111.369C155.531 111.275 155.471 111.244 155.378 111.278C153.271 112.042 151.925 112.459 151.34 112.529C147.359 112.991 143.294 112.879 139.861 110.741C139.78 110.69 139.712 110.704 139.659 110.784C139.614 110.85 139.603 110.903 139.624 110.944C137.202 109.544 135.292 107.629 133.894 105.199C132.703 103.231 132.018 101.097 131.839 98.7974C131.917 98.8045 131.987 98.825 132.05 98.8589C132.131 98.9052 132.176 98.9747 132.183 99.0673C132.284 100.573 132.677 101.993 133.361 103.329C134.029 104.688 134.59 105.691 135.043 106.338C135.625 107.171 136.374 107.885 137.289 108.478C139.576 109.961 143.172 110.383 145.85 110.386C149.549 110.386 153.019 108.743 155.807 106.234C156.876 105.272 157.476 104.112 157.993 102.776C158.006 102.742 158.01 102.705 158.003 102.669C157.996 102.634 157.979 102.6 157.954 102.574C157.929 102.547 157.898 102.528 157.862 102.519C157.827 102.51 157.79 102.511 157.756 102.522L157.302 102.661C158.205 101.423 158.923 99.811 159.456 97.8248C159.923 96.0844 159.81 94.5338 159.118 93.1729L158.491 91.3613C157.903 89.9701 157.105 88.7053 156.098 87.567C157.345 88.4559 158.197 89.6458 158.654 91.1368C158.669 91.1843 158.694 91.2283 158.726 91.2664C158.758 91.3044 158.798 91.3358 158.843 91.3586C159.108 91.494 159.236 91.4094 159.227 91.1048C159.173 89.3145 159.283 87.2731 159.277 85.7394C159.221 73.304 159.225 60.8676 159.291 48.4304H162.598Z" fill="#232020"/>
<path d="M162.598 48.4304C163.298 48.3075 163.976 48.3039 164.632 48.4197C164.058 48.8989 163.918 49.5001 164.211 50.2233L164.099 50.3569C163.859 49.4823 163.359 48.8401 162.598 48.4304Z" fill="#FFE489"/>
<path d="M189.751 58.0389L190.671 61.1785C190.674 103.939 190.675 146.703 190.674 189.469C190.674 191.083 190.561 192.387 190.335 193.38C189.246 198.162 186.435 201.724 181.902 204.068C179.434 205.348 177.153 205.907 174.349 205.744C174.24 205.688 174.091 205.61 173.963 205.61C162.282 205.628 150.6 205.644 138.918 205.658C138.754 205.658 138.425 205.517 137.929 205.233C138.155 204.207 138.699 203.395 139.563 202.797C140.407 201.965 141.362 201.355 142.428 200.969C143.121 200.718 144.118 200.585 145.421 200.571C154.698 200.469 163.979 200.547 173.256 200.544C174.985 200.542 176.326 200.417 177.278 200.167C180.912 199.218 183.383 196.903 184.693 193.223C185.077 192.138 185.098 190.869 185.197 189.69C185.204 189.603 185.184 189.523 185.138 189.45L184.754 188.833L184.733 182.42C184.749 143.61 184.751 104.801 184.738 65.9934C184.738 63.5459 184.6 61.8304 184.325 60.8472C183.142 56.6281 179.445 53.9775 175.082 53.9775C172.847 53.9775 170.608 53.973 168.366 53.9641C167.001 53.9588 165.868 53.4466 164.965 52.4277C164.466 51.7793 164.214 51.0445 164.211 50.2233C163.917 49.5001 164.058 48.8989 164.632 48.4197C169.182 48.279 173.731 48.3262 178.278 48.5613C178.361 48.5649 178.431 48.5979 178.488 48.6602C178.744 48.9354 179.16 48.9114 179.453 48.9969C184.197 50.3756 187.55 53.6862 189.751 58.0389Z" fill="#020817"/>
<path d="M131.239 48.4304C131.333 48.6727 131.325 48.9007 131.215 49.1144C131.173 49.1999 131.103 49.2427 131.007 49.2427C128.356 49.2035 125.706 49.1901 123.057 49.2026C120.927 49.2115 119.286 49.3522 118.134 49.6248C111.511 51.1906 106.503 57.0022 106.511 63.9146C106.559 105.859 106.453 147.807 106.455 189.752C106.455 194.608 108.329 198.59 112.076 201.698C116.032 205.006 119.472 205.167 124.782 205.191C128.778 205.207 132.777 205.208 136.78 205.193C136.878 205.192 136.938 205.239 136.959 205.335C137.003 205.527 136.962 205.701 136.836 205.856C131.728 205.87 126.62 205.869 121.511 205.853C121.426 205.853 121.347 205.828 121.274 205.779C121.201 205.73 121.121 205.709 121.034 205.714C120.18 205.775 119.34 205.707 118.516 205.511C118.238 205.445 117.737 205.501 117.426 205.231C117.365 205.177 117.295 205.15 117.215 205.148C116.796 205.135 116.398 205.012 116.021 204.777C115.975 204.746 115.932 204.712 115.893 204.672C115.813 204.585 115.714 204.568 115.595 204.622C115.493 204.666 115.415 204.641 115.36 204.547L115.285 204.421C115.239 204.343 115.173 204.313 115.085 204.333C114.956 204.36 114.863 204.321 114.808 204.218C114.766 204.14 114.702 204.092 114.616 204.074C114.162 203.979 113.784 203.753 113.484 203.395C113.425 203.324 113.35 203.283 113.26 203.272C112.988 203.237 112.743 203.14 112.524 202.984C109.297 200.688 106.97 197.065 106.104 193.322C105.973 192.753 105.933 191.948 105.803 191.248C105.747 190.945 105.72 190.668 105.72 190.417C105.72 148.095 105.723 105.772 105.731 63.4497C105.731 63.3766 105.748 63.3107 105.784 63.2519C105.83 63.1771 105.856 63.0961 105.861 63.0088C106.37 55.6662 112.364 49.1438 119.854 48.6415C120.264 48.6148 120.568 48.4331 120.941 48.4304C124.374 48.4126 127.807 48.4126 131.239 48.4304Z" fill="#020817"/>
<path d="M131.239 48.4304L133.02 48.4812C131.122 49.6141 131.711 52.3876 131.695 54.2313C128.817 54.2277 125.938 54.2295 123.06 54.2366C121.59 54.2402 120.487 54.3328 119.75 54.5145C116.154 55.4016 113.321 58.1511 112.388 61.7262C112.076 62.9179 111.983 64.4891 111.983 65.7209C111.981 110.61 111.982 155.5 111.986 200.389L112.076 201.698C108.329 198.59 106.455 194.608 106.455 189.752C106.453 147.807 106.559 105.859 106.511 63.9146C106.503 57.0022 111.511 51.1906 118.134 49.6248C119.286 49.3523 120.927 49.2115 123.057 49.2026C125.706 49.1902 128.356 49.2035 131.007 49.2427C131.103 49.2427 131.173 49.2 131.215 49.1144C131.325 48.9007 131.333 48.6727 131.239 48.4304Z" fill="#020817"/>
<path d="M133.02 48.4812L135.637 48.4304C135.712 48.4678 135.792 48.4883 135.88 48.4919C135.965 48.4937 136.019 48.5364 136.042 48.6201C136.218 49.297 136.306 49.9873 136.306 50.6909C136.311 63.1887 136.309 75.6865 136.298 88.1843C136.298 89.5817 136.474 92.243 136.287 94.3005C136.13 96.0533 136.434 97.4962 136.858 99.1154C136.879 99.2009 136.859 99.2766 136.799 99.3425C136.596 99.5616 136.89 100.355 136.951 100.641C136.969 100.723 136.947 100.735 136.887 100.676L136.786 100.572C136.734 100.522 136.701 100.532 136.687 100.601C136.453 101.782 136.532 102.196 135.85 103.257C135.813 103.316 135.759 103.347 135.688 103.35C135.494 103.361 135.349 103.478 135.253 103.701C135.214 103.79 135.147 103.826 135.051 103.81C134.526 103.721 134.075 103.492 133.697 103.123C133.636 103.065 133.568 103.053 133.491 103.089C133.415 103.124 133.372 103.204 133.361 103.329C132.677 101.993 132.284 100.573 132.183 99.0673C132.176 98.9747 132.131 98.9052 132.05 98.8589C131.987 98.825 131.917 98.8045 131.839 98.7974C131.676 96.3944 131.628 92.8059 131.695 88.032C131.756 83.7621 131.745 75.3828 131.663 62.8939C131.647 60.3742 131.751 57.1197 131.695 54.2313C131.711 52.3876 131.122 49.6141 133.02 48.4812Z" fill="#41403D"/>
<path d="M164.211 50.2233C164.214 51.0445 164.466 51.7793 164.965 52.4277C164.681 52.816 164.54 53.2391 164.544 53.6969C164.668 69.6647 164.652 84.9378 164.496 99.5162C163.739 104.882 161.093 108.955 156.559 111.735C156.239 111.824 155.971 111.998 155.754 112.256C155.692 112.329 155.614 112.36 155.519 112.35C155.274 112.319 155.081 112.398 154.938 112.585C154.889 112.647 154.825 112.686 154.747 112.702C154.228 112.808 153.74 112.986 153.283 113.237C152.82 113.493 152.321 113.365 151.809 113.563C151.024 113.862 150.209 113.995 149.363 113.961C147.568 114.054 145.806 113.835 144.075 113.306C144.039 113.296 144.006 113.276 143.979 113.25C143.952 113.223 143.932 113.19 143.92 113.154C143.864 112.976 143.923 112.859 144.099 112.804C148.084 113.695 151.905 113.272 155.559 111.535C160.471 108.829 163.267 104.74 163.95 99.2677C164.155 97.6084 164.08 95.5937 164.083 93.7607C164.108 83.2616 164.11 72.7616 164.091 62.2606C164.083 58.8351 164.229 54.3355 164.099 50.3569L164.211 50.2233Z" fill="#FDF5C0"/>
<path d="M164.965 52.4277C165.867 53.4467 167.001 53.9588 168.366 53.9641C170.608 53.973 172.847 53.9775 175.082 53.9775C179.445 53.9775 183.142 56.6281 184.325 60.8472C184.6 61.8305 184.738 63.5459 184.738 65.9934C184.751 104.801 184.749 143.61 184.733 182.42C184.687 182.525 184.667 182.643 184.674 182.773C184.681 182.924 184.632 182.945 184.528 182.837C184.341 182.644 184.349 180.395 184.349 179.839C184.34 147.016 184.341 114.193 184.352 81.3707C184.352 75.0381 184.434 68.7215 184.29 62.3862C184.289 62.3025 184.256 62.2339 184.192 62.1805C184.039 62.0558 183.999 61.8982 184.072 61.7076C184.107 61.6167 184.102 61.5285 184.056 61.443C183.797 60.9541 183.32 59.2199 182.92 59.073C182.807 59.032 182.751 59.0721 182.752 59.1932C182.771 60.3529 182.089 60.2299 181.356 60.596C180.832 60.8596 180.32 61.1464 179.821 61.4564C179.748 61.5027 179.669 61.5152 179.584 61.4938C179.457 61.4617 179.356 61.5045 179.28 61.622C179.191 61.761 179.229 61.8331 179.394 61.8385L179.682 61.8492C179.748 61.8509 179.752 61.8705 179.695 61.908C179.336 62.1351 179.821 64.0349 179.831 64.3635C179.87 65.3504 179.889 66.7656 179.887 68.6093C179.864 86.1589 179.863 126.694 179.885 190.214C179.885 190.473 179.73 190.535 179.786 190.815C179.916 191.467 179.817 192.076 179.49 192.64C179.485 192.608 179.48 192.575 179.477 192.541C179.468 192.484 179.434 192.453 179.376 192.448C179.347 192.446 179.319 192.444 179.29 192.44C180.338 188.606 176.372 188.819 174.016 188.91L136.37 188.908C131.231 188.892 126.093 188.893 120.954 188.913C118.822 188.918 117.233 189.167 117.236 191.638C116.959 192.02 117.002 192.428 117.367 192.865C118.793 194.575 119.909 194.423 122.311 194.42C134.926 194.404 147.541 194.408 160.157 194.433C163.206 194.485 166.254 194.55 169.301 194.628C171.137 194.676 173.629 194.938 175.892 194.66C175.988 194.65 176.081 194.664 176.172 194.703L177.547 195.296C177.636 195.335 177.727 195.344 177.819 195.32C178.379 195.179 178.995 196.101 179.576 196.384C179.654 196.421 179.664 196.473 179.608 196.539L179.096 197.135C179.03 197.211 179.047 197.25 179.146 197.25H179.474C179.545 197.25 179.562 197.28 179.525 197.34C179.386 197.576 179.192 197.725 178.941 197.789C178.874 197.807 178.816 197.842 178.768 197.893L178.238 198.476C178.211 198.504 178.217 198.519 178.256 198.519C178.294 198.519 178.331 198.519 178.368 198.519C178.427 198.519 178.441 198.545 178.411 198.596L178.366 198.671C178.339 198.719 178.35 198.732 178.4 198.711C178.569 198.645 178.696 198.68 178.781 198.815C178.842 198.908 178.918 198.925 179.011 198.866C179.759 198.382 180.612 198.014 181.313 197.463C181.564 197.267 181.826 197.085 182.099 196.916C179.693 199.491 176.91 200.191 173.416 200.191C163.761 200.186 154.105 200.187 144.448 200.194C143.572 200.194 142.593 200.459 141.511 200.99C141.577 200.727 141.73 200.545 141.972 200.445C142.079 200.402 142.086 200.391 141.993 200.411C141.281 200.56 140.472 200.637 139.568 200.64C130.879 200.676 122.19 200.669 113.5 200.619C113.041 200.616 112.524 200.405 111.986 200.389C111.982 155.5 111.981 110.61 111.983 65.7209C111.983 64.4891 112.076 62.918 112.388 61.7263C113.321 58.1511 116.154 55.4017 119.749 54.5146C120.487 54.3329 121.59 54.2402 123.06 54.2367C125.938 54.2295 128.817 54.2278 131.695 54.2313C131.751 57.1197 131.647 60.3742 131.663 62.8939C131.745 75.3828 131.755 83.7621 131.695 88.032C131.627 92.8059 131.675 96.3944 131.839 98.7974C132.018 101.097 132.703 103.231 133.894 105.2C133.839 105.253 133.799 105.307 133.774 105.362C133.74 105.441 133.744 105.517 133.787 105.592C134.688 107.183 135.828 108.577 137.207 109.774C138.74 111.103 139.773 111.892 140.306 112.141C143.038 113.421 146.407 114.455 149.363 113.961C150.208 113.995 151.024 113.862 151.809 113.563C152.321 113.365 152.819 113.493 153.283 113.237C153.74 112.986 154.228 112.808 154.746 112.702C154.825 112.686 154.889 112.647 154.938 112.585C155.08 112.398 155.274 112.319 155.519 112.35C155.613 112.36 155.692 112.329 155.754 112.256C155.971 111.998 156.239 111.824 156.559 111.735C157.253 111.689 157.83 111.418 158.288 110.923C158.29 110.921 158.359 110.884 158.494 110.811C158.616 110.744 158.744 110.741 158.845 110.656C161.084 108.751 162.726 106.426 163.771 103.679C163.899 103.34 163.955 102.864 164.133 102.469C164.538 101.584 164.453 100.478 164.496 99.5162C164.652 84.9378 164.668 69.6647 164.544 53.6969C164.54 53.2391 164.681 52.8161 164.965 52.4277ZM145.109 177.21C145.41 178.091 146.428 178.268 146.991 179.005C147.436 179.59 147.894 179.879 148.377 180.357C148.458 180.437 148.552 180.457 148.659 180.416C149.02 180.273 149.247 179.996 149.341 179.585C149.361 179.492 149.356 179.402 149.328 179.312C148.958 178.172 150.618 178.196 151.226 178.075C151.311 178.058 151.374 178.01 151.415 177.934C151.703 177.39 151.624 177.104 151.178 177.073C151.282 176.758 151.31 176.439 151.26 176.117C151.248 176.026 151.196 175.972 151.106 175.956C150.5 175.85 149.897 175.849 149.296 175.954C149.249 175.962 149.2 175.96 149.154 175.947C149.108 175.934 149.065 175.911 149.029 175.88C148.992 175.848 148.964 175.809 148.944 175.765C148.925 175.721 148.916 175.673 148.918 175.625L148.979 173.888C148.984 173.783 148.935 173.718 148.832 173.693C148.461 173.604 148.114 173.63 147.79 173.771C147.685 173.815 147.633 173.895 147.633 174.011L147.63 175.729C147.628 175.854 147.565 175.918 147.441 175.922L145.418 175.983C145.333 175.987 145.266 176.024 145.218 176.095C144.998 176.436 144.961 176.807 145.109 177.21Z" fill="#FFC621"/>
<path d="M148.896 58.429C145.344 58.1939 142.852 61.3388 144.198 64.7323C143.27 63.8042 143.011 62.7087 143.419 61.4457C144.214 58.9928 146.354 57.6916 148.896 58.429Z" fill="#41403D"/>
<path d="M148.896 58.429C152.788 59.3616 153.862 64.278 150.349 66.5118C148.169 67.9012 145.535 66.8966 144.198 64.7323C142.852 61.3388 145.344 58.1939 148.896 58.429Z" fill="#F5F4F1"/>
<path d="M184.733 182.42L184.754 188.833C185.022 191.957 184.138 194.651 182.1 196.916C181.826 197.085 181.564 197.267 181.313 197.463C180.612 198.014 179.76 198.382 179.011 198.866C178.918 198.925 178.842 198.908 178.781 198.815C178.696 198.68 178.569 198.645 178.4 198.711C178.351 198.732 178.339 198.719 178.366 198.671L178.411 198.596C178.441 198.545 178.427 198.519 178.368 198.519C178.331 198.519 178.294 198.519 178.256 198.519C178.217 198.519 178.211 198.504 178.238 198.476L178.768 197.893C178.816 197.842 178.874 197.807 178.941 197.789C179.192 197.725 179.386 197.576 179.525 197.34C179.562 197.28 179.545 197.25 179.474 197.25H179.147C179.047 197.25 179.03 197.211 179.096 197.135L179.608 196.539C179.664 196.473 179.654 196.421 179.576 196.384C178.995 196.101 178.379 195.179 177.819 195.32C177.727 195.344 177.636 195.335 177.547 195.296L176.172 194.703C176.082 194.664 175.988 194.65 175.892 194.66C173.63 194.938 171.138 194.676 169.301 194.628C166.254 194.55 163.206 194.485 160.157 194.433C165.477 194.089 170.943 194.396 176.276 194.447C177.73 194.461 178.801 193.859 179.49 192.64C179.817 192.076 179.916 191.467 179.786 190.815C179.73 190.535 179.885 190.473 179.885 190.214C179.863 126.694 179.864 86.1589 179.887 68.6093C179.889 66.7656 179.871 65.3504 179.832 64.3635C179.821 64.0348 179.336 62.1351 179.696 61.9079C179.752 61.8705 179.748 61.8509 179.682 61.8492L179.394 61.8385C179.229 61.8331 179.191 61.761 179.28 61.622C179.356 61.5045 179.458 61.4617 179.584 61.4938C179.669 61.5152 179.748 61.5027 179.821 61.4564C180.32 61.1464 180.832 60.8596 181.356 60.596C182.089 60.2299 182.771 60.3528 182.753 59.1932C182.751 59.0721 182.807 59.032 182.921 59.073C183.32 59.2199 183.797 60.954 184.056 61.443C184.102 61.5285 184.107 61.6167 184.072 61.7075C183.999 61.8981 184.039 62.0558 184.192 62.1805C184.256 62.2339 184.289 62.3025 184.29 62.3862C184.434 68.7215 184.352 75.0381 184.352 81.3707C184.341 114.193 184.34 147.016 184.349 179.839C184.349 180.395 184.341 182.644 184.528 182.837C184.632 182.945 184.681 182.924 184.674 182.773C184.667 182.643 184.687 182.525 184.733 182.42Z" fill="#FFA422"/>
<path d="M145.454 75.9543C145.611 77.3979 146.879 78.4439 148.287 78.2905C149.694 78.1372 150.709 76.8427 150.552 75.3991C150.396 73.9555 149.128 72.9095 147.72 73.0628C146.312 73.2161 145.298 74.5107 145.454 75.9543Z" fill="#F5F4F1"/>
<path d="M156.098 87.5671C157.105 88.7053 157.903 89.9701 158.491 91.3613L158.334 91.38C158.259 91.3871 158.208 91.3559 158.179 91.2865C157.249 88.9886 155.549 87.0113 153.27 86.0093C152.175 85.5257 151.143 84.9859 150.016 84.7909C144.152 83.7782 138.595 87.2919 137.292 93.1756L137.113 93.1782C137.025 93.1782 136.977 93.1337 136.97 93.0446L136.959 92.9084C139.088 84.0267 149.581 81.3226 156.098 87.5671Z" fill="#FDF5C0"/>
<path d="M158.491 91.3612L159.117 93.1728C160.901 102.888 151.066 110.244 142.367 105.389C139.462 103.556 137.644 100.955 136.914 97.5843C136.956 97.5077 137.018 97.4596 137.097 97.44C137.176 97.4222 137.208 97.3741 137.193 97.2957C136.961 95.917 136.994 94.5436 137.292 93.1755C138.595 87.2918 144.152 83.7781 150.016 84.7908C151.143 84.9859 152.175 85.5256 153.27 86.0092C155.549 87.0112 157.249 88.9885 158.179 91.2864C158.208 91.3559 158.259 91.3871 158.334 91.3799L158.491 91.3612ZM138.558 96.4487C138.274 96.7391 138.204 97.1105 138.347 97.5629C138.875 99.2356 139.517 100.943 140.69 102.127C141.852 103.468 143.502 104.334 145.232 105.01C145.603 105.484 146.114 105.632 146.764 105.456L148.896 105.523C149.58 105.614 150.225 105.487 150.829 105.143C154.829 103.663 157.561 100.764 157.889 96.3124C157.928 95.778 157.9 95.2427 157.806 94.7066C157.79 94.6175 157.737 94.5747 157.646 94.5783C157.568 94.5819 157.513 94.6264 157.481 94.7119L157.116 93.1915C155.893 87.8529 150.28 84.8923 145.261 86.4849C140.802 87.901 138.265 91.6739 138.558 96.4487Z" fill="#F8B805"/>
<path d="M157.116 93.1916C156.659 91.8788 156.003 90.6987 155.146 89.6512C153.63 87.7969 150.898 86.6479 148.542 86.5811C146.703 86.525 145.802 86.7414 144.056 87.4549C143.177 87.8147 142.479 88.2253 141.962 88.6866C140.685 89.8222 139.558 91.4655 139.262 93.1943C139.081 94.2604 138.798 95.2704 138.857 96.2671C138.963 98.1339 139.654 99.7611 140.93 101.149C140.98 101.204 141.013 101.267 141.029 101.339C141.038 101.381 141.058 101.425 141.09 101.469C143.022 104.093 146.397 105.047 149.379 104.577C149.47 104.563 149.523 104.601 149.539 104.692L149.563 104.839C146.134 105.306 143.246 104.309 140.901 101.849C139.57 100.292 138.789 98.492 138.558 96.4488C138.265 91.6739 140.802 87.9011 145.261 86.4849C150.28 84.8924 155.893 87.853 157.116 93.1916Z" fill="#160F06"/>
<path d="M157.116 93.1916L157.481 94.712C157.476 100.188 154.836 103.563 149.563 104.839L149.539 104.692C149.523 104.601 149.469 104.563 149.379 104.577C146.396 105.047 143.022 104.093 141.09 101.469C141.058 101.425 141.037 101.381 141.029 101.339C141.013 101.267 140.98 101.204 140.93 101.149C139.654 99.7612 138.963 98.1339 138.856 96.2671C138.798 95.2704 139.08 94.2604 139.262 93.1943C139.557 91.4655 140.685 89.8222 141.961 88.6867C142.478 88.2253 143.177 87.8147 144.056 87.4549C145.802 86.7414 146.703 86.525 148.542 86.5811C150.898 86.6479 153.63 87.7969 155.146 89.6512C156.003 90.6987 156.659 91.8788 157.116 93.1916Z" fill="#34302F"/>
<path d="M136.959 92.9084L136.97 93.0447C136.977 93.1338 137.025 93.1783 137.114 93.1783L137.292 93.1756C136.994 94.5437 136.961 95.9171 137.194 97.2959C137.208 97.3742 137.176 97.4223 137.098 97.4401C137.018 97.4597 136.956 97.5078 136.914 97.5844C136.578 96.0204 136.593 94.4618 136.959 92.9084Z" fill="#FFE489"/>
<path d="M159.118 93.1729C159.811 94.5338 159.923 96.0845 159.456 97.8248C158.923 99.811 158.205 101.423 157.303 102.661C156.975 103.139 156.714 103.572 156.266 103.952C152.167 107.439 147.5 108.355 142.516 105.87C142.276 105.751 142.226 105.591 142.367 105.389C151.066 110.244 160.901 102.888 159.118 93.1729Z" fill="#160F06"/>
<path d="M150.829 105.143C150.157 105.145 149.513 105.272 148.896 105.523L146.764 105.456C146.302 105.16 145.791 105.012 145.232 105.01C143.502 104.334 141.852 103.468 140.69 102.127L140.901 101.849C143.246 104.309 146.133 105.305 149.563 104.839C154.836 103.563 157.476 100.188 157.481 94.7119C157.513 94.6264 157.568 94.5819 157.646 94.5783C157.737 94.5748 157.79 94.6175 157.806 94.7066C157.9 95.2428 157.928 95.7781 157.889 96.3125C157.561 100.764 154.829 103.663 150.829 105.143Z" fill="#FDF5C0"/>
<path d="M138.558 96.4488C138.789 98.492 139.57 100.292 140.901 101.849L140.69 102.127C139.517 100.943 138.875 99.2357 138.347 97.563C138.203 97.1106 138.274 96.7391 138.558 96.4488Z" fill="#FFE489"/>
<path d="M164.496 99.5162C164.453 100.478 164.539 101.584 164.133 102.469C163.955 102.864 163.899 103.34 163.771 103.679C162.726 106.426 161.084 108.751 158.846 110.656C158.744 110.741 158.616 110.744 158.494 110.811C158.359 110.884 158.29 110.921 158.289 110.923C157.83 111.418 157.254 111.689 156.559 111.735C161.093 108.955 163.739 104.882 164.496 99.5162Z" fill="#FFE489"/>
<path d="M145.232 105.01C145.791 105.012 146.302 105.16 146.764 105.456C146.114 105.632 145.603 105.484 145.232 105.01Z" fill="#FFE489"/>
<path d="M150.829 105.143C150.224 105.487 149.58 105.614 148.896 105.523C149.513 105.272 150.157 105.145 150.829 105.143Z" fill="#FFE489"/>
<path d="M133.894 105.199C135.292 107.629 137.202 109.544 139.624 110.944C141.014 111.805 142.505 112.425 144.099 112.804C143.923 112.859 143.864 112.976 143.921 113.154C143.932 113.19 143.952 113.223 143.979 113.25C144.006 113.276 144.039 113.296 144.075 113.306C145.806 113.835 147.568 114.054 149.363 113.961C146.407 114.455 143.038 113.421 140.306 112.141C139.773 111.892 138.74 111.103 137.207 109.774C135.828 108.577 134.688 107.183 133.787 105.592C133.745 105.517 133.74 105.441 133.774 105.362C133.799 105.307 133.839 105.253 133.894 105.199Z" fill="#FFE489"/>
<path d="M155.559 111.535C151.904 113.272 148.084 113.695 144.099 112.804C142.505 112.425 141.013 111.805 139.624 110.944C139.603 110.903 139.614 110.85 139.659 110.784C139.712 110.704 139.779 110.69 139.861 110.741C143.294 112.879 147.358 112.991 151.34 112.529C151.925 112.459 153.271 112.043 155.378 111.278C155.47 111.245 155.531 111.275 155.559 111.369C155.575 111.424 155.575 111.48 155.559 111.535Z" fill="#160F06"/>
<path d="M151.178 177.073C150.529 177.424 149.852 177.469 149.147 177.207C149.126 177.199 149.104 177.196 149.082 177.199C149.06 177.202 149.04 177.21 149.021 177.223C149.003 177.235 148.989 177.252 148.978 177.272C148.968 177.291 148.963 177.313 148.963 177.335L148.961 179.374C148.961 179.504 148.897 179.565 148.769 179.558L147.74 179.507C147.623 179.502 147.564 179.441 147.564 179.323V177.536C147.564 177.438 147.516 177.381 147.42 177.367C146.591 177.242 145.986 177.56 145.109 177.21C144.962 176.807 144.998 176.436 145.219 176.095C145.267 176.024 145.333 175.987 145.418 175.983L147.441 175.922C147.566 175.918 147.629 175.854 147.631 175.729L147.633 174.011C147.633 173.895 147.686 173.815 147.79 173.771C148.114 173.63 148.461 173.604 148.833 173.693C148.936 173.718 148.984 173.783 148.979 173.888L148.918 175.625C148.916 175.673 148.926 175.721 148.945 175.765C148.964 175.809 148.993 175.848 149.029 175.88C149.065 175.911 149.108 175.934 149.154 175.947C149.201 175.96 149.249 175.962 149.296 175.954C149.897 175.849 150.5 175.85 151.106 175.956C151.197 175.972 151.248 176.026 151.261 176.117C151.31 176.439 151.283 176.758 151.178 177.073Z" fill="#FDF5C0"/>
<path d="M145.109 177.21C145.986 177.56 146.591 177.242 147.42 177.367C147.516 177.382 147.564 177.438 147.564 177.536V179.323C147.564 179.441 147.622 179.502 147.74 179.508L148.768 179.558C148.896 179.565 148.96 179.504 148.96 179.374L148.963 177.335C148.963 177.313 148.968 177.291 148.978 177.272C148.988 177.252 149.003 177.235 149.021 177.223C149.039 177.21 149.06 177.202 149.082 177.199C149.104 177.197 149.126 177.199 149.147 177.207C149.852 177.469 150.529 177.424 151.178 177.073C151.624 177.104 151.703 177.39 151.415 177.934C151.374 178.01 151.311 178.058 151.226 178.075C150.618 178.196 148.958 178.172 149.328 179.312C149.357 179.402 149.361 179.492 149.341 179.585C149.247 179.997 149.02 180.274 148.659 180.416C148.553 180.457 148.458 180.437 148.377 180.357C147.894 179.879 147.436 179.59 146.991 179.005C146.428 178.268 145.41 178.091 145.109 177.21Z" fill="#F8B805"/>
<path d="M184.754 188.833L185.138 189.45C185.184 189.523 185.204 189.603 185.197 189.69C185.098 190.869 185.077 192.138 184.693 193.223C183.383 196.903 180.912 199.218 177.278 200.167C176.326 200.417 174.985 200.542 173.256 200.544C163.979 200.547 154.699 200.469 145.421 200.571C144.119 200.585 143.121 200.718 142.428 200.969C141.362 201.355 140.407 201.965 139.563 202.797C140.057 202.013 140.706 201.411 141.511 200.99C142.593 200.459 143.572 200.194 144.448 200.194C154.105 200.187 163.761 200.186 173.416 200.191C176.91 200.191 179.693 199.491 182.1 196.916C184.138 194.651 185.022 191.957 184.754 188.833Z" fill="#160F06"/>
<path d="M136.37 188.908C135.632 189.401 134.817 189.679 133.923 189.741C133.811 189.748 133.76 189.808 133.769 189.92L133.782 190.065C133.791 190.195 133.857 190.243 133.982 190.209C134.545 190.057 134.897 190.241 135.037 190.759H130.107C130.024 190.396 131.047 189.99 130.112 189.698C128.946 189.333 127.764 189.183 126.565 189.247C124.243 189.37 122.367 189.343 119.646 189.292C118.816 189.276 118.206 189.622 117.815 190.329C117.689 190.556 117.673 190.855 117.497 191.107C117.448 191.178 117.427 191.257 117.436 191.344C117.708 194.024 119.995 193.535 121.844 193.498L128.974 193.519C129.319 193.521 129.431 193.653 129.31 193.915C126.481 193.91 123.655 193.908 120.832 193.91C118.921 193.91 117.569 193.688 117.236 191.638C117.234 189.167 118.822 188.918 120.954 188.913C126.093 188.893 131.231 188.892 136.37 188.908Z" fill="#160F06"/>
<path d="M136.37 188.908L174.016 188.91C173.913 188.953 173.805 188.973 173.691 188.969C173.597 188.967 173.57 189.009 173.611 189.095L173.683 189.242C173.717 189.309 173.771 189.342 173.845 189.34C175.77 189.298 180.106 188.651 178.939 192.357C178.781 192.865 178.45 193.178 177.947 193.298C177.826 193.161 177.693 193.097 177.547 193.108C174.376 193.338 171.2 193.423 168.019 193.364C167.326 193.455 166.779 193.266 166.378 192.795C166.322 192.729 166.254 192.684 166.172 192.659C165.918 192.579 165.717 192.426 165.567 192.199C165.518 192.123 165.446 192.081 165.354 192.074C165.198 192.061 165.131 191.964 165.154 191.783L177.065 191.689C177.159 191.689 177.22 191.645 177.249 191.556C177.398 191.091 177.257 190.797 176.745 190.794C172.058 190.783 167.373 190.757 162.689 190.714C155.649 190.552 148.609 190.545 141.567 190.692L135.037 190.759C134.897 190.241 134.545 190.057 133.982 190.209C133.857 190.243 133.791 190.195 133.782 190.065L133.769 189.92C133.76 189.808 133.811 189.748 133.923 189.741C134.817 189.679 135.632 189.401 136.37 188.908Z" fill="#232020"/>
<path d="M174.016 188.91C176.372 188.819 180.338 188.606 179.291 192.44C178.688 193.669 177.39 193.918 176.148 193.918C173.838 193.919 171.529 193.913 169.219 193.899L169.184 193.739C169.179 193.717 169.188 193.707 169.211 193.709C169.234 193.709 169.259 193.71 169.285 193.712C169.344 193.715 169.358 193.692 169.328 193.642C169.298 193.591 169.261 193.55 169.219 193.519C171.852 193.51 174.485 193.502 177.118 193.493C177.388 193.493 177.689 193.38 177.947 193.298C178.45 193.178 178.781 192.865 178.939 192.357C180.106 188.651 175.77 189.298 173.846 189.34C173.771 189.342 173.717 189.309 173.683 189.242L173.611 189.095C173.57 189.009 173.597 188.967 173.691 188.969C173.805 188.973 173.913 188.953 174.016 188.91Z" fill="#160F06"/>
<path d="M130.107 190.759L119.595 190.733C119.456 190.733 119.391 190.802 119.398 190.941L119.424 191.534C119.428 191.621 119.474 191.666 119.563 191.668L143.766 191.895L145.498 191.916C146.25 192.173 145.983 193.108 145.2 192.972C145.111 192.957 145.027 192.971 144.947 193.012C144.493 193.254 144.011 193.356 143.499 193.319L134.845 193.372C134.753 193.372 134.749 193.39 134.835 193.426C134.909 193.458 134.994 193.475 135.088 193.477C137.735 193.528 140.384 193.52 143.033 193.453L144.92 193.57C144.931 193.57 144.942 193.571 144.953 193.575C144.963 193.579 144.973 193.585 144.981 193.592C144.99 193.6 144.996 193.609 145.001 193.619C145.006 193.629 145.009 193.64 145.009 193.652C145.01 193.663 145.008 193.674 145.004 193.685C145 193.695 144.995 193.705 144.987 193.713C144.979 193.722 144.97 193.728 144.96 193.733C144.95 193.738 144.939 193.741 144.928 193.741L143.499 193.966L129.31 193.915C129.431 193.653 129.319 193.521 128.974 193.519C129.166 193.564 129.332 193.545 129.472 193.463C129.593 193.392 129.584 193.356 129.446 193.356L121.642 193.367C121.507 193.369 121.504 193.39 121.634 193.431L121.844 193.498C119.995 193.535 117.708 194.024 117.436 191.344C117.427 191.257 117.448 191.178 117.497 191.107C117.673 190.855 117.689 190.556 117.815 190.329C118.206 189.622 118.816 189.276 119.646 189.292C122.367 189.343 124.243 189.37 126.565 189.247C127.764 189.183 128.946 189.333 130.112 189.698C131.047 189.99 130.024 190.396 130.107 190.759Z" fill="#232020"/>
<path d="M162.689 190.714C162.481 190.92 162.339 191.167 162.262 191.454C162.246 191.516 162.267 191.562 162.324 191.59C162.39 191.622 162.401 191.681 162.358 191.767L145.498 191.916L143.766 191.895C143.672 191.601 143.676 191.31 143.779 191.021C143.817 190.92 143.783 190.856 143.678 190.831C142.989 190.666 142.285 190.619 141.567 190.692C148.609 190.545 155.649 190.552 162.689 190.714Z" fill="#686661"/>
<path d="M130.107 190.759H135.037L141.567 190.692C142.285 190.619 142.989 190.666 143.678 190.831C143.783 190.856 143.817 190.92 143.779 191.021C143.676 191.31 143.672 191.601 143.766 191.895L119.563 191.668C119.474 191.666 119.428 191.621 119.424 191.534L119.398 190.941C119.391 190.802 119.456 190.733 119.595 190.733L130.107 190.759Z" fill="#8E8374"/>
<path d="M162.689 190.714C167.373 190.757 172.058 190.783 176.745 190.794C177.257 190.797 177.398 191.091 177.249 191.556C177.221 191.645 177.159 191.689 177.065 191.689L165.154 191.783L162.359 191.767C162.401 191.681 162.39 191.622 162.324 191.59C162.267 191.562 162.247 191.516 162.263 191.454C162.339 191.167 162.481 190.921 162.689 190.714Z" fill="#8E8374"/>
<path d="M117.236 191.638C117.569 193.688 118.921 193.91 120.832 193.91C123.655 193.908 126.481 193.91 129.31 193.915L143.499 193.966L169.219 193.899C171.529 193.913 173.838 193.919 176.148 193.918C177.39 193.918 178.688 193.669 179.291 192.44C179.319 192.444 179.347 192.446 179.376 192.448C179.434 192.453 179.468 192.485 179.477 192.542C179.481 192.575 179.485 192.608 179.49 192.64C178.801 193.859 177.73 194.461 176.276 194.447C170.943 194.396 165.477 194.089 160.157 194.433C147.542 194.408 134.926 194.404 122.311 194.42C119.91 194.423 118.793 194.575 117.367 192.865C117.003 192.428 116.959 192.02 117.236 191.638Z" fill="#FDF5C0"/>
<path d="M162.358 191.767L165.154 191.783C165.131 191.964 165.198 192.061 165.354 192.074C165.447 192.081 165.518 192.123 165.567 192.199C165.717 192.426 165.918 192.579 166.172 192.659C166.254 192.684 166.323 192.729 166.378 192.795C166.779 193.266 167.326 193.455 168.019 193.364C168.378 193.534 168.778 193.585 169.219 193.519C169.261 193.55 169.298 193.591 169.328 193.642C169.358 193.692 169.344 193.715 169.285 193.712C169.259 193.71 169.234 193.709 169.211 193.709C169.188 193.707 169.179 193.717 169.184 193.739L169.219 193.899L143.499 193.966L144.928 193.741C144.939 193.741 144.95 193.738 144.96 193.733C144.97 193.728 144.98 193.722 144.987 193.713C144.995 193.705 145 193.695 145.004 193.685C145.008 193.674 145.01 193.663 145.009 193.652C145.009 193.64 145.006 193.629 145.001 193.619C144.996 193.609 144.99 193.6 144.981 193.592C144.973 193.585 144.963 193.579 144.953 193.575C144.942 193.571 144.931 193.57 144.92 193.57L143.033 193.453L143.822 193.442C143.991 193.438 143.992 193.42 143.827 193.386L143.499 193.319C144.011 193.356 144.494 193.254 144.947 193.012C145.027 192.971 145.111 192.957 145.2 192.972C145.983 193.108 146.25 192.173 145.498 191.916L162.358 191.767Z" fill="#331E1F"/>
<path d="M177.947 193.298C177.689 193.381 177.388 193.493 177.118 193.493C174.485 193.502 171.852 193.511 169.219 193.519C168.778 193.585 168.378 193.534 168.019 193.364C171.2 193.423 174.376 193.338 177.547 193.108C177.693 193.097 177.826 193.161 177.947 193.298Z" fill="#41403D"/>
<path d="M128.974 193.519L121.845 193.498L121.634 193.431C121.504 193.39 121.507 193.369 121.642 193.367L129.446 193.356C129.584 193.356 129.593 193.392 129.472 193.463C129.332 193.545 129.166 193.564 128.974 193.519Z" fill="#41403D"/>
<path d="M143.499 193.319L143.827 193.386C143.992 193.42 143.991 193.438 143.822 193.442L143.033 193.453C140.384 193.52 137.735 193.528 135.088 193.477C134.994 193.475 134.909 193.458 134.835 193.426C134.749 193.39 134.753 193.373 134.845 193.373L143.499 193.319Z" fill="#41403D"/>
<path d="M141.511 200.99C140.706 201.411 140.057 202.013 139.563 202.797C138.699 203.395 138.155 204.207 137.929 205.233C138.027 205.508 138.173 205.715 138.369 205.856H136.836C136.962 205.701 137.003 205.527 136.959 205.335C136.938 205.239 136.878 205.192 136.78 205.193C132.777 205.208 128.778 205.207 124.781 205.191C119.472 205.167 116.032 205.006 112.076 201.698L111.986 200.389C112.524 200.405 113.041 200.616 113.5 200.619C122.19 200.669 130.879 200.676 139.568 200.64C140.472 200.637 141.281 200.56 141.993 200.411C142.086 200.391 142.079 200.403 141.972 200.445C141.73 200.545 141.577 200.727 141.511 200.99Z" fill="#FFA422"/>
<path d="M174.349 205.744C174.241 205.826 174.041 205.867 173.749 205.867C161.957 205.872 150.163 205.868 138.369 205.856C138.173 205.715 138.027 205.508 137.929 205.233C138.425 205.517 138.754 205.658 138.918 205.658C150.6 205.644 162.282 205.628 173.963 205.61C174.091 205.61 174.24 205.688 174.349 205.744Z" fill="#160F06"/>
</g>
</g>
<defs>
<filter id="filter0_b_202_213" x="-150" y="-149.059" width="597" height="558" filterUnits="userSpaceOnUse" color-interpolation-filters="sRGB">
<feFlood flood-opacity="0" result="BackgroundImageFix"/>
<feGaussianBlur in="BackgroundImageFix" stdDeviation="75"/>
<feComposite in2="SourceAlpha" operator="in" result="effect1_backgroundBlur_202_213"/>
<feBlend mode="normal" in="SourceGraphic" in2="effect1_backgroundBlur_202_213" result="shape"/>
</filter>
<filter id="filter1_d_202_213" x="77" y="36.4626" width="144.992" height="194.238" filterUnits="userSpaceOnUse" color-interpolation-filters="sRGB">
<feFlood flood-opacity="0" result="BackgroundImageFix"/>
<feColorMatrix in="SourceAlpha" type="matrix" values="0 0 0 0 0 0 0 0 0 0 0 0 0 0 0 0 0 0 127 0" result="hardAlpha"/>
<feOffset dy="4"/>
<feGaussianBlur stdDeviation="2"/>
<feComposite in2="hardAlpha" operator="out"/>
<feColorMatrix type="matrix" values="0 0 0 0 0 0 0 0 0 0 0 0 0 0 0 0 0 0 0.25 0"/>
<feBlend mode="normal" in2="BackgroundImageFix" result="effect1_dropShadow_202_213"/>
<feBlend mode="normal" in="SourceGraphic" in2="effect1_dropShadow_202_213" result="shape"/>
</filter>
</defs>
</svg>
