<svg width="477" height="399" viewBox="0 0 477 399" fill="none" xmlns="http://www.w3.org/2000/svg">
<path d="M415.44 161.33L415.43 155.46C415.423 155.1 415.28 154.813 415 154.6C364.387 116.647 313.69 78.8099 262.91 41.0899C258.69 37.9566 254.45 34.8699 250.19 31.8299C242.41 26.2699 237.09 30.4499 230.67 35.1599C177.323 74.2399 123.95 113.283 70.55 152.29C65.77 155.78 67.6 161.91 67.58 167.25" stroke="#D9A11D" stroke-width="2"/>
<path d="M67.58 167.25C62.0066 166.556 56.1766 166.293 50.09 166.46" stroke="#FAD426" stroke-width="2"/>
<path d="M421.56 360.29L417.76 356.92" stroke="#D8981C" stroke-width="2"/>
<path d="M417.76 356.92C421.127 358.08 424.127 359.747 426.76 361.92C426.883 362.022 427.028 362.091 427.185 362.123C427.341 362.154 427.503 362.146 427.656 362.1C427.809 362.053 427.949 361.97 428.063 361.856C428.177 361.743 428.262 361.604 428.31 361.45C428.437 361.037 428.523 360.547 428.57 359.98C429.84 344.86 428.11 329.56 428.7 315.15C428.78 313.19 429.45 310.72 429.41 308.53C429.14 295.97 430.3 286.65 430.22 276.25C430.01 246.62 430.66 216.96 429.09 187.36C429.07 187.093 429.187 186.913 429.44 186.82L430.1 186.58C430.547 186.413 430.767 186.09 430.76 185.61C430.7 182.07 431.94 173.61 429.28 171.23" stroke="#CD851B" stroke-width="2"/>
<path d="M429.28 171.23L429.32 166.97C429.32 166.67 429.17 166.52 428.87 166.52C423.33 166.607 418.017 167.417 412.93 168.95" stroke="#D8981C" stroke-width="2"/>
<path d="M412.93 168.95C404.29 168.203 395.833 168.02 387.56 168.4" stroke="#DAAC6C" stroke-width="2"/>
<path d="M387.56 168.4L96.75 168.48" stroke="#DAB189" stroke-width="2"/>
<path d="M96.7499 168.48L70.3099 168.59" stroke="#DAAC6C" stroke-width="2"/>
<path d="M70.31 168.59C68.7433 168.163 67.8333 167.717 67.58 167.25" stroke="#D8981C" stroke-width="2"/>
<path d="M70.3099 168.59L177.01 253.94" stroke="#FBDF75" stroke-width="2"/>
<path d="M177.01 253.94C176.41 254.78 175.617 255.32 174.63 255.56C174.31 255.633 174.077 255.82 173.93 256.12C173.68 256.62 173.44 257.19 173.04 257.59C166.033 264.697 158.623 271.353 150.81 277.56C142.06 284.52 134.54 293.01 125.58 299.7C118.77 304.79 112.9 311.4 107.31 316.32C96.8766 325.5 81.7833 338.403 62.03 355.03C60.87 356 54.58 361.49 54.46 363.39C54.44 363.717 54.3366 364.013 54.15 364.28C52.68 366.42 50.7 370.27 51.6 372.89C51.6733 373.097 51.7533 373.1 51.84 372.9C53.92 368.36 57.24 364.16 61.8 360.3C93.4533 333.493 133.133 299.003 180.84 256.83" stroke="#EEB824" stroke-width="2"/>
<path d="M180.84 256.83C183.37 256.9 185.65 256.06 187.98 256.05C202.02 256.003 216.153 255.893 230.38 255.72" stroke="#FBDF75" stroke-width="2"/>
<path d="M230.38 255.72C237.727 255.36 245.183 255.357 252.75 255.71" stroke="#D8981C" stroke-width="2"/>
<path d="M252.75 255.71C267.17 255.757 281.587 255.77 296 255.75C297.92 255.75 300.117 256.243 302.59 257.23" stroke="#FBDF75" stroke-width="2"/>
<path d="M302.59 257.23C304.47 258.91 306.73 260.38 308.49 261.93C344.69 293.84 380.85 325.82 417.76 356.92" stroke="#EEB824" stroke-width="2"/>
<path d="M387.56 168.4C386.407 170.507 384.453 172.693 381.7 174.96C364.1 189.467 346.36 203.803 328.48 217.97C318.35 225.99 310.02 232.12 298.31 234.58C291.203 236.073 283.953 236.517 276.56 235.91" stroke="#FDF8E1" stroke-width="2"/>
<path d="M276.56 235.91C279.71 231.29 275.39 228.46 271.62 226.69C271.56 226.661 271.511 226.612 271.484 226.55C271.457 226.489 271.453 226.42 271.472 226.356C271.492 226.292 271.533 226.237 271.59 226.201C271.646 226.165 271.714 226.15 271.78 226.16C278.247 227.047 284.233 226.757 289.74 225.29C292.85 224.47 300.91 219.42 295.77 215.5C289.24 210.53 278 211.27 270.57 213.09C267.583 213.817 262.903 215.52 256.53 218.2C256.11 218.373 255.873 218.237 255.82 217.79L255.5 215.02C255.478 214.844 255.392 214.682 255.258 214.564C255.123 214.446 254.95 214.381 254.77 214.38L229.01 214.36C228.854 214.361 228.703 214.418 228.586 214.521C228.468 214.624 228.392 214.765 228.37 214.92L227.98 217.72C227.969 217.796 227.94 217.868 227.898 217.931C227.855 217.994 227.798 218.046 227.733 218.084C227.667 218.122 227.594 218.144 227.519 218.148C227.444 218.153 227.369 218.14 227.3 218.11C216.61 213.63 207.09 210.68 195.49 212.48C191.28 213.14 181.89 217.73 189.53 222.76C197.04 227.72 203.78 226.63 212.22 226.25C212.833 226.223 212.867 226.35 212.32 226.63C208.38 228.63 204.25 231.34 207.7 236.1" stroke="#DAB189" stroke-width="2"/>
<path d="M207.7 236.1C192.29 236.59 179.07 234.97 166.27 225.7C145.1 210.38 124.92 193.35 104.53 176.99C101.69 174.71 99.24 172.14 96.71 169.56C96.4967 169.34 96.4567 169.093 96.59 168.82L96.75 168.48" stroke="#FDF8E1" stroke-width="2"/>
<path d="M429.28 171.23C428.1 179.44 428.85 188.27 428.53 196.6C427.11 233.59 428.77 270.7 427.25 307.67C426.623 323.023 426.253 338.383 426.14 353.75C426.133 354.457 426.087 355.077 426 355.61C425.962 355.848 425.862 356.071 425.709 356.257C425.556 356.443 425.356 356.585 425.129 356.668C424.902 356.752 424.657 356.774 424.418 356.732C424.179 356.69 423.956 356.586 423.77 356.43C402.03 338.09 379.56 320.36 358.57 301.31C348.38 292.05 337.88 283.34 327.53 274.09C320.37 267.683 313.047 261.43 305.56 255.33" stroke="#EEB824" stroke-width="2"/>
<path d="M305.56 255.33L412.93 168.95" stroke="#FBDF75" stroke-width="2"/>
<path d="M305.56 255.33C304.887 256.203 303.897 256.837 302.59 257.23" stroke="#F0CC73" stroke-width="2"/>
<path d="M252.75 255.71C254.577 253.817 255.84 251.55 256.54 248.91C256.653 248.47 256.48 248.25 256.02 248.25H227.49C227.077 248.25 226.91 248.453 226.99 248.86C227.423 251.14 228.553 253.427 230.38 255.72" stroke="#DAAC6C" stroke-width="2"/>
<path d="M180.84 256.83L177.01 253.94" stroke="#F0CC73" stroke-width="2"/>
<path d="M207.7 236.1C211.293 238.393 215.073 238.237 219.04 235.63" stroke="#DAAC6C" stroke-width="2"/>
<path d="M219.04 235.63L221.54 237.03" stroke="#FDF8E1" stroke-width="2"/>
<path d="M221.54 237.03C217.553 242.357 215.917 247.97 216.63 253.87C216.649 254.023 216.72 254.165 216.83 254.273C216.941 254.38 217.085 254.447 217.238 254.462C217.391 254.477 217.546 254.44 217.675 254.356C217.804 254.272 217.901 254.146 217.95 254C219.243 250.12 219.843 246.113 219.75 241.98C219.744 241.669 219.838 241.366 220.02 241.12L224.95 234.49" stroke="#DAAC6C" stroke-width="2"/>
<path d="M224.95 234.49C225.017 235.09 225.34 235.343 225.92 235.25" stroke="#FDF8E1" stroke-width="2"/>
<path d="M225.92 235.25C224.967 237.323 224.703 239.497 225.13 241.77C225.217 242.217 225.487 242.44 225.94 242.44L257.53 242.27C258.21 242.263 258.523 241.92 258.47 241.24L257.99 235.77" stroke="#DAAC6C" stroke-width="2"/>
<path d="M257.99 235.77L259.29 234.91" stroke="#FDF8E1" stroke-width="2"/>
<path d="M259.29 234.91L263.69 240.99C263.89 241.27 263.99 241.58 263.99 241.92C263.98 243.44 264.43 254.29 266.21 254.42C266.963 254.473 267.357 254.123 267.39 253.37C267.67 247.357 265.917 241.827 262.13 236.78" stroke="#DAAC6C" stroke-width="2"/>
<path d="M262.13 236.78C263.023 236.38 263.74 235.87 264.28 235.25" stroke="#FDF8E1" stroke-width="2"/>
<path d="M264.28 235.25C266.587 236.65 268.513 237.463 270.06 237.69C272.513 238.05 274.68 237.457 276.56 235.91" stroke="#DAAC6C" stroke-width="2"/>
<path d="M264.28 235.25C260.347 232.023 257.087 228.18 254.5 223.72C254.32 223.407 254.303 223.087 254.45 222.76L255.1 221.26C255.32 220.753 255.153 220.5 254.6 220.5H229.1C228.473 220.5 228.317 220.773 228.63 221.32L229.58 222.93C229.713 223.163 229.717 223.397 229.59 223.63C226.897 228.497 223.38 232.497 219.04 235.63" stroke="#DAB189" stroke-width="2"/>
<path d="M262.13 236.78L252.64 225.42C252.367 225.093 252.117 225.11 251.89 225.47C251.4 226.25 257.82 233.08 259.29 234.91" stroke="#DAB189" stroke-width="2"/>
<path d="M257.99 235.77C257.86 234.91 229.06 235.25 225.92 235.25" stroke="#DAB189" stroke-width="2"/>
<path d="M224.95 234.49C225.78 233.46 232.23 226.13 231.99 225.56C231.85 225.213 231.657 225.183 231.41 225.47L221.54 237.03" stroke="#DAB189" stroke-width="2"/>
<path d="M50.09 166.46C56.1767 166.293 62.0067 166.557 67.58 167.25C67.8333 167.717 68.7433 168.163 70.31 168.59L177.01 253.94C176.41 254.78 175.617 255.32 174.63 255.56C174.31 255.633 174.077 255.82 173.93 256.12C173.68 256.62 173.44 257.19 173.04 257.59C166.033 264.697 158.623 271.353 150.81 277.56C142.06 284.52 134.54 293.01 125.58 299.7C118.77 304.79 112.9 311.4 107.31 316.32C96.8767 325.5 81.7833 338.403 62.03 355.03C60.87 356 54.58 361.49 54.46 363.39C54.44 363.717 54.3367 364.013 54.15 364.28C52.68 366.42 50.7 370.27 51.6 372.89C51.6733 373.097 51.7533 373.1 51.84 372.9C53.92 368.36 57.24 364.16 61.8 360.3C93.4533 333.493 133.133 299.003 180.84 256.83C183.37 256.9 185.65 256.06 187.98 256.05C202.02 256.003 216.153 255.893 230.38 255.72C237.727 255.36 245.183 255.357 252.75 255.71C267.17 255.757 281.587 255.77 296 255.75C297.92 255.75 300.117 256.243 302.59 257.23C304.47 258.91 306.73 260.38 308.49 261.93C344.69 293.84 380.85 325.82 417.76 356.92L421.56 360.29C419.04 361.21 417.583 362.83 417.19 365.15C417.177 365.228 417.181 365.308 417.202 365.385C417.222 365.462 417.259 365.533 417.309 365.594C417.359 365.656 417.421 365.706 417.492 365.741C417.563 365.777 417.641 365.797 417.72 365.8L421.19 365.95C421.455 365.952 421.711 366.052 421.907 366.231C422.102 366.41 422.225 366.655 422.249 366.92C422.274 367.184 422.2 367.448 422.041 367.66C421.883 367.873 421.65 368.019 421.39 368.07C418.83 368.67 416.46 369.59 413.92 369.63C404.373 369.783 394.827 370.037 385.28 370.39C378.97 370.62 372.83 371.73 366.54 372.62C364.92 372.85 363.07 372.54 361.37 372.8C357.23 373.42 351.98 373.6 347.76 373.21C345.42 372.99 343.07 373.157 340.71 373.71C340.403 373.783 340.127 373.92 339.88 374.12C338.4 375.34 330.28 374.67 326 374.93L93.25 375.3L92.41 375.22C92.3994 375.223 92.3882 375.221 92.3788 375.215C92.3694 375.21 92.3627 375.201 92.36 375.19C92.3574 375.179 92.359 375.168 92.3647 375.159C92.3703 375.149 92.3794 375.143 92.39 375.14L92.73 374.97C92.9237 374.864 93.0666 374.698 93.1363 374.496C93.2059 374.295 93.1985 374.071 93.115 373.858C93.0315 373.645 92.8768 373.456 92.675 373.321C92.4733 373.186 92.2359 373.112 92 373.11L53.9 373.28C53.4667 373.28 53.19 373.49 53.07 373.91C52.9433 374.357 52.92 374.903 53 375.55C51.16 376 50 375.97 49.98 373.71C49.6 304.417 49.6367 235.333 50.09 166.46Z" fill="#F9CB25"/>
<path d="M429.28 171.23C428.1 179.44 428.85 188.27 428.53 196.6C427.11 233.59 428.77 270.7 427.25 307.67C426.623 323.023 426.253 338.383 426.14 353.75C426.133 354.457 426.087 355.077 426 355.61C425.962 355.848 425.862 356.071 425.709 356.257C425.556 356.443 425.356 356.585 425.129 356.669C424.902 356.752 424.657 356.774 424.418 356.732C424.179 356.69 423.956 356.586 423.77 356.43C402.03 338.09 379.56 320.36 358.57 301.31C348.38 292.05 337.88 283.34 327.53 274.09C320.37 267.683 313.047 261.43 305.56 255.33L412.93 168.95C418.017 167.417 423.33 166.607 428.87 166.52C429.17 166.52 429.32 166.67 429.32 166.97L429.28 171.23Z" fill="#F9CB25"/>
<path d="M415.44 161.33C414.62 163.81 416.3 164.65 418.46 164.28C423.11 163.5 427.9 163.41 429.65 159.74C430.81 162.86 433.03 166.09 433.03 169.43C433.003 236.257 432.883 303.083 432.67 369.91C432.66 372.23 433.28 373.03 431.63 375.29C430.01 368.983 426.653 363.983 421.56 360.29L417.76 356.92C421.127 358.08 424.127 359.747 426.76 361.92C426.883 362.022 427.028 362.091 427.185 362.123C427.341 362.154 427.503 362.146 427.656 362.1C427.809 362.053 427.949 361.97 428.063 361.856C428.177 361.743 428.262 361.603 428.31 361.45C428.437 361.037 428.523 360.547 428.57 359.98C429.84 344.86 428.11 329.56 428.7 315.15C428.78 313.19 429.45 310.72 429.41 308.53C429.14 295.97 430.3 286.65 430.22 276.25C430.01 246.62 430.66 216.96 429.09 187.36C429.07 187.093 429.187 186.913 429.44 186.82L430.1 186.58C430.547 186.413 430.767 186.09 430.76 185.61C430.7 182.07 431.94 173.61 429.28 171.23L429.32 166.97C429.32 166.67 429.17 166.52 428.87 166.52C423.33 166.607 418.017 167.417 412.93 168.95C404.29 168.203 395.833 168.02 387.56 168.4L96.75 168.48L70.31 168.59C68.7433 168.163 67.8333 167.717 67.58 167.25C67.6 161.91 65.77 155.78 70.55 152.29C123.95 113.283 177.323 74.2399 230.67 35.1599C237.09 30.4499 242.41 26.2699 250.19 31.8299C254.45 34.8699 258.69 37.9566 262.91 41.0899C313.69 78.8099 364.387 116.647 415 154.6C415.28 154.813 415.423 155.1 415.43 155.46L415.44 161.33Z" fill="#B76513"/>
<path d="M276.56 235.91C274.68 237.457 272.513 238.05 270.06 237.69C268.513 237.463 266.587 236.65 264.28 235.25C260.347 232.023 257.087 228.18 254.5 223.72C254.32 223.407 254.303 223.087 254.45 222.76L255.1 221.26C255.32 220.753 255.153 220.5 254.6 220.5H229.1C228.473 220.5 228.317 220.773 228.63 221.32L229.58 222.93C229.713 223.163 229.717 223.397 229.59 223.63C226.897 228.497 223.38 232.497 219.04 235.63C215.073 238.237 211.293 238.393 207.7 236.1C204.25 231.34 208.38 228.63 212.32 226.63C212.867 226.35 212.833 226.223 212.22 226.25C203.78 226.63 197.04 227.72 189.53 222.76C181.89 217.73 191.28 213.14 195.49 212.48C207.09 210.68 216.61 213.63 227.3 218.11C227.369 218.14 227.444 218.153 227.519 218.148C227.594 218.144 227.667 218.122 227.733 218.084C227.798 218.046 227.855 217.994 227.898 217.931C227.94 217.868 227.969 217.796 227.98 217.72L228.37 214.92C228.392 214.765 228.468 214.624 228.586 214.521C228.703 214.418 228.854 214.361 229.01 214.36L254.77 214.38C254.95 214.381 255.123 214.446 255.258 214.564C255.392 214.682 255.478 214.844 255.5 215.02L255.82 217.79C255.873 218.237 256.11 218.373 256.53 218.2C262.903 215.52 267.583 213.817 270.57 213.09C278 211.27 289.24 210.53 295.77 215.5C300.91 219.42 292.85 224.47 289.74 225.29C284.233 226.757 278.247 227.047 271.78 226.16C271.714 226.15 271.646 226.165 271.59 226.201C271.533 226.237 271.492 226.292 271.472 226.356C271.453 226.42 271.457 226.489 271.484 226.55C271.511 226.612 271.56 226.661 271.62 226.69C275.39 228.46 279.71 231.29 276.56 235.91Z" fill="#B76513"/>
<path d="M224.95 234.49L220.02 241.12C219.838 241.366 219.744 241.669 219.75 241.98C219.843 246.113 219.243 250.12 217.95 254C217.901 254.146 217.804 254.272 217.675 254.356C217.546 254.44 217.391 254.477 217.238 254.462C217.085 254.447 216.941 254.38 216.83 254.273C216.72 254.165 216.649 254.023 216.63 253.87C215.917 247.97 217.553 242.357 221.54 237.03L231.41 225.47C231.657 225.183 231.85 225.213 231.99 225.56C232.23 226.13 225.78 233.46 224.95 234.49Z" fill="#B76513"/>
<path d="M262.13 236.78C265.917 241.827 267.67 247.357 267.39 253.37C267.357 254.123 266.963 254.473 266.21 254.42C264.43 254.29 263.98 243.44 263.99 241.92C263.99 241.58 263.89 241.27 263.69 240.99L259.29 234.91C257.82 233.08 251.4 226.25 251.89 225.47C252.117 225.11 252.367 225.093 252.64 225.42L262.13 236.78Z" fill="#B76513"/>
<path d="M225.92 235.25C229.06 235.25 257.86 234.91 257.99 235.77L258.47 241.24C258.523 241.92 258.21 242.263 257.53 242.27L225.94 242.44C225.487 242.44 225.217 242.217 225.13 241.77C224.703 239.497 224.967 237.323 225.92 235.25Z" fill="#B76513"/>
<path d="M252.75 255.71C245.183 255.357 237.727 255.36 230.38 255.72C228.553 253.427 227.423 251.14 226.99 248.86C226.91 248.453 227.077 248.25 227.49 248.25H256.02C256.48 248.25 256.653 248.47 256.54 248.91C255.84 251.55 254.577 253.817 252.75 255.71Z" fill="#B76513"/>
<path d="M387.56 168.4C386.407 170.507 384.453 172.693 381.7 174.96C364.1 189.467 346.36 203.803 328.48 217.97C318.35 225.99 310.02 232.12 298.31 234.58C291.203 236.073 283.953 236.517 276.56 235.91C279.71 231.29 275.39 228.46 271.62 226.69C271.56 226.661 271.511 226.612 271.484 226.55C271.457 226.489 271.453 226.42 271.472 226.356C271.492 226.292 271.533 226.237 271.59 226.201C271.646 226.165 271.714 226.15 271.78 226.16C278.247 227.047 284.233 226.757 289.74 225.29C292.85 224.47 300.91 219.42 295.77 215.5C289.24 210.53 278 211.27 270.57 213.09C267.583 213.817 262.903 215.52 256.53 218.2C256.11 218.373 255.873 218.237 255.82 217.79L255.5 215.02C255.478 214.844 255.392 214.682 255.258 214.564C255.123 214.446 254.95 214.381 254.77 214.38L229.01 214.36C228.854 214.361 228.703 214.418 228.586 214.521C228.468 214.624 228.392 214.765 228.37 214.92L227.98 217.72C227.969 217.796 227.94 217.868 227.898 217.931C227.855 217.994 227.798 218.046 227.732 218.084C227.667 218.122 227.594 218.144 227.519 218.148C227.444 218.153 227.369 218.14 227.3 218.11C216.61 213.63 207.09 210.68 195.49 212.48C191.28 213.14 181.89 217.73 189.53 222.76C197.04 227.72 203.78 226.63 212.22 226.25C212.833 226.223 212.867 226.35 212.32 226.63C208.38 228.63 204.25 231.34 207.7 236.1C192.29 236.59 179.07 234.97 166.27 225.7C145.1 210.38 124.92 193.35 104.53 176.99C101.69 174.71 99.24 172.14 96.71 169.56C96.4967 169.34 96.4567 169.093 96.59 168.82L96.75 168.48L387.56 168.4Z" fill="#FDFDFE"/>
<path d="M264.28 235.25C263.74 235.87 263.023 236.38 262.13 236.78L252.64 225.42C252.367 225.093 252.117 225.11 251.89 225.47C251.4 226.25 257.82 233.08 259.29 234.91L257.99 235.77C257.86 234.91 229.06 235.25 225.92 235.25C225.34 235.343 225.017 235.09 224.95 234.49C225.78 233.46 232.23 226.13 231.99 225.56C231.85 225.213 231.657 225.183 231.41 225.47L221.54 237.03L219.04 235.63C223.38 232.497 226.897 228.497 229.59 223.63C229.717 223.397 229.713 223.163 229.58 222.93L228.63 221.32C228.317 220.773 228.473 220.5 229.1 220.5H254.6C255.153 220.5 255.32 220.753 255.1 221.26L254.45 222.76C254.303 223.087 254.32 223.407 254.5 223.72C257.087 228.18 260.347 232.023 264.28 235.25Z" fill="#FDFDFE"/>
<path d="M387.56 168.4C395.833 168.02 404.29 168.203 412.93 168.95L305.56 255.33C304.887 256.203 303.897 256.837 302.59 257.23C300.117 256.243 297.92 255.75 296 255.75C281.587 255.77 267.17 255.757 252.75 255.71C254.577 253.817 255.84 251.55 256.54 248.91C256.653 248.47 256.48 248.25 256.02 248.25H227.49C227.077 248.25 226.91 248.453 226.99 248.86C227.423 251.14 228.553 253.427 230.38 255.72C216.153 255.893 202.02 256.003 187.98 256.05C185.65 256.06 183.37 256.9 180.84 256.83L177.01 253.94L70.3101 168.59L96.7501 168.48L96.5901 168.82C96.4567 169.093 96.4967 169.34 96.7101 169.56C99.2401 172.14 101.69 174.71 104.53 176.99C124.92 193.35 145.1 210.38 166.27 225.7C179.07 234.97 192.29 236.59 207.7 236.1C211.293 238.393 215.073 238.237 219.04 235.63L221.54 237.03C217.553 242.357 215.917 247.97 216.63 253.87C216.649 254.023 216.72 254.165 216.83 254.273C216.941 254.38 217.085 254.447 217.238 254.462C217.392 254.477 217.546 254.44 217.675 254.356C217.804 254.272 217.901 254.146 217.95 254C219.243 250.12 219.843 246.113 219.75 241.98C219.744 241.669 219.839 241.366 220.02 241.12L224.95 234.49C225.017 235.09 225.34 235.343 225.92 235.25C224.967 237.323 224.703 239.497 225.13 241.77C225.217 242.217 225.487 242.44 225.94 242.44L257.53 242.27C258.21 242.263 258.523 241.92 258.47 241.24L257.99 235.77L259.29 234.91L263.69 240.99C263.89 241.27 263.99 241.58 263.99 241.92C263.98 243.44 264.43 254.29 266.21 254.42C266.963 254.473 267.357 254.123 267.39 253.37C267.67 247.357 265.917 241.827 262.13 236.78C263.023 236.38 263.74 235.87 264.28 235.25C266.587 236.65 268.513 237.463 270.06 237.69C272.513 238.05 274.68 237.457 276.56 235.91C283.953 236.517 291.203 236.073 298.31 234.58C310.02 232.12 318.35 225.99 328.48 217.97C346.36 203.803 364.1 189.467 381.7 174.96C384.453 172.693 386.407 170.507 387.56 168.4Z" fill="#FDF2C4"/>
<path d="M426.52 154.37C424.733 159.843 421.04 162.163 415.44 161.33L415.43 155.46C415.423 155.1 415.28 154.813 415 154.6C364.387 116.647 313.69 78.8101 262.91 41.0901C258.69 37.9567 254.45 34.8701 250.19 31.8301C242.41 26.2701 237.09 30.4501 230.67 35.1601C177.323 74.2401 123.95 113.283 70.55 152.29C65.77 155.78 67.6 161.91 67.58 167.25C62.0066 166.557 56.1766 166.293 50.09 166.46C53.6566 157.047 59.0166 149.613 66.17 144.16C119.617 103.427 173.127 62.7767 226.7 22.2101C238.91 12.9701 245.46 11.7601 257.49 21.0801C311.557 62.9867 365.593 104.923 419.6 146.89C421.96 148.723 424.267 151.217 426.52 154.37Z" fill="#FBDD27"/>
<path d="M426.52 154.37L429.65 159.74C427.9 163.41 423.11 163.5 418.46 164.28C416.3 164.65 414.62 163.81 415.44 161.33C421.04 162.163 424.733 159.843 426.52 154.37Z" fill="#E2A522"/>
<path d="M429.28 171.23C431.94 173.61 430.7 182.07 430.76 185.61C430.767 186.09 430.547 186.414 430.1 186.58L429.44 186.82C429.187 186.914 429.07 187.094 429.09 187.36C430.66 216.96 430.01 246.62 430.22 276.25C430.3 286.65 429.14 295.97 429.41 308.53C429.45 310.72 428.78 313.19 428.7 315.15C428.11 329.56 429.84 344.86 428.57 359.98C428.523 360.547 428.437 361.037 428.31 361.45C428.262 361.604 428.177 361.743 428.063 361.857C427.949 361.97 427.809 362.054 427.656 362.1C427.503 362.146 427.341 362.154 427.185 362.123C427.028 362.092 426.883 362.022 426.76 361.92C424.127 359.747 421.127 358.08 417.76 356.92C380.85 325.82 344.69 293.84 308.49 261.93C306.73 260.38 304.47 258.91 302.59 257.23C303.897 256.837 304.887 256.204 305.56 255.33C313.047 261.43 320.37 267.684 327.53 274.09C337.88 283.34 348.38 292.05 358.57 301.31C379.56 320.36 402.03 338.09 423.77 356.43C423.956 356.586 424.179 356.69 424.418 356.732C424.657 356.774 424.902 356.752 425.129 356.669C425.356 356.585 425.556 356.443 425.709 356.257C425.862 356.071 425.962 355.848 426 355.61C426.087 355.077 426.133 354.457 426.14 353.75C426.253 338.384 426.623 323.024 427.25 307.67C428.77 270.7 427.11 233.59 428.53 196.6C428.85 188.27 428.1 179.44 429.28 171.23Z" fill="#E2A522"/>
<path d="M177.01 253.94L180.84 256.83C133.133 299.004 93.4533 333.494 61.8 360.3C57.24 364.16 53.92 368.36 51.84 372.9C51.7533 373.1 51.6733 373.097 51.6 372.89C50.7 370.27 52.68 366.42 54.15 364.28C54.3366 364.014 54.44 363.717 54.46 363.39C54.58 361.49 60.87 356 62.03 355.03C81.7833 338.404 96.8766 325.5 107.31 316.32C112.9 311.4 118.77 304.79 125.58 299.7C134.54 293.01 142.06 284.52 150.81 277.56C158.623 271.354 166.033 264.697 173.04 257.59C173.44 257.19 173.68 256.62 173.93 256.12C174.077 255.82 174.31 255.634 174.63 255.56C175.617 255.32 176.41 254.78 177.01 253.94Z" fill="#E2A522"/>
<path d="M421.56 360.29C426.653 363.983 430.01 368.983 431.63 375.29C394.64 375.88 358.88 374.84 326 374.93C330.28 374.67 338.4 375.34 339.88 374.12C340.127 373.92 340.403 373.783 340.71 373.71C343.07 373.157 345.42 372.99 347.76 373.21C351.98 373.6 357.23 373.42 361.37 372.8C363.07 372.54 364.92 372.85 366.54 372.62C372.83 371.73 378.97 370.62 385.28 370.39C394.827 370.037 404.373 369.783 413.92 369.63C416.46 369.59 418.83 368.67 421.39 368.07C421.65 368.019 421.883 367.873 422.041 367.66C422.2 367.448 422.274 367.184 422.249 366.92C422.225 366.655 422.102 366.41 421.907 366.231C421.711 366.051 421.455 365.951 421.19 365.95L417.72 365.8C417.641 365.797 417.563 365.777 417.492 365.741C417.421 365.706 417.359 365.656 417.309 365.594C417.259 365.533 417.222 365.462 417.202 365.385C417.181 365.308 417.177 365.228 417.19 365.15C417.583 362.83 419.04 361.21 421.56 360.29Z" fill="#E2A522"/>
<path d="M93.2499 375.3C79.8233 375.847 66.4066 375.93 52.9999 375.55C52.9199 374.903 52.9433 374.357 53.0699 373.91C53.1899 373.49 53.4666 373.28 53.8999 373.28L91.9999 373.11C92.2358 373.112 92.4732 373.186 92.675 373.321C92.8767 373.456 93.0314 373.645 93.1149 373.858C93.1984 374.071 93.2059 374.295 93.1362 374.496C93.0665 374.698 92.9237 374.864 92.7299 374.97L92.3899 375.14C92.3793 375.143 92.3702 375.15 92.3646 375.159C92.359 375.168 92.3573 375.18 92.3599 375.19C92.3626 375.201 92.3694 375.21 92.3787 375.215C92.3881 375.221 92.3993 375.223 92.4099 375.22L93.2499 375.3Z" fill="#E2A522"/>
<path d="M245.83 205.03C245.995 205.077 246.171 205.061 246.324 204.985C246.477 204.909 246.597 204.779 246.66 204.62C248.56 199.827 251.947 196.617 256.82 194.99C256.961 194.94 257.112 194.922 257.262 194.937C257.413 194.953 257.559 195.002 257.69 195.08L258.03 195.28C258.158 195.357 258.265 195.465 258.341 195.593C258.417 195.722 258.461 195.867 258.468 196.016C258.475 196.166 258.445 196.314 258.381 196.449C258.316 196.584 258.22 196.701 258.1 196.79C255.767 198.503 253.2 199.76 250.4 200.56C250.06 200.66 249.803 200.86 249.63 201.16L247.51 204.89C247.303 205.25 247.39 205.507 247.77 205.66C249.363 206.313 250.77 207.247 251.99 208.46C252.35 208.82 252.273 209 251.76 209H231.91C231.827 209.001 231.747 208.975 231.68 208.926C231.613 208.878 231.565 208.808 231.541 208.729C231.517 208.65 231.52 208.565 231.549 208.488C231.577 208.411 231.63 208.345 231.7 208.3L235.99 205.48C236.243 205.313 236.313 205.087 236.2 204.8C234.02 199.27 229.08 200.18 225.08 196.31C225.022 196.253 224.978 196.183 224.952 196.105C224.925 196.028 224.918 195.945 224.93 195.865C224.941 195.784 224.972 195.707 225.019 195.64C225.066 195.573 225.128 195.518 225.2 195.48C229.47 193.25 235.74 201.5 237.06 204.62C237.2 204.953 237.447 205.073 237.8 204.98C240.473 204.26 243.15 204.277 245.83 205.03Z" fill="#B76513"/>
</svg>