<svg width="297" height="259" viewBox="0 0 297 259" fill="none" xmlns="http://www.w3.org/2000/svg">
<g filter="url(#filter0_b_202_185)">
<rect y="0.941467" width="297" height="258" rx="32" fill="#F5F5F5" fill-opacity="0.6"/>
<g filter="url(#filter1_d_202_185)">
<rect x="78.2562" y="86.9241" width="113.396" height="37.9213" rx="6.67079" fill="#F8B805" stroke="#020817" stroke-width="3"/>
<rect x="78.2562" y="130.857" width="113.396" height="37.9213" rx="6.67079" fill="#F8B805" stroke="#020817" stroke-width="3"/>
<rect x="78.2562" y="174.791" width="113.396" height="18.7709" rx="6.67079" fill="#F8B805" stroke="#020817" stroke-width="3"/>
<g filter="url(#filter2_d_202_185)">
<rect x="107.918" y="100.816" width="18.0239" height="3.37948" rx="1.68974" fill="white"/>
</g>
<g filter="url(#filter3_d_202_185)">
<rect x="107.918" y="143.622" width="41.6802" height="3.37948" rx="1.68974" fill="#D9D9D9"/>
</g>
<g filter="url(#filter4_d_202_185)">
<rect x="107.918" y="108.701" width="38.3008" height="3.37948" rx="1.68974" fill="#D9D9D9"/>
</g>
<g filter="url(#filter5_d_202_185)">
<rect x="107.918" y="151.508" width="20.2769" height="3.37948" rx="1.68974" fill="#D9D9D9"/>
</g>
<g filter="url(#filter6_d_202_185)">
<rect x="150.725" y="108.701" width="13.5179" height="3.37948" rx="1.68974" fill="#D9D9D9"/>
</g>
<g filter="url(#filter7_d_202_185)">
<rect x="133.828" y="151.508" width="30.4153" height="3.37948" rx="1.68974" fill="white"/>
</g>
<g filter="url(#filter8_d_202_185)">
<circle cx="92.7108" cy="105.885" r="10.7017" fill="#D9D9D9"/>
</g>
<g filter="url(#filter9_d_202_185)">
<circle cx="186.773" cy="88.4241" r="22.5299" fill="#020817"/>
</g>
<g filter="url(#filter10_d_202_185)">
<circle cx="92.7108" cy="149.818" r="10.7017" fill="#F5F4F1"/>
</g>
<path d="M182.971 92.7389C183.134 93.4412 183.325 93.9833 183.726 94.5437C184.128 95.1041 185.292 95.8275 185.292 95.8275L186.063 96.7454C187.263 96.6582 189.684 96.4805 189.765 96.4676C189.847 96.4546 191.015 95.8175 191.589 95.5005L192.455 93.1526C192.455 93.1526 192.675 91.9208 192.637 91.3545C192.598 90.7882 192.531 90.6948 192.228 89.4423C191.924 88.1898 190.228 86.6908 190.127 86.707C190.025 86.7232 190.915 85.7212 190.783 85.2218C190.651 84.7224 190.595 83.7704 190.48 83.3725C190.364 82.9746 189.316 81.9449 189.316 81.9449C189.094 81.8589 188.638 81.7546 188.51 81.7334C188.35 81.707 187.317 81.4903 185.179 82.0562C183.201 82.5795 183.592 82.597 183.192 83.025C182.873 83.3655 182.776 84.2094 182.725 84.6532L182.724 84.6606C182.715 85.0436 182.778 85.9253 182.85 86.382C182.923 86.8387 183.386 87.1292 183.386 87.1292C183.386 87.1292 183.786 87.4054 184.088 87.6694C184.39 87.9335 182.977 89.5117 182.832 90.8877C182.832 90.8877 182.807 92.0365 182.971 92.7389Z" fill="white" fill-opacity="0.25"/>
<path d="M188.265 79.7217L187.997 79.5779C188.119 79.4832 188.191 79.4135 188.213 79.3689C188.521 78.7509 188.976 78.2707 189.578 77.9282C189.786 77.8091 190.436 77.4981 190.58 77.8449C190.591 77.8721 190.592 77.8995 190.582 77.9271C190.322 78.6656 188.915 79.3508 188.265 79.7217Z" fill="white" fill-opacity="0.25"/>
<path d="M183.681 80.2135C183.694 80.3196 183.655 80.3993 183.563 80.4527C182.964 80.412 180.836 80.0002 180.775 79.3519C180.772 79.3234 180.783 79.3014 180.807 79.286C181.593 78.7761 183.09 79.6297 183.681 80.2135Z" fill="white" fill-opacity="0.25"/>
<path d="M183.68 80.2141C184.144 80.5395 184.497 81.0485 184.824 81.5251L184.597 81.609C184.283 81.1954 183.939 80.8101 183.563 80.4533C183.655 80.3999 183.694 80.3202 183.68 80.2141Z" fill="white" fill-opacity="0.25"/>
<path d="M187.997 79.578L188.265 79.7219C188.039 80.1589 187.87 80.6321 187.757 81.1414C187.661 81.1712 187.556 81.1685 187.442 81.1335C187.58 80.597 187.765 80.0786 187.997 79.578Z" fill="white" fill-opacity="0.25"/>
<path d="M187.442 81.1335C187.556 81.1685 187.661 81.1712 187.757 81.1414C188.347 81.2981 188.886 81.566 189.375 81.9453C189.379 81.949 189.383 81.954 189.385 81.9596C189.387 81.9652 189.387 81.9712 189.385 81.9769C189.384 81.9826 189.381 81.9878 189.376 81.9918C189.372 81.9958 189.367 81.9985 189.361 81.9996L183.292 82.9668C183.26 82.972 183.251 82.9603 183.268 82.9316C183.622 82.3179 184.116 82.0108 184.597 81.6087L184.824 81.5248C185.656 81.1235 186.529 80.9931 187.442 81.1335Z" fill="white" fill-opacity="0.25"/>
<path d="M182.726 85.835L182.764 85.894C182.743 85.9471 182.703 85.9763 182.644 85.9816C182.41 85.9616 181.949 85.9079 181.26 85.8203C179.566 85.6041 177.848 85.5909 176.106 85.7806C174.431 85.9625 172.806 86.5304 171.317 87.306C171.247 87.3427 171.165 87.4558 171.071 87.6455C171.059 87.6701 171.039 87.6853 171.013 87.6913C170.921 87.7105 170.839 87.6909 170.765 87.6326C170.861 85.8169 174.624 85.0748 175.916 85.0192C178.224 84.9204 180.494 85.1924 182.726 85.835Z" fill="white" fill-opacity="0.25"/>
<path d="M202.789 82.3984L202.809 82.561C202.813 82.5882 202.804 82.611 202.783 82.6295C202.69 82.7085 202.604 82.7182 202.524 82.6586C202.264 82.4656 202.145 82.4976 201.872 82.4248C198.502 81.5295 194.961 82.9419 191.903 84.2114C191.72 84.2884 191.395 84.3661 191.157 84.5179C191.076 84.569 190.998 84.565 190.986 84.4531C192.714 83.3351 194.552 82.4597 196.5 81.8269C198.215 81.2696 200.21 81.0454 201.942 81.701C202.319 81.8434 202.601 82.0759 202.789 82.3984Z" fill="white" fill-opacity="0.25"/>
<path d="M190.791 84.5496L190.815 84.6977C190.82 84.8676 190.793 85.031 190.734 85.188L183 86.4207L182.764 85.894L182.726 85.8349C182.662 85.44 182.658 85.0662 182.713 84.7137C182.717 84.6863 182.73 84.6609 182.749 84.6413C182.769 84.6216 182.794 84.6087 182.821 84.6044L190.43 83.3918C190.459 83.3873 190.479 83.3985 190.49 83.4257C190.638 83.7904 190.738 84.1651 190.791 84.5496Z" fill="white" fill-opacity="0.25"/>
<path d="M182.644 85.9818C180.992 87.2851 178.815 88.1293 176.796 88.6326C175.117 89.0512 173.012 89.1836 171.401 88.4282C171.308 88.3849 171.249 88.3942 171.176 88.4606C170.928 88.2431 170.791 87.9671 170.765 87.6327C170.839 87.691 170.921 87.7106 171.012 87.6914C171.039 87.6854 171.059 87.6702 171.071 87.6456C171.165 87.4559 171.247 87.3428 171.317 87.3061C172.806 86.5305 174.431 85.9626 176.106 85.7807C177.848 85.591 179.566 85.6042 181.26 85.8204C181.949 85.908 182.41 85.9617 182.644 85.9818Z" fill="white" fill-opacity="0.25"/>
<path d="M202.789 82.3988C202.936 82.8292 202.868 83.2233 202.587 83.5812L202.47 83.5366C202.443 83.5264 202.419 83.5316 202.399 83.5521C202.007 83.9445 201.517 84.2576 200.928 84.4915C197.719 85.7625 194.252 85.7109 191.003 84.6896C190.977 84.6815 190.952 84.684 190.928 84.6971C190.892 84.7168 190.854 84.717 190.815 84.6978L190.791 84.5497L190.986 84.4536C190.998 84.5654 191.075 84.5695 191.157 84.5183C191.395 84.3666 191.72 84.2889 191.903 84.2118C194.961 82.9423 198.502 81.5299 201.872 82.4252C202.145 82.498 202.264 82.4661 202.523 82.6591C202.604 82.7186 202.69 82.7089 202.783 82.6299C202.804 82.6115 202.813 82.5886 202.809 82.5615L202.789 82.3988Z" fill="white" fill-opacity="0.25"/>
<path d="M182.764 85.894L183 86.4206L183.002 86.4697C182.473 86.844 181.958 87.1539 181.455 87.3994C180.489 87.873 179.694 88.2773 179.073 88.6125C177.974 88.9474 177.156 89.1692 176.62 89.2778C175.019 89.6041 172.428 89.7105 171.176 88.4604C171.249 88.394 171.308 88.3847 171.401 88.4281C173.012 89.1834 175.117 89.051 176.796 88.6324C178.815 88.1292 180.992 87.2849 182.644 85.9816C182.703 85.9763 182.743 85.9471 182.764 85.894Z" fill="white" fill-opacity="0.25"/>
<path d="M190.815 84.6975C190.855 84.7167 190.892 84.7164 190.929 84.6968C190.952 84.6837 190.977 84.6812 191.003 84.6893C194.252 85.7105 197.719 85.7622 200.928 84.4912C201.517 84.2573 202.008 83.9442 202.4 83.5518C202.419 83.5313 202.443 83.5261 202.47 83.5362L202.587 83.5809C202.193 84.268 201.447 84.7444 200.756 85.0568C198.969 85.8652 197.067 86.0953 195.123 86.0327C193.85 85.7859 192.383 85.6083 190.928 85.3055C190.866 85.2926 190.8 85.3067 190.74 85.3171L190.734 85.1878C190.793 85.0309 190.82 84.8674 190.815 84.6975Z" fill="white" fill-opacity="0.25"/>
<path d="M183.002 86.4698C183.08 86.671 183.198 86.8528 183.355 87.0153L183.269 87.1382C181.742 87.8064 180.625 88.3331 179.918 88.7183C179.039 89.1982 178.228 89.8949 177.487 90.8082C177.468 90.8308 177.458 90.8565 177.456 90.8851C177.442 91.0656 177.35 91.196 177.18 91.2763C176.739 89.9941 178.243 89.1859 179.073 88.6126C179.694 88.2774 180.489 87.8731 181.455 87.3996C181.958 87.154 182.473 86.8441 183.002 86.4698Z" fill="white" fill-opacity="0.25"/>
<path d="M190.74 85.3171C190.8 85.3067 190.866 85.2926 190.927 85.3055C192.383 85.6083 193.85 85.7859 195.123 86.0327C196.054 86.301 197.005 86.4862 197.66 87.2743L197.644 87.4071C197.64 87.436 197.647 87.4624 197.664 87.4863C197.7 87.5373 197.715 87.5929 197.707 87.653C197.703 87.6855 197.711 87.7149 197.731 87.7413C197.851 87.901 197.833 88.0375 197.679 88.1506C197.649 88.1728 197.627 88.1665 197.614 88.1315C197.542 87.9406 197.462 87.8033 197.295 87.6763C195.7 86.4695 193.721 86.1867 191.783 86.0511C191.474 86.0297 191.164 86.0262 190.852 86.0406C190.773 85.9786 190.663 85.9577 190.522 85.9778C190.634 85.7423 190.707 85.5221 190.74 85.3171Z" fill="white" fill-opacity="0.25"/>
<path d="M183.355 87.015C183.426 87.0488 183.451 87.0934 183.43 87.1489C182.746 88.9446 181.145 92.1338 178.77 92.1817C178.281 92.1913 177.862 92.0259 177.514 91.6855C178.032 91.8063 178.542 91.8195 179.046 91.7253C180.075 91.5336 181.092 90.6493 181.619 89.7814C182.161 88.8865 182.711 88.0054 183.269 87.138L183.355 87.015Z" fill="white" fill-opacity="0.25"/>
<path d="M183.269 87.1381C182.711 88.0054 182.161 88.8865 181.619 89.7814C181.092 90.6493 180.075 91.5336 179.046 91.7254C178.542 91.8195 178.032 91.8063 177.515 91.6856C177.349 91.6187 177.238 91.4822 177.18 91.2761C177.35 91.1958 177.442 91.0654 177.456 90.8849C177.458 90.8563 177.468 90.8307 177.487 90.8081C178.228 89.8947 179.039 89.1981 179.918 88.7182C180.625 88.333 181.742 87.8063 183.269 87.1381Z" fill="white" fill-opacity="0.25"/>
<path d="M190.522 85.9779C190.663 85.9578 190.773 85.9787 190.852 86.0407C192.468 87.4959 194.174 89.376 196.521 88.9543C196.87 88.8917 197.353 88.6724 197.597 88.3349C197.613 88.3127 197.634 88.3017 197.662 88.302L197.762 88.3033C197.576 88.7098 197.311 89.0039 196.97 89.1857C195.51 89.9609 193.687 89.0101 192.535 88.0243C191.735 87.3393 191.064 86.6572 190.522 85.9779Z" fill="white" fill-opacity="0.25"/>
<path d="M190.852 86.0407C191.164 86.0263 191.474 86.0298 191.783 86.0512C193.721 86.1868 195.7 86.4696 197.295 87.6764C197.462 87.8034 197.542 87.9407 197.614 88.1316C197.627 88.1666 197.649 88.1729 197.679 88.1507C197.833 88.0376 197.851 87.9011 197.731 87.7414C197.711 87.715 197.703 87.6856 197.707 87.6531C197.715 87.5929 197.7 87.5374 197.664 87.4864C197.647 87.4625 197.64 87.4361 197.644 87.4071L197.66 87.2744C197.884 87.6009 197.919 87.9438 197.762 88.3032L197.662 88.3019C197.634 88.3016 197.613 88.3126 197.597 88.3349C197.353 88.6723 196.87 88.8917 196.521 88.9543C194.174 89.3759 192.468 87.4958 190.852 86.0407Z" fill="white" fill-opacity="0.25"/>
<path d="M194.269 90.7412L194.191 90.7787C194.142 90.6929 194.08 90.6171 194.005 90.5515C193.895 90.4545 193.839 90.4047 193.836 90.4021C192.887 89.4568 191.741 88.4244 190.4 87.3047C190.177 87.1181 190.012 86.9916 189.905 86.9252C189.872 86.9045 189.87 86.8816 189.9 86.8566L190.108 86.6827C190.131 86.6635 190.155 86.6632 190.178 86.6821C191.675 87.9049 193.106 89.1999 194.473 90.5672C194.48 90.5746 194.485 90.584 194.487 90.5941C194.489 90.6042 194.488 90.6147 194.485 90.6244C194.481 90.634 194.475 90.6423 194.467 90.6484C194.459 90.6545 194.449 90.658 194.439 90.6586C194.373 90.6627 194.317 90.6902 194.269 90.7412Z" fill="white" fill-opacity="0.25"/>
<path d="M181.448 92.8748C181.416 92.8307 181.371 92.8234 181.314 92.8527L181.139 92.6991C181.116 92.679 181.112 92.6554 181.126 92.6283C182.031 90.943 182.999 89.2955 184.032 87.6859C184.055 87.6491 184.086 87.642 184.123 87.6644L184.325 87.7867C184.356 87.8055 184.359 87.8284 184.335 87.8554C184.241 87.9636 184.155 88.0779 184.079 88.1984C183.162 89.6455 182.303 91.1262 181.502 92.6404C181.489 92.6657 181.482 92.6922 181.483 92.7199C181.483 92.7772 181.471 92.8289 181.448 92.8748Z" fill="white" fill-opacity="0.25"/>
<path d="M183.097 92.9201C183.075 92.9236 183.052 92.9189 183.033 92.9069C183.014 92.895 183 92.8765 182.994 92.8549C182.815 92.2439 182.758 91.6211 182.821 90.9866C182.825 90.9408 182.845 90.8978 182.876 90.8642C182.907 90.8307 182.949 90.8084 182.994 90.8009C185.849 90.3258 188.684 89.8681 191.5 89.428C191.715 89.3943 191.931 89.3702 192.149 89.3558C192.18 89.3538 192.202 89.3671 192.214 89.3958C192.478 90.0146 192.62 90.6619 192.639 91.3377C192.64 91.3462 192.637 91.3546 192.631 91.3613C192.626 91.368 192.618 91.3724 192.609 91.3737L183.097 92.9201Z" fill="white" fill-opacity="0.25"/>
<path d="M194.269 90.7412C195.299 91.7489 195.789 92.9819 195.739 94.4402C195.601 94.5508 195.456 94.5793 195.306 94.5258C194.682 93.3099 194.452 92.1035 194.191 90.7787L194.269 90.7412Z" fill="white" fill-opacity="0.25"/>
<path d="M181.314 92.8526C181.371 92.8232 181.416 92.8306 181.447 92.8747C181.599 94.164 181.729 95.4289 181.448 96.7124C181.346 96.8178 181.226 96.8453 181.089 96.7948C180.631 95.4412 180.706 94.1272 181.314 92.8526Z" fill="white" fill-opacity="0.25"/>
<path d="M185.292 96.5314C185.223 96.4879 185.254 96.4854 185.335 96.4725L191.575 95.4698C191.598 95.4661 191.603 95.4738 191.589 95.4927C190.012 97.6314 187.464 97.9066 185.292 96.5314Z" fill="white" fill-opacity="0.25"/>
<path d="M192.455 93.1526L183.727 94.5436C184.458 96.0506 185.026 96.47 185.233 96.489L191.592 95.4756C192.165 94.9679 192.392 93.7177 192.455 93.1526Z" fill="white" fill-opacity="0.25"/>
</g>
</g>
<defs>
<filter id="filter0_b_202_185" x="-150" y="-149.059" width="597" height="558" filterUnits="userSpaceOnUse" color-interpolation-filters="sRGB">
<feFlood flood-opacity="0" result="BackgroundImageFix"/>
<feGaussianBlur in="BackgroundImageFix" stdDeviation="75"/>
<feComposite in2="SourceAlpha" operator="in" result="effect1_backgroundBlur_202_185"/>
<feBlend mode="normal" in="SourceGraphic" in2="effect1_backgroundBlur_202_185" result="shape"/>
</filter>
<filter id="filter1_d_202_185" x="76.7562" y="65.8943" width="133.581" height="132.27" filterUnits="userSpaceOnUse" color-interpolation-filters="sRGB">
<feFlood flood-opacity="0" result="BackgroundImageFix"/>
<feColorMatrix in="SourceAlpha" type="matrix" values="0 0 0 0 0 0 0 0 0 0 0 0 0 0 0 0 0 0 127 0" result="hardAlpha"/>
<feOffset dx="1.03416" dy="3.10247"/>
<feComposite in2="hardAlpha" operator="out"/>
<feColorMatrix type="matrix" values="0 0 0 0 0 0 0 0 0 0 0 0 0 0 0 0 0 0 0.5 0"/>
<feBlend mode="normal" in2="BackgroundImageFix" result="effect1_dropShadow_202_185"/>
<feBlend mode="normal" in="SourceGraphic" in2="effect1_dropShadow_202_185" result="shape"/>
</filter>
<filter id="filter2_d_202_185" x="105.85" y="99.7814" width="22.1605" height="7.51615" filterUnits="userSpaceOnUse" color-interpolation-filters="sRGB">
<feFlood flood-opacity="0" result="BackgroundImageFix"/>
<feColorMatrix in="SourceAlpha" type="matrix" values="0 0 0 0 0 0 0 0 0 0 0 0 0 0 0 0 0 0 127 0" result="hardAlpha"/>
<feOffset dy="1.03416"/>
<feGaussianBlur stdDeviation="1.03416"/>
<feComposite in2="hardAlpha" operator="out"/>
<feColorMatrix type="matrix" values="0 0 0 0 0 0 0 0 0 0 0 0 0 0 0 0 0 0 0.3 0"/>
<feBlend mode="normal" in2="BackgroundImageFix" result="effect1_dropShadow_202_185"/>
<feBlend mode="normal" in="SourceGraphic" in2="effect1_dropShadow_202_185" result="shape"/>
</filter>
<filter id="filter3_d_202_185" x="105.85" y="142.588" width="45.8169" height="7.51615" filterUnits="userSpaceOnUse" color-interpolation-filters="sRGB">
<feFlood flood-opacity="0" result="BackgroundImageFix"/>
<feColorMatrix in="SourceAlpha" type="matrix" values="0 0 0 0 0 0 0 0 0 0 0 0 0 0 0 0 0 0 127 0" result="hardAlpha"/>
<feOffset dy="1.03416"/>
<feGaussianBlur stdDeviation="1.03416"/>
<feComposite in2="hardAlpha" operator="out"/>
<feColorMatrix type="matrix" values="0 0 0 0 0 0 0 0 0 0 0 0 0 0 0 0 0 0 0.3 0"/>
<feBlend mode="normal" in2="BackgroundImageFix" result="effect1_dropShadow_202_185"/>
<feBlend mode="normal" in="SourceGraphic" in2="effect1_dropShadow_202_185" result="shape"/>
</filter>
<filter id="filter4_d_202_185" x="105.85" y="107.667" width="42.4374" height="7.51615" filterUnits="userSpaceOnUse" color-interpolation-filters="sRGB">
<feFlood flood-opacity="0" result="BackgroundImageFix"/>
<feColorMatrix in="SourceAlpha" type="matrix" values="0 0 0 0 0 0 0 0 0 0 0 0 0 0 0 0 0 0 127 0" result="hardAlpha"/>
<feOffset dy="1.03416"/>
<feGaussianBlur stdDeviation="1.03416"/>
<feComposite in2="hardAlpha" operator="out"/>
<feColorMatrix type="matrix" values="0 0 0 0 0 0 0 0 0 0 0 0 0 0 0 0 0 0 0.3 0"/>
<feBlend mode="normal" in2="BackgroundImageFix" result="effect1_dropShadow_202_185"/>
<feBlend mode="normal" in="SourceGraphic" in2="effect1_dropShadow_202_185" result="shape"/>
</filter>
<filter id="filter5_d_202_185" x="105.85" y="150.474" width="24.4135" height="7.51615" filterUnits="userSpaceOnUse" color-interpolation-filters="sRGB">
<feFlood flood-opacity="0" result="BackgroundImageFix"/>
<feColorMatrix in="SourceAlpha" type="matrix" values="0 0 0 0 0 0 0 0 0 0 0 0 0 0 0 0 0 0 127 0" result="hardAlpha"/>
<feOffset dy="1.03416"/>
<feGaussianBlur stdDeviation="1.03416"/>
<feComposite in2="hardAlpha" operator="out"/>
<feColorMatrix type="matrix" values="0 0 0 0 0 0 0 0 0 0 0 0 0 0 0 0 0 0 0.3 0"/>
<feBlend mode="normal" in2="BackgroundImageFix" result="effect1_dropShadow_202_185"/>
<feBlend mode="normal" in="SourceGraphic" in2="effect1_dropShadow_202_185" result="shape"/>
</filter>
<filter id="filter6_d_202_185" x="148.657" y="107.667" width="17.6545" height="7.51615" filterUnits="userSpaceOnUse" color-interpolation-filters="sRGB">
<feFlood flood-opacity="0" result="BackgroundImageFix"/>
<feColorMatrix in="SourceAlpha" type="matrix" values="0 0 0 0 0 0 0 0 0 0 0 0 0 0 0 0 0 0 127 0" result="hardAlpha"/>
<feOffset dy="1.03416"/>
<feGaussianBlur stdDeviation="1.03416"/>
<feComposite in2="hardAlpha" operator="out"/>
<feColorMatrix type="matrix" values="0 0 0 0 0 0 0 0 0 0 0 0 0 0 0 0 0 0 0.3 0"/>
<feBlend mode="normal" in2="BackgroundImageFix" result="effect1_dropShadow_202_185"/>
<feBlend mode="normal" in="SourceGraphic" in2="effect1_dropShadow_202_185" result="shape"/>
</filter>
<filter id="filter7_d_202_185" x="131.76" y="150.474" width="34.5519" height="7.51615" filterUnits="userSpaceOnUse" color-interpolation-filters="sRGB">
<feFlood flood-opacity="0" result="BackgroundImageFix"/>
<feColorMatrix in="SourceAlpha" type="matrix" values="0 0 0 0 0 0 0 0 0 0 0 0 0 0 0 0 0 0 127 0" result="hardAlpha"/>
<feOffset dy="1.03416"/>
<feGaussianBlur stdDeviation="1.03416"/>
<feComposite in2="hardAlpha" operator="out"/>
<feColorMatrix type="matrix" values="0 0 0 0 0 0 0 0 0 0 0 0 0 0 0 0 0 0 0.3 0"/>
<feBlend mode="normal" in2="BackgroundImageFix" result="effect1_dropShadow_202_185"/>
<feBlend mode="normal" in="SourceGraphic" in2="effect1_dropShadow_202_185" result="shape"/>
</filter>
<filter id="filter8_d_202_185" x="79.9408" y="94.1489" width="25.54" height="25.5399" filterUnits="userSpaceOnUse" color-interpolation-filters="sRGB">
<feFlood flood-opacity="0" result="BackgroundImageFix"/>
<feColorMatrix in="SourceAlpha" type="matrix" values="0 0 0 0 0 0 0 0 0 0 0 0 0 0 0 0 0 0 127 0" result="hardAlpha"/>
<feOffset dy="1.03416"/>
<feGaussianBlur stdDeviation="1.03416"/>
<feComposite in2="hardAlpha" operator="out"/>
<feColorMatrix type="matrix" values="0 0 0 0 0 0 0 0 0 0 0 0 0 0 0 0 0 0 0.3 0"/>
<feBlend mode="normal" in2="BackgroundImageFix" result="effect1_dropShadow_202_185"/>
<feBlend mode="normal" in="SourceGraphic" in2="effect1_dropShadow_202_185" result="shape"/>
</filter>
<filter id="filter9_d_202_185" x="162.175" y="64.8601" width="49.1963" height="49.1963" filterUnits="userSpaceOnUse" color-interpolation-filters="sRGB">
<feFlood flood-opacity="0" result="BackgroundImageFix"/>
<feColorMatrix in="SourceAlpha" type="matrix" values="0 0 0 0 0 0 0 0 0 0 0 0 0 0 0 0 0 0 127 0" result="hardAlpha"/>
<feOffset dy="1.03416"/>
<feGaussianBlur stdDeviation="1.03416"/>
<feComposite in2="hardAlpha" operator="out"/>
<feColorMatrix type="matrix" values="0 0 0 0 0 0 0 0 0 0 0 0 0 0 0 0 0 0 0.3 0"/>
<feBlend mode="normal" in2="BackgroundImageFix" result="effect1_dropShadow_202_185"/>
<feBlend mode="normal" in="SourceGraphic" in2="effect1_dropShadow_202_185" result="shape"/>
</filter>
<filter id="filter10_d_202_185" x="79.9408" y="138.082" width="25.54" height="25.5399" filterUnits="userSpaceOnUse" color-interpolation-filters="sRGB">
<feFlood flood-opacity="0" result="BackgroundImageFix"/>
<feColorMatrix in="SourceAlpha" type="matrix" values="0 0 0 0 0 0 0 0 0 0 0 0 0 0 0 0 0 0 127 0" result="hardAlpha"/>
<feOffset dy="1.03416"/>
<feGaussianBlur stdDeviation="1.03416"/>
<feComposite in2="hardAlpha" operator="out"/>
<feColorMatrix type="matrix" values="0 0 0 0 0 0 0 0 0 0 0 0 0 0 0 0 0 0 0.3 0"/>
<feBlend mode="normal" in2="BackgroundImageFix" result="effect1_dropShadow_202_185"/>
<feBlend mode="normal" in="SourceGraphic" in2="effect1_dropShadow_202_185" result="shape"/>
</filter>
</defs>
</svg>
