<svg width="74" height="44" viewBox="0 0 74 44" fill="none" xmlns="http://www.w3.org/2000/svg">
<path d="M25.9553 31.6917C26.0716 33.3205 26.3043 34.6002 27.0024 35.9964C27.7004 37.3925 30.0459 39.4247 30.0459 39.4247L31.442 41.7516C34.1567 41.9842 39.6326 42.4496 39.8187 42.4496C40.0049 42.4496 42.8436 41.4413 44.2397 40.9372L47.0133 35.9964C47.0133 35.9964 47.944 33.3205 48.0604 32.0407C48.1767 30.7609 48.0604 30.5282 47.8277 27.6197C47.595 24.7111 44.3374 20.7555 44.1047 20.7555C43.872 20.7555 46.2176 18.832 46.1012 17.6686C45.9849 16.5052 46.1989 14.3566 46.0826 13.4259C45.9662 12.4951 43.9884 9.81925 43.9884 9.81925C43.523 9.54778 42.5411 9.15234 42.2619 9.05926C41.9129 8.94292 39.6824 8.09065 34.6996 8.59389C30.0918 9.05926 30.958 9.23753 29.9109 10.0519C29.0779 10.6998 28.5594 12.5518 28.2867 13.5259L28.2821 13.5422C28.127 14.3954 27.9518 16.3889 27.9518 17.4359C27.9518 18.483 28.8825 19.2974 28.8825 19.2974C28.8825 19.2974 29.6782 20.0574 30.2599 20.7555C30.8417 21.4535 27.1187 24.4784 26.3043 27.5033C26.3043 27.5033 25.8389 30.0629 25.9553 31.6917Z" fill="white"/>
<path d="M42.4316 4.47443L41.8826 4.05714C42.1891 3.88893 42.3753 3.75889 42.4413 3.66702C43.3503 2.39508 44.5387 1.48351 46.0063 0.932289C46.5145 0.74014 48.0779 0.276266 48.2757 1.10309C48.2912 1.16779 48.2828 1.22925 48.2505 1.28747C47.4068 2.84602 44.0163 3.87664 42.4316 4.47443Z" fill="white"/>
<path d="M32.0059 3.94069C31.9982 4.18266 31.8824 4.34698 31.6587 4.43368C30.332 4.12896 25.7214 2.45008 25.8165 0.978877C25.8204 0.91418 25.852 0.86889 25.9115 0.843011C27.8512 -0.0168076 30.8926 2.42485 32.0059 3.94069Z" fill="white"/>
<path d="M32.0059 3.94068C32.9273 4.8335 33.5344 6.09702 34.0949 7.27903L33.5576 7.38578C33.0042 6.34934 32.3712 5.3653 31.6587 4.43367C31.8824 4.34698 31.9982 4.18265 32.0059 3.94068Z" fill="white"/>
<path d="M41.8826 4.05715L42.4316 4.47444C41.7708 5.37114 41.2238 6.36876 40.7906 7.46731C40.5656 7.49966 40.3316 7.45631 40.0885 7.33727C40.5876 6.18697 41.1857 5.09359 41.8826 4.05715Z" fill="white"/>
<path d="M40.0885 7.33727C40.3316 7.45631 40.5656 7.49965 40.7906 7.46731C42.0527 8.02758 43.1628 8.81882 44.121 9.84103C44.1299 9.85098 44.1358 9.86327 44.1379 9.87646C44.14 9.88964 44.1383 9.90316 44.133 9.91541C44.1277 9.92766 44.119 9.93814 44.108 9.94559C44.0969 9.95305 44.0839 9.95718 44.0706 9.95748H30.1574C30.0824 9.95748 30.0682 9.92837 30.1148 9.87014C31.1253 8.62408 32.3395 8.11363 33.5576 7.38579L34.0949 7.27904C36.0992 6.67865 38.0971 6.69806 40.0885 7.33727Z" fill="white"/>
<path d="M27.8687 16.1684L27.9327 16.3139C27.8667 16.4252 27.7671 16.4763 27.634 16.4673C27.118 16.3392 26.1055 16.0545 24.5965 15.6133C20.8865 14.5264 17.0499 13.8846 13.0865 13.6879C9.27707 13.4977 5.44237 14.1887 1.83656 15.392C1.66587 15.4489 1.44216 15.6728 1.16544 16.0636C1.12923 16.114 1.08009 16.1412 1.01802 16.1451C0.807248 16.1554 0.630091 16.0823 0.486557 15.9258C1.34776 11.9003 10.0258 11.582 12.9333 11.9178C18.129 12.5195 23.1074 13.9363 27.8687 16.1684Z" fill="white"/>
<path d="M73.9509 15.6346L73.9373 16.0053C73.9361 16.0674 73.9083 16.1153 73.8539 16.1489C73.6186 16.2926 73.422 16.2835 73.2643 16.1218C72.7522 15.5977 72.4748 15.6268 71.891 15.3668C64.6755 12.1643 56.2555 14.0605 48.9662 15.8093C48.5279 15.916 47.7753 15.9743 47.1876 16.2285C46.9878 16.3139 46.8152 16.277 46.8287 16.0228C51.0908 14.1388 55.5119 12.8365 60.0921 12.1157C64.1266 11.4811 68.6673 11.6907 72.3042 13.7733C73.0968 14.2262 73.6458 14.8466 73.9509 15.6346Z" fill="white"/>
<path d="M46.3593 16.1684V16.508C46.3102 16.8897 46.1919 17.2456 46.0044 17.5755H28.2721L27.9326 16.3139L27.8686 16.1684C27.8673 15.2626 27.9908 14.4254 28.2391 13.6568C28.2584 13.597 28.296 13.5449 28.3465 13.5079C28.3971 13.4709 28.4579 13.4511 28.5204 13.4511H45.9637C46.0296 13.4511 46.0703 13.4834 46.0859 13.5481C46.2863 14.4164 46.3775 15.2898 46.3593 16.1684Z" fill="white"/>
<path d="M27.6339 16.4673C23.4753 18.7925 18.3081 19.9046 13.6141 20.3102C9.71153 20.648 4.95744 20.1938 1.62317 17.9307C1.43115 17.8007 1.29731 17.8007 1.10917 17.9229C0.633304 17.3484 0.42576 16.6827 0.486536 15.9258C0.63007 16.0823 0.807227 16.1554 1.018 16.1451C1.08007 16.1412 1.12921 16.114 1.16541 16.0636C1.44214 15.6728 1.66585 15.4489 1.83654 15.392C5.44235 14.1886 9.27705 13.4977 13.0865 13.6879C17.0499 13.8846 20.8865 14.5264 24.5964 15.6133C26.1055 16.0545 27.118 16.3392 27.6339 16.4673Z" fill="white"/>
<path d="M73.9509 15.6346C74.1255 16.6491 73.8345 17.5063 73.0781 18.2063L72.8317 18.0646C72.7748 18.0323 72.7205 18.0355 72.6688 18.0743C71.6524 18.8119 70.444 19.3372 69.0436 19.6503C61.4169 21.3486 53.6835 19.9978 46.7822 16.5565C46.7279 16.5294 46.6716 16.5261 46.6134 16.5468C46.5255 16.5779 46.4408 16.565 46.3593 16.508V16.1684L46.8287 16.0228C46.8152 16.2771 46.9878 16.3139 47.1876 16.2285C47.7753 15.9743 48.5279 15.916 48.9662 15.8093C56.2555 14.0605 64.6755 12.1643 71.891 15.3668C72.4748 15.6269 72.7522 15.5977 73.2643 16.1218C73.422 16.2835 73.6186 16.2926 73.8539 16.149C73.9083 16.1153 73.9361 16.0674 73.9373 16.0053L73.9509 15.6346Z" fill="white"/>
<path d="M27.9326 16.3139L28.2721 17.5755L28.2604 17.6862C26.9441 18.3344 25.6807 18.8436 24.4704 19.2136C22.1402 19.9279 20.2206 20.549 18.7115 21.0769C16.1344 21.434 14.227 21.6385 12.9895 21.6902C9.2945 21.8494 3.4639 21.1642 1.10916 17.9229C1.29731 17.8007 1.43114 17.8007 1.62317 17.9307C4.95743 20.1938 9.71153 20.648 13.6141 20.3102C18.3081 19.9046 23.4753 18.7925 27.6339 16.4673C27.7671 16.4763 27.8667 16.4252 27.9326 16.3139Z" fill="white"/>
<path d="M46.3594 16.508C46.4408 16.565 46.5255 16.5779 46.6135 16.5468C46.6717 16.5261 46.7279 16.5294 46.7822 16.5565C53.6835 19.9978 61.4169 21.3486 69.0436 19.6503C70.444 19.3372 71.6525 18.8119 72.6688 18.0743C72.7206 18.0355 72.7749 18.0323 72.8318 18.0646L73.0781 18.2063C71.9512 19.6018 70.1143 20.4015 68.4578 20.8537C64.1731 22.0241 59.84 21.861 55.5165 21.0284C52.7583 20.023 49.5404 19.103 46.3943 17.9074C46.2624 17.8569 46.1092 17.8647 45.9714 17.8666L46.0044 17.5755C46.1919 17.2456 46.3102 16.8897 46.3594 16.508Z" fill="white"/>
<path d="M28.2604 17.6861C28.3626 18.1636 28.5604 18.612 28.854 19.0312L28.6193 19.2757C24.9663 20.2255 22.2811 21.0051 20.5639 21.6145C18.4264 22.3741 16.3658 23.6428 14.3822 25.4206C14.3331 25.4646 14.3014 25.5183 14.2872 25.5817C14.1915 25.9803 13.9393 26.2391 13.5307 26.3581C13.0012 23.3342 16.6516 22.0629 18.7115 21.0769C20.2206 20.549 22.1402 19.9279 24.4704 19.2136C25.6807 18.8436 26.9441 18.3344 28.2604 17.6861Z" fill="white"/>
<path d="M45.9714 17.8667C46.1091 17.8647 46.2624 17.8569 46.3943 17.9074C49.5404 19.103 52.7583 20.023 55.5165 21.0284C57.5027 21.96 59.5626 22.7131 60.7458 24.7083L60.6624 24.9995C60.6443 25.0629 60.6501 25.1243 60.6798 25.1839C60.7419 25.3107 60.7542 25.4401 60.7167 25.572C60.696 25.6432 60.7031 25.7118 60.738 25.7778C60.9488 26.1776 60.8615 26.4765 60.4762 26.6745C60.3999 26.7133 60.3533 26.6913 60.3365 26.6085C60.2453 26.1562 60.1134 25.8205 59.7856 25.4769C56.6492 22.2104 52.3257 20.8731 48.041 19.8794C47.3583 19.7215 46.6658 19.6031 45.9637 19.5242C45.8085 19.3573 45.5699 19.2712 45.2479 19.266C45.5828 18.7795 45.824 18.3131 45.9714 17.8667Z" fill="white"/>
<path d="M28.854 19.0312C29.0014 19.1321 29.0415 19.2408 28.9742 19.3573C26.8057 23.1284 22.0904 29.6887 16.7622 28.9492C15.6656 28.7965 14.7889 28.2777 14.132 27.3926C15.2453 27.8468 16.382 28.0583 17.5419 28.0273C19.9102 27.9652 22.4997 26.3503 23.9874 24.5977C25.5184 22.7901 27.0624 21.0161 28.6193 19.2758L28.854 19.0312Z" fill="white"/>
<path d="M28.6193 19.2758C27.0624 21.0161 25.5184 22.7901 23.9874 24.5977C22.4997 26.3503 19.9102 27.9652 17.5419 28.0273C16.382 28.0583 15.2454 27.8468 14.132 27.3926C13.7868 27.1843 13.5863 26.8394 13.5307 26.3581C13.9393 26.2391 14.1915 25.9803 14.2872 25.5817C14.3014 25.5183 14.3331 25.4646 14.3822 25.4206C16.3658 23.6428 18.4264 22.3741 20.5639 21.6145C22.2811 21.0051 24.9663 20.2255 28.6193 19.2758Z" fill="white"/>
<path d="M45.2479 19.266C45.5699 19.2712 45.8085 19.3573 45.9637 19.5242C49.0593 23.3536 52.2035 28.1651 57.5996 28.0583C58.4027 28.0428 59.5606 27.7245 60.2259 27.0568C60.2699 27.0128 60.3223 26.996 60.383 27.0064L60.608 27.0452C60.0455 27.8875 59.3499 28.451 58.521 28.7357C54.9811 29.9488 51.2434 27.1733 49.0206 24.5589C47.4753 22.7422 46.2178 20.9779 45.2479 19.266Z" fill="white"/>
<path d="M45.9637 19.5242C46.6658 19.6031 47.3583 19.7215 48.041 19.8794C52.3257 20.8731 56.6492 22.2104 59.7856 25.4769C60.1134 25.8205 60.2453 26.1562 60.3365 26.6085C60.3533 26.6913 60.3999 26.7133 60.4761 26.6745C60.8615 26.4765 60.9488 26.1776 60.738 25.7778C60.7031 25.7118 60.696 25.6432 60.7167 25.572C60.7542 25.44 60.7419 25.3107 60.6798 25.1838C60.6501 25.1243 60.6442 25.0629 60.6624 24.9995L60.7458 24.7083C61.1311 25.5183 61.0852 26.2973 60.608 27.0452L60.383 27.0063C60.3223 26.996 60.2699 27.0128 60.2259 27.0568C59.5606 27.7245 58.4027 28.0428 57.5996 28.0583C52.2035 28.1651 49.0593 23.3536 45.9637 19.5242Z" fill="white"/>
<path d="M51.9281 31.2511L51.7419 31.3074C51.6617 31.0978 51.5499 30.9063 51.4063 30.7329C51.1943 30.4767 51.0863 30.3454 51.0824 30.3389C49.2954 27.8869 47.1023 25.1703 44.5031 22.189C44.0699 21.6922 43.746 21.3506 43.5314 21.1643C43.4641 21.106 43.4686 21.0543 43.5449 21.009L44.0725 20.6946C44.1307 20.6596 44.1824 20.6674 44.2277 20.7178C47.1385 23.985 49.8779 27.3907 52.446 30.9347C52.4595 30.9539 52.4673 30.9765 52.4686 30.9999C52.4698 31.0233 52.4643 31.0465 52.4529 31.0668C52.4415 31.087 52.4245 31.1035 52.404 31.1141C52.3835 31.1248 52.3604 31.1292 52.3374 31.1269C52.19 31.1127 52.0535 31.1541 51.9281 31.2511Z" fill="white"/>
<path d="M22.5016 31.4529C22.446 31.343 22.349 31.3106 22.2106 31.3559L21.8751 30.9503C21.8311 30.8972 21.8298 30.8429 21.8712 30.7872C24.4936 27.3415 27.246 24.0031 30.1283 20.7722C30.1943 20.6984 30.2647 20.6932 30.3397 20.7566L30.749 21.1021C30.8111 21.1552 30.8104 21.2076 30.7471 21.2593C30.4975 21.4677 30.2654 21.6928 30.0507 21.9348C27.4852 24.8435 25.0374 27.848 22.7072 30.9483C22.6684 31.0001 22.6445 31.057 22.6354 31.1191C22.6147 31.2472 22.5701 31.3585 22.5016 31.4529Z" fill="white"/>
<path d="M26.1734 32.142C26.1226 32.1419 26.0735 32.1234 26.0353 32.0898C25.9971 32.0563 25.9724 32.01 25.9659 31.9595C25.7848 30.5297 25.8779 29.1168 26.2452 27.7206C26.2713 27.6199 26.3299 27.5306 26.412 27.4667C26.4941 27.4028 26.595 27.3679 26.699 27.3674C33.2499 27.3221 39.7523 27.3091 46.2061 27.3286C46.6988 27.3298 47.1908 27.3531 47.6822 27.3984C47.752 27.4049 47.796 27.4424 47.8141 27.511C48.1839 28.9887 48.2699 30.4864 48.0721 32.0042C48.0702 32.0234 48.0609 32.0413 48.0462 32.0542C48.0315 32.0671 48.0124 32.0742 47.9926 32.0741L26.1734 32.142Z" fill="white"/>
<path d="M51.9281 31.2511C53.8729 33.8713 54.5292 36.8027 53.8969 40.0453C53.549 40.2433 53.216 40.2556 52.8979 40.0822C51.9378 37.1417 51.8525 34.3624 51.7419 31.3074L51.9281 31.2511Z" fill="white"/>
<path d="M22.2107 31.3559C22.349 31.3106 22.446 31.343 22.5016 31.453C22.3814 34.3895 22.2204 37.264 21.1361 40.0337C20.8697 40.233 20.5924 40.2517 20.304 40.09C19.7622 36.9004 20.3978 33.9891 22.2107 31.3559Z" fill="white"/>
<path d="M29.7946 40.9991C29.6562 40.8775 29.726 40.8828 29.9109 40.8828L44.2199 40.8644C44.2729 40.8644 44.2807 40.8831 44.2432 40.9207C39.9546 45.1402 34.1607 44.8479 29.7946 40.9991Z" fill="white"/>
<path d="M47.0133 35.9964H27.0023C28.1001 39.6263 29.2208 40.7664 29.6782 40.8828H44.2556C45.7193 39.952 46.6702 37.2374 47.0133 35.9964Z" fill="white"/>
</svg>
